<mxfile host="Electron" modified="2023-11-13T04:31:49.178Z" agent="Mozilla/5.0 (Windows NT 10.0; Win64; x64) AppleWebKit/537.36 (KHTML, like Gecko) draw.io/22.0.3 Chrome/114.0.5735.289 Electron/25.8.4 Safari/537.36" etag="AikUQdc2waT9cPOkCUeT" version="22.0.3" type="device">
  <diagram name="Infraestructura" id="iBFD8KA5IQQ8N3eoun7O">
    <mxGraphModel dx="4568" dy="2868" grid="1" gridSize="10" guides="1" tooltips="1" connect="1" arrows="1" fold="1" page="1" pageScale="1" pageWidth="850" pageHeight="1100" background="none" math="0" shadow="0">
      <root>
        <mxCell id="5G_yt-iN49mRIbdVEVWk-0" />
        <mxCell id="5G_yt-iN49mRIbdVEVWk-1" parent="5G_yt-iN49mRIbdVEVWk-0" />
        <mxCell id="5G_yt-iN49mRIbdVEVWk-2" value="&lt;b&gt;Digital Ocean&amp;nbsp;&lt;/b&gt;Platform" style="fillColor=#dae8fc;strokeColor=#6c8ebf;shadow=0;fontSize=14;align=left;spacing=10;9E9E9E;verticalAlign=top;spacingTop=-4;fontStyle=0;spacingLeft=40;html=1;whiteSpace=wrap;glass=0;container=0;" parent="5G_yt-iN49mRIbdVEVWk-1" vertex="1">
          <mxGeometry x="-1360" y="-1041" width="770" height="931" as="geometry" />
        </mxCell>
        <mxCell id="5G_yt-iN49mRIbdVEVWk-3" value="&lt;font color=&quot;#999999&quot;&gt;Project - AppBajoPruebas&lt;/font&gt;" style="sketch=0;points=[[0,0,0],[0.25,0,0],[0.5,0,0],[0.75,0,0],[1,0,0],[1,0.25,0],[1,0.5,0],[1,0.75,0],[1,1,0],[0.75,1,0],[0.5,1,0],[0.25,1,0],[0,1,0],[0,0.75,0],[0,0.5,0],[0,0.25,0]];rounded=1;absoluteArcSize=1;arcSize=2;html=1;shadow=0;dashed=0;fontSize=12;align=left;verticalAlign=top;spacing=10;spacingTop=-4;whiteSpace=wrap;container=0;strokeColor=none;" parent="5G_yt-iN49mRIbdVEVWk-1" vertex="1">
          <mxGeometry x="-1350" y="-1001.36" width="750" height="881.36" as="geometry" />
        </mxCell>
        <mxCell id="5G_yt-iN49mRIbdVEVWk-144" value="" style="sketch=0;points=[[0,0,0],[0.25,0,0],[0.5,0,0],[0.75,0,0],[1,0,0],[1,0.25,0],[1,0.5,0],[1,0.75,0],[1,1,0],[0.75,1,0],[0.5,1,0],[0.25,1,0],[0,1,0],[0,0.75,0],[0,0.5,0],[0,0.25,0]];rounded=1;absoluteArcSize=1;arcSize=2;html=1;strokeColor=none;gradientColor=none;shadow=0;dashed=0;fontSize=12;fontColor=#9E9E9E;align=left;verticalAlign=top;spacing=10;spacingTop=-4;whiteSpace=wrap;fillColor=#ECEFF1;container=0;" parent="5G_yt-iN49mRIbdVEVWk-1" vertex="1">
          <mxGeometry x="-1340" y="-920" width="730.94" height="740" as="geometry" />
        </mxCell>
        <mxCell id="5G_yt-iN49mRIbdVEVWk-148" value="" style="sketch=0;points=[[0,0,0],[0.25,0,0],[0.5,0,0],[0.75,0,0],[1,0,0],[1,0.25,0],[1,0.5,0],[1,0.75,0],[1,1,0],[0.75,1,0],[0.5,1,0],[0.25,1,0],[0,1,0],[0,0.75,0],[0,0.5,0],[0,0.25,0]];rounded=1;absoluteArcSize=1;arcSize=2;html=1;strokeColor=none;gradientColor=none;shadow=0;dashed=0;fontSize=12;fontColor=#9E9E9E;align=left;verticalAlign=top;spacing=10;spacingTop=-4;whiteSpace=wrap;fillColor=#EDE7F6;container=0;" parent="5G_yt-iN49mRIbdVEVWk-1" vertex="1">
          <mxGeometry x="-1325" y="-856" width="705.94" height="626" as="geometry">
            <mxPoint x="10" y="35" as="offset" />
          </mxGeometry>
        </mxCell>
        <mxCell id="5G_yt-iN49mRIbdVEVWk-137" value="" style="sketch=0;points=[[0,0,0],[0.25,0,0],[0.5,0,0],[0.75,0,0],[1,0,0],[1,0.25,0],[1,0.5,0],[1,0.75,0],[1,1,0],[0.75,1,0],[0.5,1,0],[0.25,1,0],[0,1,0],[0,0.75,0],[0,0.5,0],[0,0.25,0]];rounded=1;absoluteArcSize=1;arcSize=2;html=1;strokeColor=none;shadow=0;dashed=0;fontSize=12;align=left;verticalAlign=top;spacing=10;spacingTop=-4;whiteSpace=wrap;fillColor=#FBE9E7;container=0;" parent="5G_yt-iN49mRIbdVEVWk-1" vertex="1">
          <mxGeometry x="-1309.94" y="-826.54" width="679.94" height="586.54" as="geometry">
            <mxPoint x="-10" y="935" as="offset" />
          </mxGeometry>
        </mxCell>
        <mxCell id="5G_yt-iN49mRIbdVEVWk-150" value="" style="sketch=0;points=[[0,0,0],[0.25,0,0],[0.5,0,0],[0.75,0,0],[1,0,0],[1,0.25,0],[1,0.5,0],[1,0.75,0],[1,1,0],[0.75,1,0],[0.5,1,0],[0.25,1,0],[0,1,0],[0,0.75,0],[0,0.5,0],[0,0.25,0]];rounded=1;absoluteArcSize=1;arcSize=2;html=1;shadow=0;dashed=0;fontSize=12;align=left;verticalAlign=top;spacing=10;spacingTop=-4;whiteSpace=wrap;strokeColor=none;" parent="5G_yt-iN49mRIbdVEVWk-1" vertex="1">
          <mxGeometry x="-1299.94" y="-650" width="659.94" height="400" as="geometry" />
        </mxCell>
        <mxCell id="5G_yt-iN49mRIbdVEVWk-13" value="External SaaS&#xa;Providers" style="sketch=0;points=[[0,0,0],[0.25,0,0],[0.5,0,0],[0.75,0,0],[1,0,0],[1,0.25,0],[1,0.5,0],[1,0.75,0],[1,1,0],[0.75,1,0],[0.5,1,0],[0.25,1,0],[0,1,0],[0,0.75,0],[0,0.5,0],[0,0.25,0]];rounded=1;absoluteArcSize=1;arcSize=2;html=1;strokeColor=#666666;shadow=0;dashed=0;fontSize=12;fontColor=#333333;align=left;verticalAlign=top;spacing=10;spacingTop=-4;whiteSpace=wrap;fillColor=#f5f5f5;" parent="5G_yt-iN49mRIbdVEVWk-1" vertex="1">
          <mxGeometry x="-1680" y="-751" width="280" height="641" as="geometry" />
        </mxCell>
        <mxCell id="5G_yt-iN49mRIbdVEVWk-14" value="External Data Sources&lt;br&gt;Public Remote Repository" style="sketch=0;points=[[0,0,0],[0.25,0,0],[0.5,0,0],[0.75,0,0],[1,0,0],[1,0.25,0],[1,0.5,0],[1,0.75,0],[1,1,0],[0.75,1,0],[0.5,1,0],[0.25,1,0],[0,1,0],[0,0.75,0],[0,0.5,0],[0,0.25,0]];rounded=1;absoluteArcSize=1;arcSize=2;html=1;strokeColor=none;gradientColor=none;shadow=0;dashed=0;fontSize=12;fontColor=#9E9E9E;align=left;verticalAlign=top;spacing=10;spacingTop=-4;whiteSpace=wrap;fillColor=#FFF8E1;" parent="5G_yt-iN49mRIbdVEVWk-1" vertex="1">
          <mxGeometry x="-1668.62" y="-707" width="258.62" height="280" as="geometry" />
        </mxCell>
        <mxCell id="5G_yt-iN49mRIbdVEVWk-15" value="Packages" style="sketch=0;points=[[0,0,0],[0.25,0,0],[0.5,0,0],[0.75,0,0],[1,0,0],[1,0.25,0],[1,0.5,0],[1,0.75,0],[1,1,0],[0.75,1,0],[0.5,1,0],[0.25,1,0],[0,1,0],[0,0.75,0],[0,0.5,0],[0,0.25,0]];rounded=1;absoluteArcSize=1;arcSize=2;html=1;strokeColor=none;gradientColor=none;shadow=0;dashed=0;fontSize=12;fontColor=#9E9E9E;align=left;verticalAlign=top;spacing=10;spacingTop=-4;whiteSpace=wrap;fillColor=#F1F8E9;" parent="5G_yt-iN49mRIbdVEVWk-1" vertex="1">
          <mxGeometry x="-1653.6299999999999" y="-536.9999999999999" width="227.25" height="97.9" as="geometry" />
        </mxCell>
        <mxCell id="5G_yt-iN49mRIbdVEVWk-16" value="External&lt;br&gt;Infrastructure&lt;br&gt;3&lt;sup&gt;rd&lt;/sup&gt; Party (Home Network)" style="sketch=0;points=[[0,0,0],[0.25,0,0],[0.5,0,0],[0.75,0,0],[1,0,0],[1,0.25,0],[1,0.5,0],[1,0.75,0],[1,1,0],[0.75,1,0],[0.5,1,0],[0.25,1,0],[0,1,0],[0,0.75,0],[0,0.5,0],[0,0.25,0]];rounded=1;absoluteArcSize=1;arcSize=2;html=1;strokeColor=default;gradientColor=none;shadow=0;dashed=0;fontSize=12;fontColor=#9E9E9E;align=left;verticalAlign=top;spacing=10;spacingTop=-4;whiteSpace=wrap;fillColor=#E0F2F1;" parent="5G_yt-iN49mRIbdVEVWk-1" vertex="1">
          <mxGeometry x="-550" y="-390" width="350" height="280" as="geometry" />
        </mxCell>
        <mxCell id="5G_yt-iN49mRIbdVEVWk-17" value="External SaaS&#xa;Providers" style="sketch=0;points=[[0,0,0],[0.25,0,0],[0.5,0,0],[0.75,0,0],[1,0,0],[1,0.25,0],[1,0.5,0],[1,0.75,0],[1,1,0],[0.75,1,0],[0.5,1,0],[0.25,1,0],[0,1,0],[0,0.75,0],[0,0.5,0],[0,0.25,0]];rounded=1;absoluteArcSize=1;arcSize=2;html=1;strokeColor=#666666;shadow=0;dashed=0;fontSize=12;fontColor=#333333;align=left;verticalAlign=top;spacing=10;spacingTop=-4;whiteSpace=wrap;fillColor=#f5f5f5;" parent="5G_yt-iN49mRIbdVEVWk-1" vertex="1">
          <mxGeometry x="-550" y="-1041.14" width="340" height="301" as="geometry" />
        </mxCell>
        <mxCell id="5G_yt-iN49mRIbdVEVWk-27" value="&lt;b&gt;&lt;font style=&quot;font-size: 16px;&quot;&gt;GitHub&lt;/font&gt;&lt;/b&gt;" style="text;html=1;strokeColor=none;fillColor=none;align=center;verticalAlign=middle;whiteSpace=wrap;rounded=0;" parent="5G_yt-iN49mRIbdVEVWk-1" vertex="1">
          <mxGeometry x="-1573.63" y="-751" width="60" height="30" as="geometry" />
        </mxCell>
        <mxCell id="5G_yt-iN49mRIbdVEVWk-34" value="&lt;b&gt;juanmanuelgg/BackVynils&lt;/b&gt;&lt;br&gt;&lt;font style=&quot;font-size: 10px;&quot;&gt;MISW-4104-Web/BackVynils&lt;/font&gt;" style="text;html=1;strokeColor=none;fillColor=none;align=center;verticalAlign=middle;whiteSpace=wrap;rounded=0;" parent="5G_yt-iN49mRIbdVEVWk-1" vertex="1">
          <mxGeometry x="-1625.49" y="-661.43" width="172.38" height="30" as="geometry" />
        </mxCell>
        <mxCell id="5G_yt-iN49mRIbdVEVWk-36" value="" style="shape=datastore;whiteSpace=wrap;html=1;aspect=fixed;strokeWidth=3;shadow=1;" parent="5G_yt-iN49mRIbdVEVWk-1" vertex="1">
          <mxGeometry x="-1569.74" y="-612.74" width="60.86" height="60.86" as="geometry" />
        </mxCell>
        <mxCell id="5G_yt-iN49mRIbdVEVWk-37" value="Code" style="text;html=1;strokeColor=none;fillColor=none;align=center;verticalAlign=middle;whiteSpace=wrap;rounded=0;" parent="5G_yt-iN49mRIbdVEVWk-1" vertex="1">
          <mxGeometry x="-1568.88" y="-584.3700000000001" width="60" height="30" as="geometry" />
        </mxCell>
        <mxCell id="CYGOTzT2Un6UXpQJSBjx-35" style="edgeStyle=orthogonalEdgeStyle;rounded=0;orthogonalLoop=1;jettySize=auto;html=1;entryX=1;entryY=0.5;entryDx=0;entryDy=0;" parent="5G_yt-iN49mRIbdVEVWk-1" source="5G_yt-iN49mRIbdVEVWk-44" target="CYGOTzT2Un6UXpQJSBjx-66" edge="1">
          <mxGeometry relative="1" as="geometry">
            <mxPoint x="-561.81" y="-913" as="targetPoint" />
            <Array as="points">
              <mxPoint x="-500" y="-880" />
              <mxPoint x="-500" y="-960" />
            </Array>
          </mxGeometry>
        </mxCell>
        <mxCell id="5G_yt-iN49mRIbdVEVWk-44" value="&lt;span style=&quot;background-color: rgb(245, 245, 245);&quot;&gt;Domain names servers&lt;/span&gt;" style="image;sketch=0;aspect=fixed;html=1;points=[];align=center;fontSize=12;image=img/lib/mscae/DNS.svg;" parent="5G_yt-iN49mRIbdVEVWk-1" vertex="1">
          <mxGeometry x="-405" y="-897.99" width="50" height="50" as="geometry" />
        </mxCell>
        <mxCell id="5G_yt-iN49mRIbdVEVWk-51" style="edgeStyle=orthogonalEdgeStyle;rounded=0;orthogonalLoop=1;jettySize=auto;html=1;exitX=0.5;exitY=0;exitDx=0;exitDy=0;entryX=0.5;entryY=1;entryDx=0;entryDy=0;dashed=1;endArrow=none;endFill=0;strokeColor=#007FFF;" parent="5G_yt-iN49mRIbdVEVWk-1" source="5G_yt-iN49mRIbdVEVWk-53" target="5G_yt-iN49mRIbdVEVWk-59" edge="1">
          <mxGeometry relative="1" as="geometry" />
        </mxCell>
        <mxCell id="5G_yt-iN49mRIbdVEVWk-52" style="edgeStyle=orthogonalEdgeStyle;rounded=0;orthogonalLoop=1;jettySize=auto;html=1;strokeWidth=1;strokeColor=#000000;exitX=1;exitY=0.5;exitDx=0;exitDy=0;entryX=1.001;entryY=0.527;entryDx=0;entryDy=0;entryPerimeter=0;" parent="5G_yt-iN49mRIbdVEVWk-1" source="5G_yt-iN49mRIbdVEVWk-53" target="5G_yt-iN49mRIbdVEVWk-44" edge="1">
          <mxGeometry relative="1" as="geometry">
            <mxPoint x="625" y="217.25" as="sourcePoint" />
            <mxPoint x="530" y="-833" as="targetPoint" />
            <Array as="points">
              <mxPoint x="-180" y="-204" />
              <mxPoint x="-180" y="-872" />
            </Array>
          </mxGeometry>
        </mxCell>
        <mxCell id="5G_yt-iN49mRIbdVEVWk-53" value="Postgresql-client" style="shape=image;verticalLabelPosition=bottom;verticalAlign=top;imageAspect=0;image=data:image/svg+xml,PHN2ZyB4bWxucz0iaHR0cDovL3d3dy53My5vcmcvMjAwMC9zdmciIHhtbDpzcGFjZT0icHJlc2VydmUiIHZpZXdCb3g9IjAgMCA0MzIuMDcxIDQ0NS4zODMiIGhlaWdodD0iNDQ1LjM4M3B0IiB3aWR0aD0iNDMyLjA3MXB0Ij4mI3hhOzxnIHN0eWxlPSJmaWxsLXJ1bGU6bm9uemVybztjbGlwLXJ1bGU6bm9uemVybztzdHJva2U6IzAwMDAwMDtzdHJva2UtbWl0ZXJsaW1pdDo0OyIgaWQ9Im9yZ2luYWwiPiYjeGE7CTwvZz4mI3hhOzxnIHN0eWxlPSJmaWxsLXJ1bGU6bm9uemVybztjbGlwLXJ1bGU6bm9uemVybztmaWxsOm5vbmU7c3Ryb2tlOiNGRkZGRkY7c3Ryb2tlLXdpZHRoOjEyLjQ2NTE7c3Ryb2tlLWxpbmVjYXA6cm91bmQ7c3Ryb2tlLWxpbmVqb2luOnJvdW5kO3N0cm9rZS1taXRlcmxpbWl0OjQ7IiBpZD0iTGF5ZXJfeDAwMjBfMyI+JiN4YTs8cGF0aCBkPSJNMzIzLjIwNSwzMjQuMjI3YzIuODMzLTIzLjYwMSwxLjk4NC0yNy4wNjIsMTkuNTYzLTIzLjIzOWw0LjQ2MywwLjM5MmMxMy41MTcsMC42MTUsMzEuMTk5LTIuMTc0LDQxLjU4Ny03YzIyLjM2Mi0xMC4zNzYsMzUuNjIyLTI3LjcsMTMuNTcyLTIzLjE0OGMtNTAuMjk3LDEwLjM3Ni01My43NTUtNi42NTUtNTMuNzU1LTYuNjU1YzUzLjExMS03OC44MDMsNzUuMzEzLTE3OC44MzYsNTYuMTQ5LTIwMy4zMjIgICAgQzM1Mi41MTQtNS41MzQsMjYyLjAzNiwyNi4wNDksMjYwLjUyMiwyNi44NjlsLTAuNDgyLDAuMDg5Yy05LjkzOC0yLjA2Mi0yMS4wNi0zLjI5NC0zMy41NTQtMy40OTZjLTIyLjc2MS0wLjM3NC00MC4wMzIsNS45NjctNTMuMTMzLDE1LjkwNGMwLDAtMTYxLjQwOC02Ni40OTgtMTUzLjg5OSw4My42MjhjMS41OTcsMzEuOTM2LDQ1Ljc3NywyNDEuNjU1LDk4LjQ3LDE3OC4zMSAgICBjMTkuMjU5LTIzLjE2MywzNy44NzEtNDIuNzQ4LDM3Ljg3MS00Mi43NDhjOS4yNDIsNi4xNCwyMC4zMDcsOS4yNzIsMzEuOTEyLDguMTQ3bDAuODk3LTAuNzY1Yy0wLjI4MSwyLjg3Ni0wLjE1Nyw1LjY4OSwwLjM1OSw5LjAxOWMtMTMuNTcyLDE1LjE2Ny05LjU4NCwxNy44My0zNi43MjMsMjMuNDE2Yy0yNy40NTcsNS42NTktMTEuMzI2LDE1LjczNC0wLjc5NywxOC4zNjdjMTIuNzY4LDMuMTkzLDQyLjMwNSw3LjcxNiw2Mi4yNjgtMjAuMjI0ICAgIGwtMC43OTUsMy4xODhjNS4zMjUsNC4yNiw0Ljk2NSwzMC42MTksNS43Miw0OS40NTJjMC43NTYsMTguODM0LDIuMDE3LDM2LjQwOSw1Ljg1Niw0Ni43NzFjMy44MzksMTAuMzYsOC4zNjksMzcuMDUsNDQuMDM2LDI5LjQwNmMyOS44MDktNi4zODgsNTIuNi0xNS41ODIsNTQuNjc3LTEwMS4xMDciIHN0eWxlPSJmaWxsOiMwMDAwMDA7c3Ryb2tlOiMwMDAwMDA7c3Ryb2tlLXdpZHRoOjM3LjM5NTM7c3Ryb2tlLWxpbmVjYXA6YnV0dDtzdHJva2UtbGluZWpvaW46bWl0ZXI7Ii8+JiN4YTs8cGF0aCBkPSJNNDAyLjM5NSwyNzEuMjNjLTUwLjMwMiwxMC4zNzYtNTMuNzYtNi42NTUtNTMuNzYtNi42NTVjNTMuMTExLTc4LjgwOCw3NS4zMTMtMTc4Ljg0Myw1Ni4xNTMtMjAzLjMyNmMtNTIuMjctNjYuNzg1LTE0Mi43NTItMzUuMi0xNDQuMjYyLTM0LjM4bC0wLjQ4NiwwLjA4N2MtOS45MzgtMi4wNjMtMjEuMDYtMy4yOTItMzMuNTYtMy40OTZjLTIyLjc2MS0wLjM3My00MC4wMjYsNS45NjctNTMuMTI3LDE1LjkwMiAgICBjMCwwLTE2MS40MTEtNjYuNDk1LTE1My45MDQsODMuNjNjMS41OTcsMzEuOTM4LDQ1Ljc3NiwyNDEuNjU3LDk4LjQ3MSwxNzguMzEyYzE5LjI2LTIzLjE2MywzNy44NjktNDIuNzQ4LDM3Ljg2OS00Mi43NDhjOS4yNDMsNi4xNCwyMC4zMDgsOS4yNzIsMzEuOTA4LDguMTQ3bDAuOTAxLTAuNzY1Yy0wLjI4LDIuODc2LTAuMTUyLDUuNjg5LDAuMzYxLDkuMDE5Yy0xMy41NzUsMTUuMTY3LTkuNTg2LDE3LjgzLTM2LjcyMywyMy40MTYgICAgYy0yNy40NTksNS42NTktMTEuMzI4LDE1LjczNC0wLjc5NiwxOC4zNjdjMTIuNzY4LDMuMTkzLDQyLjMwNyw3LjcxNiw2Mi4yNjYtMjAuMjI0bC0wLjc5NiwzLjE4OGM1LjMxOSw0LjI2LDkuMDU0LDI3LjcxMSw4LjQyOCw0OC45NjljLTAuNjI2LDIxLjI1OS0xLjA0NCwzNS44NTQsMy4xNDcsNDcuMjU0YzQuMTkxLDExLjQsOC4zNjgsMzcuMDUsNDQuMDQyLDI5LjQwNmMyOS44MDktNi4zODgsNDUuMjU2LTIyLjk0Miw0Ny40MDUtNTAuNTU1ICAgIGMxLjUyNS0xOS42MzEsNC45NzYtMTYuNzI5LDUuMTk0LTM0LjI4bDIuNzY4LTguMzA5YzMuMTkyLTI2LjYxMSwwLjUwNy0zNS4xOTYsMTguODcyLTMxLjIwM2w0LjQ2MywwLjM5MmMxMy41MTcsMC42MTUsMzEuMjA4LTIuMTc0LDQxLjU5MS03YzIyLjM1OC0xMC4zNzYsMzUuNjE4LTI3LjcsMTMuNTczLTIzLjE0OHoiIHN0eWxlPSJmaWxsOiMzMzY3OTE7c3Ryb2tlOm5vbmU7Ii8+JiN4YTs8cGF0aCBkPSJNMjE1Ljg2NiwyODYuNDg0Yy0xLjM4NSw0OS41MTYsMC4zNDgsOTkuMzc3LDUuMTkzLDExMS40OTVjNC44NDgsMTIuMTE4LDE1LjIyMywzNS42ODgsNTAuOSwyOC4wNDVjMjkuODA2LTYuMzksNDAuNjUxLTE4Ljc1Niw0NS4zNTctNDYuMDUxYzMuNDY2LTIwLjA4MiwxMC4xNDgtNzUuODU0LDExLjAwNS04Ny4yODEiLz4mI3hhOzxwYXRoIGQ9Ik0xNzMuMTA0LDM4LjI1NmMwLDAtMTYxLjUyMS02Ni4wMTYtMTU0LjAxMiw4NC4xMDljMS41OTcsMzEuOTM4LDQ1Ljc3OSwyNDEuNjY0LDk4LjQ3MywxNzguMzE2YzE5LjI1Ni0yMy4xNjYsMzYuNjcxLTQxLjMzNSwzNi42NzEtNDEuMzM1Ii8+JiN4YTs8cGF0aCBkPSJNMjYwLjM0OSwyNi4yMDdjLTUuNTkxLDEuNzUzLDg5Ljg0OC0zNC44ODksMTQ0LjA4NywzNC40MTdjMTkuMTU5LDI0LjQ4NC0zLjA0MywxMjQuNTE5LTU2LjE1MywyMDMuMzI5Ii8+JiN4YTs8cGF0aCBkPSJNMzQ4LjI4MiwyNjMuOTUzYzAsMCwzLjQ2MSwxNy4wMzYsNTMuNzY0LDYuNjUzYzIyLjA0LTQuNTUyLDguNzc2LDEyLjc3NC0xMy41NzcsMjMuMTU1Yy0xOC4zNDUsOC41MTQtNTkuNDc0LDEwLjY5Ni02MC4xNDYtMS4wNjljLTEuNzI5LTMwLjM1NSwyMS42NDctMjEuMTMzLDE5Ljk2LTI4LjczOWMtMS41MjUtNi44NS0xMS45NzktMTMuNTczLTE4Ljg5NC0zMC4zMzggICAgYy02LjAzNy0xNC42MzMtODIuNzk2LTEyNi44NDksMjEuMjg3LTExMC4xODNjMy44MTMtMC43ODktMjcuMTQ2LTk5LjAwMi0xMjQuNTUzLTEwMC41OTljLTk3LjM4NS0xLjU5Ny05NC4xOSwxMTkuNzYyLTk0LjE5LDExOS43NjIiIHN0eWxlPSJzdHJva2UtbGluZWpvaW46YmV2ZWw7Ii8+JiN4YTs8cGF0aCBkPSJNMTg4LjYwNCwyNzQuMzM0Yy0xMy41NzcsMTUuMTY2LTkuNTg0LDE3LjgyOS0zNi43MjMsMjMuNDE3Yy0yNy40NTksNS42Ni0xMS4zMjYsMTUuNzMzLTAuNzk3LDE4LjM2NWMxMi43NjgsMy4xOTUsNDIuMzA3LDcuNzE4LDYyLjI2Ni0yMC4yMjljNi4wNzgtOC41MDktMC4wMzYtMjIuMDg2LTguMzg1LTI1LjU0N2MtNC4wMzQtMS42NzEtOS40MjgtMy43NjUtMTYuMzYxLDMuOTk0eiIvPiYjeGE7PHBhdGggZD0iTTE4Ny43MTUsMjc0LjA2OWMtMS4zNjgtOC45MTcsMi45My0xOS41MjgsNy41MzYtMzEuOTQyYzYuOTIyLTE4LjYyNiwyMi44OTMtMzcuMjU1LDEwLjExNy05Ni4zMzljLTkuNTIzLTQ0LjAyOS03My4zOTYtOS4xNjMtNzMuNDM2LTMuMTkzYy0wLjAzOSw1Ljk2OCwyLjg4OSwzMC4yNi0xLjA2Nyw1OC41NDhjLTUuMTYyLDM2LjkxMywyMy40ODgsNjguMTMyLDU2LjQ3OSw2NC45MzgiLz4mI3hhOzxwYXRoIGQ9Ik0xNzIuNTE3LDE0MS43Yy0wLjI4OCwyLjAzOSwzLjczMyw3LjQ4LDguOTc2LDguMjA3YzUuMjM0LDAuNzMsOS43MTQtMy41MjIsOS45OTgtNS41NTljMC4yODQtMi4wMzktMy43MzItNC4yODUtOC45NzctNS4wMTVjLTUuMjM3LTAuNzMxLTkuNzE5LDAuMzMzLTkuOTk2LDIuMzY3eiIgc3R5bGU9ImZpbGw6I0ZGRkZGRjtzdHJva2Utd2lkdGg6NC4xNTU7c3Ryb2tlLWxpbmVjYXA6YnV0dDtzdHJva2UtbGluZWpvaW46bWl0ZXI7Ii8+JiN4YTs8cGF0aCBkPSJNMzMxLjk0MSwxMzcuNTQzYzAuMjg0LDIuMDM5LTMuNzMyLDcuNDgtOC45NzYsOC4yMDdjLTUuMjM4LDAuNzMtOS43MTgtMy41MjItMTAuMDA1LTUuNTU5Yy0wLjI3Ny0yLjAzOSwzLjc0LTQuMjg1LDguOTc5LTUuMDE1YzUuMjM5LTAuNzMsOS43MTgsMC4zMzMsMTAuMDAyLDIuMzY4eiIgc3R5bGU9ImZpbGw6I0ZGRkZGRjtzdHJva2Utd2lkdGg6Mi4wNzc1O3N0cm9rZS1saW5lY2FwOmJ1dHQ7c3Ryb2tlLWxpbmVqb2luOm1pdGVyOyIvPiYjeGE7PHBhdGggZD0iTTM1MC42NzYsMTIzLjQzMmMwLjg2MywxNS45OTQtMy40NDUsMjYuODg4LTMuOTg4LDQzLjkxNGMtMC44MDQsMjQuNzQ4LDExLjc5OSw1My4wNzQtNy4xOTEsODEuNDM1Ii8+JiN4YTs8cGF0aCBkPSJNMCw2MC4yMzIiIHN0eWxlPSJzdHJva2Utd2lkdGg6MzsiLz4mI3hhOzwvZz4mI3hhOzwvc3ZnPg==;aspect=fixed;" parent="5G_yt-iN49mRIbdVEVWk-1" vertex="1">
          <mxGeometry x="-395.08000000000004" y="-225.53000000000011" width="40.08" height="41.35" as="geometry" />
        </mxCell>
        <mxCell id="5G_yt-iN49mRIbdVEVWk-59" value="&lt;font style=&quot;font-size: 10px;&quot;&gt;&lt;b style=&quot;font-size: 10px;&quot;&gt;1. SSH Tunneling&lt;/b&gt;&lt;br&gt;&lt;font style=&quot;font-size: 10px;&quot;&gt;&lt;b style=&quot;&quot;&gt;ssh -L&amp;nbsp;&lt;/b&gt;&lt;b&gt;127.0.0.1:8080&lt;/b&gt;&lt;b style=&quot;font-size: 10px;&quot;&gt;:intra.example.com:80 user@gw.example.com&lt;br&gt;&lt;/b&gt;&lt;/font&gt;ssh -L 127.0.0.1:5432:localhost:5432 appuser@appbajopruebas.com&lt;br&gt;&lt;b style=&quot;font-size: 10px;&quot;&gt;2. DB connection (SSL mode: Unencrypted; But secure over SSH)&lt;/b&gt;&lt;br&gt;&lt;b style=&quot;font-size: 10px;&quot;&gt;postgres://User:Password@Hostname:5432/DBName&lt;/b&gt;&lt;br&gt;&lt;span style=&quot;font-size: 10px;&quot;&gt;postgresql://postgres:&lt;/span&gt;&lt;strike style=&quot;font-size: 10px;&quot;&gt;Password&lt;/strike&gt;&lt;span style=&quot;font-size: 10px;&quot;&gt;@localhost:5432/vinyls&lt;/span&gt;&lt;br&gt;&lt;/font&gt;" style="rounded=0;whiteSpace=wrap;html=1;align=left;fillColor=#dae8fc;strokeColor=#6C8EBF;" parent="5G_yt-iN49mRIbdVEVWk-1" vertex="1">
          <mxGeometry x="-540" y="-330" width="330" height="90" as="geometry" />
        </mxCell>
        <mxCell id="5G_yt-iN49mRIbdVEVWk-61" style="edgeStyle=orthogonalEdgeStyle;rounded=0;orthogonalLoop=1;jettySize=auto;html=1;dashed=1;endArrow=none;endFill=0;strokeColor=#007FFF;" parent="5G_yt-iN49mRIbdVEVWk-1" source="5G_yt-iN49mRIbdVEVWk-62" target="5G_yt-iN49mRIbdVEVWk-44" edge="1">
          <mxGeometry relative="1" as="geometry" />
        </mxCell>
        <mxCell id="5G_yt-iN49mRIbdVEVWk-62" value="&lt;div style=&quot;font-size: 11px;&quot;&gt;&lt;div&gt;ns1.digitalocean.com&lt;/div&gt;&lt;div&gt;ns2.digitalocean.com&lt;/div&gt;&lt;div&gt;ns3.digitalocean.com&lt;/div&gt;&lt;/div&gt;" style="rounded=0;whiteSpace=wrap;html=1;align=center;fillColor=#dae8fc;strokeColor=#6c8ebf;" parent="5G_yt-iN49mRIbdVEVWk-1" vertex="1">
          <mxGeometry x="-442.5" y="-804.88" width="125" height="51.98" as="geometry" />
        </mxCell>
        <mxCell id="5G_yt-iN49mRIbdVEVWk-83" style="edgeStyle=orthogonalEdgeStyle;rounded=0;orthogonalLoop=1;jettySize=auto;html=1;entryX=0;entryY=0.5;entryDx=0;entryDy=0;dashed=1;exitX=1;exitY=0.5;exitDx=0;exitDy=0;exitPerimeter=0;endArrow=none;endFill=0;strokeColor=#007FFF;" parent="5G_yt-iN49mRIbdVEVWk-1" edge="1">
          <mxGeometry relative="1" as="geometry">
            <mxPoint x="55.909999999999854" y="-518.6524009900991" as="sourcePoint" />
          </mxGeometry>
        </mxCell>
        <mxCell id="5G_yt-iN49mRIbdVEVWk-84" style="edgeStyle=orthogonalEdgeStyle;rounded=0;orthogonalLoop=1;jettySize=auto;html=1;entryX=0;entryY=0.5;entryDx=0;entryDy=0;endArrow=none;endFill=0;dashed=1;strokeColor=#007FFF;" parent="5G_yt-iN49mRIbdVEVWk-1" edge="1">
          <mxGeometry relative="1" as="geometry">
            <mxPoint x="-18.329999999999927" y="-531.8000000000002" as="sourcePoint" />
          </mxGeometry>
        </mxCell>
        <mxCell id="5G_yt-iN49mRIbdVEVWk-145" value="&lt;font color=&quot;#999999&quot;&gt;DataCenter Region -&amp;nbsp;NYC3&lt;/font&gt;" style="text;html=1;strokeColor=none;fillColor=none;align=center;verticalAlign=middle;whiteSpace=wrap;rounded=0;" parent="5G_yt-iN49mRIbdVEVWk-1" vertex="1">
          <mxGeometry x="-1340" y="-920" width="150" height="29.73" as="geometry" />
        </mxCell>
        <mxCell id="5G_yt-iN49mRIbdVEVWk-146" value="&lt;font color=&quot;#999999&quot;&gt;VPC - my-network&lt;/font&gt;" style="text;html=1;strokeColor=none;fillColor=none;align=center;verticalAlign=middle;whiteSpace=wrap;rounded=0;" parent="5G_yt-iN49mRIbdVEVWk-1" vertex="1">
          <mxGeometry x="-1323.57" y="-856.27" width="103.57" height="29.73" as="geometry" />
        </mxCell>
        <mxCell id="5G_yt-iN49mRIbdVEVWk-153" value="&lt;div&gt;default deny incoming&lt;br&gt;default allow outgoing&lt;br&gt;==============================================&lt;br&gt;To&lt;span style=&quot;white-space: pre;&quot;&gt;&#x9;&lt;/span&gt;&lt;span style=&quot;white-space: pre;&quot;&gt;&#x9;&lt;/span&gt;&lt;span style=&quot;white-space: pre;&quot;&gt;&#x9;&lt;/span&gt;&lt;span style=&quot;white-space: pre;&quot;&gt;&#x9;&lt;/span&gt;&lt;span style=&quot;white-space: pre;&quot;&gt;&#x9;&lt;/span&gt;Action&lt;span style=&quot;white-space: pre;&quot;&gt;&#x9;&lt;/span&gt;&lt;span style=&quot;white-space: pre;&quot;&gt;&#x9;&lt;/span&gt;From&lt;/div&gt;&lt;div&gt;&lt;span style=&quot;background-color: initial;&quot;&gt;Anywhere on lo&lt;span style=&quot;white-space: pre;&quot;&gt;&#x9;&lt;/span&gt;&lt;span style=&quot;white-space: pre;&quot;&gt;&#x9;&lt;/span&gt;ALLOW IN&lt;span style=&quot;white-space: pre;&quot;&gt;&#x9;&lt;/span&gt;Anywhere&lt;/span&gt;&lt;br&gt;&lt;/div&gt;&lt;div&gt;Anywhere&lt;span style=&quot;white-space: pre;&quot;&gt;&#x9;&lt;/span&gt;&lt;span style=&quot;white-space: pre;&quot;&gt;&#x9;&lt;/span&gt;&lt;span style=&quot;white-space: pre;&quot;&gt;&#x9;&lt;/span&gt;ALLOW IN&lt;span style=&quot;white-space: pre;&quot;&gt;&#x9;&lt;/span&gt;127.0.0.0/8&lt;/div&gt;&lt;div&gt;22&lt;span style=&quot;white-space: pre;&quot;&gt;&#x9;&lt;/span&gt;&lt;span style=&quot;white-space: pre;&quot;&gt;&#x9;&lt;/span&gt;&lt;span style=&quot;white-space: pre;&quot;&gt;&#x9;&lt;/span&gt;&lt;span style=&quot;white-space: pre;&quot;&gt;&#x9;&lt;/span&gt;&lt;span style=&quot;white-space: pre;&quot;&gt;&#x9;&lt;/span&gt;ALLOW IN&lt;span style=&quot;white-space: pre;&quot;&gt;&#x9;&lt;/span&gt;Anywhere&lt;/div&gt;&lt;div&gt;&lt;strike&gt;80&lt;span style=&quot;white-space: pre;&quot;&gt;&#x9;&lt;/span&gt;&lt;span style=&quot;white-space: pre;&quot;&gt;&#x9;&lt;/span&gt;&lt;span style=&quot;white-space: pre;&quot;&gt;&#x9;&lt;/span&gt;&lt;span style=&quot;white-space: pre;&quot;&gt;&#x9;&lt;/span&gt;&lt;span style=&quot;white-space: pre;&quot;&gt;&#x9;&lt;/span&gt;ALLOW IN&lt;span style=&quot;white-space: pre;&quot;&gt;&#x9;&lt;/span&gt;Anywhere&lt;/strike&gt;&lt;/div&gt;&lt;div&gt;443&lt;span style=&quot;white-space: pre;&quot;&gt;&#x9;&lt;/span&gt;&lt;span style=&quot;white-space: pre;&quot;&gt;&#x9;&lt;/span&gt;&lt;span style=&quot;white-space: pre;&quot;&gt;&#x9;&lt;/span&gt;&lt;span style=&quot;white-space: pre;&quot;&gt;&#x9;&lt;/span&gt;&lt;span style=&quot;white-space: pre;&quot;&gt;&#x9;&lt;/span&gt;ALLOW IN&lt;span style=&quot;white-space: pre;&quot;&gt;&#x9;&lt;/span&gt;Anywhere&lt;/div&gt;&lt;div&gt;&lt;span style=&quot;background-color: initial;&quot;&gt;Anywhere (v6) on lo&lt;/span&gt;&lt;span style=&quot;background-color: initial; white-space: pre;&quot;&gt;&#x9;&lt;/span&gt;&lt;span style=&quot;background-color: initial;&quot;&gt;ALLOW IN&lt;/span&gt;&lt;span style=&quot;background-color: initial; white-space: pre;&quot;&gt;&#x9;&lt;/span&gt;&lt;span style=&quot;background-color: initial;&quot;&gt;Anywhere (v6)&lt;/span&gt;&lt;br&gt;&lt;/div&gt;&lt;div&gt;22 (v6)&lt;span style=&quot;white-space: pre;&quot;&gt;&#x9;&lt;/span&gt;&lt;span style=&quot;white-space: pre;&quot;&gt;&#x9;&lt;/span&gt;&lt;span style=&quot;white-space: pre;&quot;&gt;&#x9;&lt;/span&gt;&lt;span style=&quot;white-space: pre;&quot;&gt;&#x9;&lt;/span&gt;ALLOW IN&lt;span style=&quot;white-space: pre;&quot;&gt;&#x9;&lt;/span&gt;Anywhere (v6)&lt;/div&gt;&lt;div&gt;&lt;strike&gt;80 (v6)&lt;span style=&quot;white-space: pre;&quot;&gt;&#x9;&lt;/span&gt;&lt;span style=&quot;white-space: pre;&quot;&gt;&#x9;&lt;/span&gt;&lt;span style=&quot;white-space: pre;&quot;&gt;&#x9;&lt;/span&gt;&lt;span style=&quot;white-space: pre;&quot;&gt;&#x9;&lt;/span&gt;ALLOW IN&lt;span style=&quot;white-space: pre;&quot;&gt;&#x9;&lt;/span&gt;Anywhere (v6)&lt;/strike&gt;&lt;/div&gt;&lt;div&gt;443 (v6)&lt;span style=&quot;white-space: pre;&quot;&gt;&#x9;&lt;/span&gt;&lt;span style=&quot;white-space: pre;&quot;&gt;&#x9;&lt;/span&gt;&lt;span style=&quot;white-space: pre;&quot;&gt;&#x9;&lt;/span&gt;&lt;span style=&quot;white-space: pre;&quot;&gt;&#x9;&lt;/span&gt;ALLOW IN&lt;span style=&quot;white-space: pre;&quot;&gt;&#x9;&lt;/span&gt;Anywhere (v6)&lt;/div&gt;" style="rounded=0;whiteSpace=wrap;html=1;align=left;fillColor=#FFF2CC;strokeColor=#D6B656;" parent="5G_yt-iN49mRIbdVEVWk-1" vertex="1">
          <mxGeometry x="-970" y="-645.06" width="324" height="190.06" as="geometry" />
        </mxCell>
        <mxCell id="97VEx7d3AJvrEYCF94zA-11" style="edgeStyle=orthogonalEdgeStyle;rounded=0;orthogonalLoop=1;jettySize=auto;html=1;exitX=1;exitY=0;exitDx=0;exitDy=0;entryX=0;entryY=0.25;entryDx=0;entryDy=0;strokeColor=#007FFF;dashed=1;endArrow=none;endFill=0;" parent="5G_yt-iN49mRIbdVEVWk-1" source="5G_yt-iN49mRIbdVEVWk-155" target="5G_yt-iN49mRIbdVEVWk-153" edge="1">
          <mxGeometry relative="1" as="geometry">
            <Array as="points">
              <mxPoint x="-980" y="-598" />
            </Array>
          </mxGeometry>
        </mxCell>
        <mxCell id="5G_yt-iN49mRIbdVEVWk-155" value="" style="shadow=0;strokeWidth=1;rounded=1;absoluteArcSize=1;arcSize=2;container=0;dashed=1;dashPattern=1 4;fillColor=#FBE9E7;strokeColor=none;" parent="5G_yt-iN49mRIbdVEVWk-1" vertex="1">
          <mxGeometry x="-1287" y="-570" width="307" height="290" as="geometry" />
        </mxCell>
        <mxCell id="CYGOTzT2Un6UXpQJSBjx-2" value="Monitoring" style="shape=image;verticalLabelPosition=bottom;verticalAlign=top;imageAspect=0;aspect=fixed;image=data:image/svg+xml,PHN2ZyB4bWxucz0iaHR0cDovL3d3dy53My5vcmcvMjAwMC9zdmciIHZpZXdCb3g9IjAgMCA0MiA0MiI+PGRlZnM+PHN0eWxlPi5jbHMtMSwuY2xzLTN7ZmlsbDpub25lO30uY2xzLTF7c3Ryb2tlOiMwMDA7c3Ryb2tlLW1pdGVybGltaXQ6MTA7fS5jbHMtMntmaWxsOiMwMDY5ZmY7fS5jbHMtM3tzdHJva2U6I2ZmZjtzdHJva2Utd2lkdGg6MS40OXB4O308L3N0eWxlPjwvZGVmcz48dGl0bGU+ZGlnaXRhbG9jZWFuLXByb2R1Y3QtaWNvbi1tb25pdG9yaW5nPC90aXRsZT48ZyBkYXRhLW5hbWU9IkxheWVyIDIiIGlkPSJMYXllcl8yIj48cmVjdCBoZWlnaHQ9IjcyMCIgd2lkdGg9IjEyODAiIHk9Ii01ODAiIHg9Ii02OTIiIGNsYXNzPSJjbHMtMSIvPjwvZz48ZyBkYXRhLW5hbWU9IkxheWVyIDEiIGlkPSJMYXllcl8xIj48Y2lyY2xlIHI9IjIwLjc5IiBjeT0iMjEiIGN4PSIyMSIgY2xhc3M9ImNscy0yIi8+PHBhdGggZD0iTTI5LjYsMTQuOTJ2MTIuN2ExLjUsMS41LDAsMCwxLTEuNTEsMS41MUgxNC43OSIgY2xhc3M9ImNscy0zIi8+PHBhdGggZD0iTTEyLjQsMjYuNzRWMTQuMzhhMS41MSwxLjUxLDAsMCwxLDEuNTEtMS41MUgyNy40NyIgY2xhc3M9ImNscy0zIi8+PGxpbmUgeTI9IjIxIiB4Mj0iMTIuMzYiIHkxPSIyMSIgeDE9IjI5LjU3IiBjbGFzcz0iY2xzLTMiLz48cGF0aCBkPSJNMTMuNSwyN2w1LTkuODJhLjMzLjMzLDAsMCwxLC40NS0uMTQuMzIuMzIsMCwwLDEsLjE0LjE0bDMuNzQsNy42MWEuMzMuMzMsMCwwLDAsLjQ1LjEzLjI5LjI5LDAsMCwwLC4xNC0uMTNsNS4wOS05Ljg4IiBjbGFzcz0iY2xzLTMiLz48Y2lyY2xlIHI9IjIuMzkiIGN5PSIyOS4xMyIgY3g9IjEyLjQiIGNsYXNzPSJjbHMtMyIvPjxjaXJjbGUgcj0iMi4zOSIgY3k9IjEyLjg3IiBjeD0iMjkuNiIgY2xhc3M9ImNscy0zIi8+PC9nPjwvc3ZnPg==" parent="5G_yt-iN49mRIbdVEVWk-1" vertex="1">
          <mxGeometry x="-1156" y="-222.32999999999996" width="42" height="42" as="geometry" />
        </mxCell>
        <mxCell id="CYGOTzT2Un6UXpQJSBjx-3" value="" style="shape=image;verticalLabelPosition=bottom;verticalAlign=top;imageAspect=0;aspect=fixed;image=data:image/svg+xml,PHN2ZyB4bWxucz0iaHR0cDovL3d3dy53My5vcmcvMjAwMC9zdmciIHZpZXdCb3g9IjAgMCA0MiA0MiI+PGRlZnM+PHN0eWxlPi5jbHMtMSwuY2xzLTN7ZmlsbDpub25lO30uY2xzLTF7c3Ryb2tlOiMwMDA7c3Ryb2tlLW1pdGVybGltaXQ6MTA7fS5jbHMtMntmaWxsOiMwMDY5ZmY7fS5jbHMtM3tzdHJva2U6I2ZmZjtzdHJva2Utd2lkdGg6MS40OXB4O308L3N0eWxlPjwvZGVmcz48dGl0bGU+ZGlnaXRhbG9jZWFuLXByb2R1Y3QtaWNvbi1nZW5lcmFsLXB1cnBvc2UtZHJvcGxldDwvdGl0bGU+PGcgZGF0YS1uYW1lPSJMYXllciAyIiBpZD0iTGF5ZXJfMiI+PHJlY3QgaGVpZ2h0PSI3MjAiIHdpZHRoPSIxMjgwIiB5PSItMjA3IiB4PSItMTU5IiBjbGFzcz0iY2xzLTEiLz48L2c+PGcgZGF0YS1uYW1lPSJMYXllciAxIiBpZD0iTGF5ZXJfMSI+PGNpcmNsZSByPSIyMC43OSIgY3k9IjIxIiBjeD0iMjEiIGNsYXNzPSJjbHMtMiIvPjxwYXRoIGQ9Ik0yMSwzMy4wNkExMC4yLDEwLjIsMCwwLDEsMTAuODMsMjNDMTAuODMsMTQuNjEsMjEsOC45NCwyMSw4Ljk0czEwLjE3LDUuODcsMTAuMTcsMTQuMTVBMTAuMTQsMTAuMTQsMCwwLDEsMjEsMzMuMDZaIiBjbGFzcz0iY2xzLTMiLz48cGF0aCBkPSJNMjEsMjYuMjhhMy4zNywzLjM3LDAsMCwxLTMuMzktMy4zOWMwLTIuNjEsMy4zOS01LjA5LDMuMzktNS4wOXMzLjM5LDIuNDIsMy4zOSw1LjA5QTMuMzcsMy4zNywwLDAsMSwyMSwyNi4yOFoiIGNsYXNzPSJjbHMtMyIvPjwvZz48L3N2Zz4=" parent="5G_yt-iN49mRIbdVEVWk-1" vertex="1">
          <mxGeometry x="-1290.25" y="-639.6599999999999" width="30" height="30" as="geometry" />
        </mxCell>
        <mxCell id="CYGOTzT2Un6UXpQJSBjx-6" value="&lt;div style=&quot;text-align: left;&quot;&gt;&lt;/div&gt;&lt;div style=&quot;text-align: left;&quot;&gt;Droplet (Ubuntu VM)&lt;span style=&quot;background-color: initial;&quot;&gt;&lt;br&gt;backvynils&lt;/span&gt;&lt;/div&gt;&lt;font style=&quot;border-color: var(--border-color); color: rgb(153, 153, 153); font-size: 10px;&quot;&gt;&lt;div style=&quot;text-align: left;&quot;&gt;&lt;span style=&quot;background-color: initial;&quot;&gt;1 vCPU, 1 GB Ram, 25 GB Disk ($6 USD/month)&lt;/span&gt;&lt;/div&gt;&lt;/font&gt;" style="text;html=1;strokeColor=none;fillColor=none;align=center;verticalAlign=middle;whiteSpace=wrap;rounded=0;" parent="5G_yt-iN49mRIbdVEVWk-1" vertex="1">
          <mxGeometry x="-1260.25" y="-640.06" width="232.5" height="40.06" as="geometry" />
        </mxCell>
        <mxCell id="CYGOTzT2Un6UXpQJSBjx-7" value="" style="dashed=0;outlineConnect=0;html=1;align=center;labelPosition=center;verticalLabelPosition=bottom;verticalAlign=top;shape=mxgraph.weblogos.github;aspect=fixed;" parent="5G_yt-iN49mRIbdVEVWk-1" vertex="1">
          <mxGeometry x="-1488.52" y="-751" width="30" height="30" as="geometry" />
        </mxCell>
        <mxCell id="CYGOTzT2Un6UXpQJSBjx-8" value="" style="image;sketch=0;aspect=fixed;html=1;points=[];align=center;fontSize=12;image=img/lib/mscae/Docker.svg;" parent="5G_yt-iN49mRIbdVEVWk-1" vertex="1">
          <mxGeometry x="-1568.6299999999999" y="-521.04" width="50" height="41" as="geometry" />
        </mxCell>
        <mxCell id="CYGOTzT2Un6UXpQJSBjx-10" value="ghcr.io/juanmanuelgg/backvynils:1.0.1&lt;br&gt;ghcr.io/juanmanuelgg/backvynils:latest" style="text;html=1;strokeColor=none;fillColor=none;align=center;verticalAlign=middle;whiteSpace=wrap;rounded=0;" parent="5G_yt-iN49mRIbdVEVWk-1" vertex="1">
          <mxGeometry x="-1647.3799999999999" y="-474.5400000000001" width="207.5" height="30" as="geometry" />
        </mxCell>
        <mxCell id="CYGOTzT2Un6UXpQJSBjx-11" value="" style="shape=image;verticalLabelPosition=bottom;verticalAlign=top;imageAspect=0;aspect=fixed;image=data:image/svg+xml,PHN2ZyB4bWxucz0iaHR0cDovL3d3dy53My5vcmcvMjAwMC9zdmciIGNsYXNzPSJvY3RpY29uIG9jdGljb24tcmVwby1mb3JrZWQgbXItMiIgZGF0YS12aWV3LWNvbXBvbmVudD0idHJ1ZSIgd2lkdGg9IjE2IiB2ZXJzaW9uPSIxLjEiIHZpZXdCb3g9IjAgMCAxNiAxNiIgaGVpZ2h0PSIxNiIgYXJpYS1oaWRkZW49InRydWUiPiYjeGE7ICAgIDxwYXRoIGQ9Ik01IDUuMzcydi44NzhjMCAuNDE0LjMzNi43NS43NS43NWg0LjVhLjc1Ljc1IDAgMCAwIC43NS0uNzV2LS44NzhhMi4yNSAyLjI1IDAgMSAxIDEuNSAwdi44NzhhMi4yNSAyLjI1IDAgMCAxLTIuMjUgMi4yNWgtMS41djIuMTI4YTIuMjUxIDIuMjUxIDAgMSAxLTEuNSAwVjguNWgtMS41QTIuMjUgMi4yNSAwIDAgMSAzLjUgNi4yNXYtLjg3OGEyLjI1IDIuMjUgMCAxIDEgMS41IDBaTTUgMy4yNWEuNzUuNzUgMCAxIDAtMS41IDAgLjc1Ljc1IDAgMCAwIDEuNSAwWm02Ljc1Ljc1YS43NS43NSAwIDEgMCAwLTEuNS43NS43NSAwIDAgMCAwIDEuNVptLTMgOC43NWEuNzUuNzUgMCAxIDAtMS41IDAgLjc1Ljc1IDAgMCAwIDEuNSAwWiIvPiYjeGE7PC9zdmc+" parent="5G_yt-iN49mRIbdVEVWk-1" vertex="1">
          <mxGeometry x="-1614" y="-641.8599999999999" width="8.43" height="8.43" as="geometry" />
        </mxCell>
        <mxCell id="CYGOTzT2Un6UXpQJSBjx-13" value="" style="shape=image;verticalLabelPosition=bottom;verticalAlign=top;imageAspect=0;aspect=fixed;image=data:image/svg+xml,PHN2ZyB4bWxuczp4bGluaz0iaHR0cDovL3d3dy53My5vcmcvMTk5OS94bGluayIgeG1sbnM9Imh0dHA6Ly93d3cudzMub3JnLzIwMDAvc3ZnIiB4bWw6c3BhY2U9InByZXNlcnZlIiBzdHlsZT0iZW5hYmxlLWJhY2tncm91bmQ6bmV3IDAgMCAzNTQgMzU0OyIgdmlld0JveD0iMCAwIDM1NCAzNTQiIHk9IjBweCIgeD0iMHB4IiBpZD0iTGF5ZXJfMSIgdmVyc2lvbj0iMS4xIj4mI3hhOzxzdHlsZSB0eXBlPSJ0ZXh0L2NzcyI+JiN4YTsJLnN0MHtmaWxsOiMwMDgwRkY7fSYjeGE7CS5zdDF7ZmlsbC1ydWxlOmV2ZW5vZGQ7Y2xpcC1ydWxlOmV2ZW5vZGQ7ZmlsbDojMDA4MEZGO30mI3hhOzwvc3R5bGU+JiN4YTs8ZyBpZD0iWE1MSURfMjI5XyI+JiN4YTsJPGcgaWQ9IlhNTElEXzY5MF8iPiYjeGE7CQk8ZyBpZD0iWE1MSURfNjkxXyI+JiN4YTsJCQk8Zz4mI3hhOwkJCQk8ZyBpZD0iWE1MSURfNDRfIj4mI3hhOwkJCQkJPGcgaWQ9IlhNTElEXzQ4XyI+JiN4YTsJCQkJCQk8cGF0aCBkPSJNMTc3LDIyMS41bDAtMzQuMmMzNi4yLDAsNjQuMy0zNS45LDUwLjQtNzRDMjIyLjMsOTkuMywyMTEsODgsMTk2LjksODIuOSYjMTA7JiM5OyYjOTsmIzk7JiM5OyYjOTsmIzk7JiM5O2MtMzguMS0xMy44LTc0LDE0LjItNzQsNTAuNGMwLDAsMCwwLDAsMGwtMzQuMSwwYzAtNTcuNyw1NS44LTEwMi43LDExNi4zLTgzLjhjMjYuNCw4LjMsNDcuNSwyOS4zLDU1LjcsNTUuNyYjMTA7JiM5OyYjOTsmIzk7JiM5OyYjOTsmIzk7JiM5O0MyNzkuNywxNjUuNywyMzQuNywyMjEuNSwxNzcsMjIxLjV6IiBjbGFzcz0ic3QwIiBpZD0iWE1MSURfNDlfIi8+JiN4YTsJCQkJCTwvZz4mI3hhOwkJCQkJPHBvbHlnb24gcG9pbnRzPSIxNzcuMSwxODcuNSAxNDMsMTg3LjUgMTQzLDE1My40IDE0MywxNTMuNCAxNzcuMSwxNTMuNCAxNzcuMSwxNTMuNCIgY2xhc3M9InN0MSIgaWQ9IlhNTElEXzQ3XyIvPiYjeGE7CQkJCQk8cG9seWdvbiBwb2ludHM9IjE0MywyMTMuNiAxMTYuOSwyMTMuNiAxMTYuOSwyMTMuNiAxMTYuOSwxODcuNSAxNDMsMTg3LjUgMTQzLDIxMy42IiBjbGFzcz0ic3QxIiBpZD0iWE1MSURfNDZfIi8+JiN4YTsJCQkJCTxwYXRoIGQ9Ik0xMTYuOSwxODcuNUg5NWMwLDAsMCwwLDAsMHYtMjEuOWMwLDAsMCwwLDAsMGgyMS45YzAsMCwwLDAsMCwwVjE4Ny41eiIgY2xhc3M9InN0MSIgaWQ9IlhNTElEXzQ1XyIvPiYjeGE7CQkJCTwvZz4mI3hhOwkJCTwvZz4mI3hhOwkJPC9nPiYjeGE7CTwvZz4mI3hhOwk8ZyBpZD0iWE1MSURfMjM0XyI+JiN4YTsJCTxwYXRoIGQ9Ik0zMS4yLDI1Ni4xYy00LjQtMy4xLTEwLTQuNi0xNi40LTQuNkgwLjhWMjk2aDE0LjFjNi40LDAsMTItMS42LDE2LjQtNC45JiMxMDsmIzk7JiM5OyYjOTtjMi40LTEuNyw0LjMtNC4xLDUuNy03LjFjMS4zLTMsMi02LjYsMi0xMC41YzAtMy45LTAuNy03LjQtMi0xMC40QzM1LjYsMjYwLjEsMzMuNywyNTcuNywzMS4yLDI1Ni4xeiBNOSwyNTloNC40JiMxMDsmIzk7JiM5OyYjOTtjNC45LDAsOC45LDEsMTIsMi45YzMuNCwyLjEsNS4xLDYsNS4xLDExLjZjMCw1LjgtMS43LDkuOS01LjEsMTIuMWgwYy0yLjksMS45LTYuOSwyLjktMTEuOSwyLjlIOVYyNTl6IiBjbGFzcz0ic3QwIiBpZD0iWE1MSURfNjc3XyIvPiYjeGE7CQk8cGF0aCBkPSJNNDguNywyNTAuOWMtMS40LDAtMi41LDAuNS0zLjUsMS40Yy0wLjksMC45LTEuNCwyLTEuNCwzLjRjMCwxLjQsMC41LDIuNSwxLjQsMy41JiMxMDsmIzk7JiM5OyYjOTtjMC45LDAuOSwyLjEsMS40LDMuNSwxLjRjMS4zLDAsMi41LTAuNSwzLjUtMS40YzAuOS0wLjksMS40LTIuMSwxLjQtMy41YzAtMS40LTAuNS0yLjUtMS40LTMuNEM1MS4yLDI1MS40LDUwLDI1MC45LDQ4LjcsMjUwLjl6IiBjbGFzcz0ic3QwIiBpZD0iWE1MSURfNjc2XyIvPiYjeGE7CQk8cmVjdCBoZWlnaHQ9IjMxLjQiIHdpZHRoPSI3LjkiIGNsYXNzPSJzdDAiIHk9IjI2NC42IiB4PSI0NC43IiBpZD0iWE1MSURfNjc1XyIvPiYjeGE7CQk8cGF0aCBkPSJNODEuMywyNjcuMmMtMi40LTIuMS01LTMuNC03LjktMy40Yy00LjQsMC04LDEuNS0xMC44LDQuNWMtMi44LDIuOS00LjMsNi43LTQuMywxMS4zJiMxMDsmIzk7JiM5OyYjOTtjMCw0LjQsMS40LDguMiw0LjIsMTEuMmMyLjgsMi45LDYuNSw0LjQsMTAuOCw0LjRjMywwLDUuNy0wLjgsNy44LTIuNXYwLjdjMCwyLjYtMC43LDQuNi0yLjEsNmMtMS40LDEuNC0zLjMsMi4xLTUuNywyLjEmIzEwOyYjOTsmIzk7JiM5O2MtMy42LDAtNS45LTEuNC04LjctNS4ybC01LjQsNS4ybDAuMSwwLjJjMS4yLDEuNiwyLjksMy4yLDUuMyw0LjdjMi4zLDEuNSw1LjMsMi4zLDguOCwyLjNjNC43LDAsOC41LTEuNCwxMS4zLTQuMyYjMTA7JiM5OyYjOTsmIzk7YzIuOC0yLjksNC4yLTYuNyw0LjItMTEuNHYtMjguNWgtNy44VjI2Ny4yeiBNNzkuMiwyODUuOGMtMS40LDEuNi0zLjIsMi4zLTUuNCwyLjNjLTIuMywwLTQtMC44LTUuNC0yLjNjLTEuNC0xLjYtMi0zLjYtMi02LjEmIzEwOyYjOTsmIzk7JiM5O2MwLTIuNiwwLjctNC42LDItNi4yYzEuMy0xLjYsMy4yLTIuMyw1LjQtMi4zYzIuMywwLDQsMC44LDUuNCwyLjNjMS40LDEuNiwyLjEsMy43LDIuMSw2LjJDODEuMywyODIuMiw4MC42LDI4NC4yLDc5LjIsMjg1Ljh6IiBjbGFzcz0ic3QwIiBpZD0iWE1MSURfNjcwXyIvPiYjeGE7CQk8cmVjdCBoZWlnaHQ9IjMxLjQiIHdpZHRoPSI3LjkiIGNsYXNzPSJzdDAiIHk9IjI2NC42IiB4PSI5NS44IiBpZD0iWE1MSURfNjY4XyIvPiYjeGE7CQk8cGF0aCBkPSJNOTkuOCwyNTAuOWMtMS40LDAtMi41LDAuNS0zLjUsMS40Yy0wLjksMC45LTEuNCwyLTEuNCwzLjRjMCwxLjQsMC41LDIuNSwxLjQsMy41JiMxMDsmIzk7JiM5OyYjOTtjMC45LDAuOSwyLjEsMS40LDMuNSwxLjRjMS4zLDAsMi41LTAuNSwzLjUtMS40YzAuOS0wLjksMS40LTIuMSwxLjQtMy41YzAtMS40LTAuNS0yLjUtMS40LTMuNCYjMTA7JiM5OyYjOTsmIzk7QzEwMi4zLDI1MS40LDEwMS4yLDI1MC45LDk5LjgsMjUwLjl6IiBjbGFzcz0ic3QwIiBpZD0iWE1MSURfNjYwXyIvPiYjeGE7CQk8cGF0aCBkPSJNMTIxLDI1Ni4xaC03Ljh2OC41aC00LjV2Ny4yaDQuNXYxM2MwLDQuMSwwLjgsNywyLjQsOC43YzEuNiwxLjcsNC41LDIuNSw4LjUsMi41JiMxMDsmIzk7JiM5OyYjOTtjMS4zLDAsMi42LDAsMy44LTAuMWwwLjQsMHYtNy4ybC0yLjcsMC4xYy0xLjksMC0zLjEtMC4zLTMuNy0xYy0wLjYtMC43LTAuOS0yLjEtMC45LTQuMnYtMTEuOWg3LjR2LTcuMkgxMjFWMjU2LjF6IiBjbGFzcz0ic3QwIiBpZD0iWE1MSURfNjUyXyIvPiYjeGE7CQk8cmVjdCBoZWlnaHQ9IjQ0LjYiIHdpZHRoPSI3LjkiIGNsYXNzPSJzdDAiIHk9IjI1MS40IiB4PSIxNjUuNCIgaWQ9IlhNTElEXzY0Ml8iLz4mI3hhOwkJPHBhdGggZD0iTTI1My4xLDI4NC44Yy0xLjQsMS42LTIuOSwzLTQsMy43djBjLTEuMSwwLjctMi41LDEuMS00LjEsMS4xYy0yLjMsMC00LjItMC44LTUuNy0yLjYmIzEwOyYjOTsmIzk7JiM5O2MtMS41LTEuNy0yLjMtNC0yLjMtNi42YzAtMi43LDAuOC00LjksMi4zLTYuNmMxLjUtMS43LDMuNC0yLjYsNS43LTIuNmMyLjUsMCw1LjIsMS42LDcuNSw0LjNsNS4yLTVsMCwwJiMxMDsmIzk7JiM5OyYjOTtjLTMuNC00LjQtNy43LTYuNS0xMi45LTYuNWMtNC4zLDAtOC4xLDEuNi0xMS4yLDQuN2MtMy4xLDMuMS00LjYsNy00LjYsMTEuN3MxLjYsOC42LDQuNiwxMS43YzMuMSwzLjEsNi44LDQuNywxMS4yLDQuNyYjMTA7JiM5OyYjOTsmIzk7YzUuNywwLDEwLjMtMi41LDEzLjUtN0wyNTMuMSwyODQuOHoiIGNsYXNzPSJzdDAiIGlkPSJYTUxJRF80NDhfIi8+JiN4YTsJCTxwYXRoIGQ9Ik0yODUuNiwyNjljLTEuMS0xLjYtMi42LTIuOC00LjUtMy43Yy0xLjktMC45LTQuMS0xLjQtNi41LTEuNGMtNC40LDAtOCwxLjYtMTAuNyw0LjgmIzEwOyYjOTsmIzk7JiM5O2MtMi42LDMuMi00LDcuMS00LDExLjhjMCw0LjgsMS41LDguNyw0LjMsMTEuN2MyLjksMyw2LjcsNC41LDExLjQsNC41YzUuMywwLDkuNy0yLjIsMTMtNi40bDAuMi0wLjJsLTUuMi01bDAsMCYjMTA7JiM5OyYjOTsmIzk7Yy0wLjUsMC42LTEuMiwxLjItMS44LDEuOGMtMC44LDAuNy0xLjUsMS4zLTIuMywxLjdjLTEuMiwwLjYtMi41LDAuOS00LDAuOWMtMi4yLDAtNC0wLjYtNS40LTEuOWMtMS4zLTEuMi0yLjEtMi44LTIuMy00LjhoMjAuOSYjMTA7JiM5OyYjOTsmIzk7bDAuMS0yLjljMC0yLTAuMy00LTAuOC01LjhDMjg3LjUsMjcyLjMsMjg2LjcsMjcwLjYsMjg1LjYsMjY5eiBNMjY4LjMsMjc2LjRjMC40LTEuNSwxLjEtMi44LDIuMS0zLjdjMS4xLTEuMSwyLjUtMS42LDQuMS0xLjYmIzEwOyYjOTsmIzk7JiM5O2MxLjksMCwzLjQsMC41LDQuNCwxLjZjMC45LDEsMS41LDIuMiwxLjYsMy43SDI2OC4zeiIgY2xhc3M9InN0MCIgaWQ9IlhNTElEXzQ0NV8iLz4mI3hhOwkJPHBhdGggZD0iTTMxNS45LDI2N0wzMTUuOSwyNjdjLTIuNC0yLTUuNy0zLjEtOS44LTMuMWMtMi42LDAtNS4xLDAuNi03LjMsMS43Yy0yLjEsMS00LjEsMi44LTUuNCw1JiMxMDsmIzk7JiM5OyYjOTtsMC4xLDAuMWw1LjEsNC44YzIuMS0zLjMsNC40LTQuNSw3LjUtNC41YzEuNywwLDMsMC40LDQuMSwxLjNjMSwwLjksMS42LDIsMS42LDMuNHYxLjVjLTItMC42LTMuOS0wLjktNS44LTAuOSYjMTA7JiM5OyYjOTsmIzk7Yy0zLjksMC03LjEsMC45LTkuNSwyLjdjLTIuNCwxLjgtMy42LDQuNS0zLjYsNy45YzAsMywxLDUuMywzLjEsNy4xYzIuMSwxLjcsNC42LDIuNiw3LjYsMi42YzMsMCw1LjgtMS4yLDguNC0zLjN2Mi42aDcuOHYtMjAuMiYjMTA7JiM5OyYjOTsmIzk7QzMxOS41LDI3MiwzMTguMywyNjksMzE1LjksMjY3eiBNMzAxLjksMjg0YzAuOS0wLjYsMi4yLTAuOSwzLjgtMC45YzEuOSwwLDMuOSwwLjQsNiwxLjF2My4xYy0xLjcsMS42LTQsMi40LTYuOCwyLjQmIzEwOyYjOTsmIzk7JiM5O2MtMS40LDAtMi40LTAuMy0zLjItMC45Yy0wLjctMC42LTEuMS0xLjMtMS4xLTIuM0MzMDAuNiwyODUuNCwzMDEsMjg0LjYsMzAxLjksMjg0eiIgY2xhc3M9InN0MCIgaWQ9IlhNTElEXzQ0Ml8iLz4mI3hhOwkJPHBhdGggZD0iTTM0OS45LDI2Ny42Yy0yLjItMi41LTUuMy0zLjctOS4yLTMuN2MtMy4xLDAtNS43LDAuOS03LjYsMi43di0xLjloLTcuN1YyOTZoNy45di0xNy4zJiMxMDsmIzk7JiM5OyYjOTtjMC0yLjQsMC42LTQuMywxLjctNS42YzEuMS0xLjMsMi42LTIsNC43LTJjMS44LDAsMy4xLDAuNiw0LjEsMS44YzEsMS4yLDEuNSwyLjksMS41LDQuOVYyOTZoNy45di0xOC4yJiMxMDsmIzk7JiM5OyYjOTtDMzUzLjIsMjczLjUsMzUyLjEsMjcwLDM0OS45LDI2Ny42eiIgY2xhc3M9InN0MCIgaWQ9IlhNTElEXzM5M18iLz4mI3hhOwkJPHBhdGggZD0iTTE1NS41LDI2N0wxNTUuNSwyNjdjLTIuNC0yLTUuNy0zLjEtOS44LTMuMWMtMi42LDAtNS4xLDAuNi03LjMsMS43Yy0yLjEsMS00LjEsMi44LTUuNCw1JiMxMDsmIzk7JiM5OyYjOTtsMC4xLDAuMWw1LjEsNC44YzIuMS0zLjMsNC40LTQuNSw3LjUtNC41YzEuNywwLDMsMC40LDQuMSwxLjNjMSwwLjksMS42LDIsMS42LDMuNHYxLjVjLTItMC42LTMuOS0wLjktNS44LTAuOSYjMTA7JiM5OyYjOTsmIzk7Yy0zLjksMC03LjEsMC45LTkuNSwyLjdjLTIuNCwxLjgtMy42LDQuNS0zLjYsNy45YzAsMywxLDUuMywzLjEsNy4xYzIuMSwxLjcsNC42LDIuNiw3LjYsMi42YzMsMCw1LjgtMS4yLDguNC0zLjN2Mi42aDcuOHYtMjAuMiYjMTA7JiM5OyYjOTsmIzk7QzE1OS4xLDI3MiwxNTcuOSwyNjksMTU1LjUsMjY3eiBNMTQxLjUsMjg0YzAuOS0wLjYsMi4yLTAuOSwzLjgtMC45YzEuOSwwLDMuOSwwLjQsNiwxLjF2My4xYy0xLjcsMS42LTQsMi40LTYuOCwyLjQmIzEwOyYjOTsmIzk7JiM5O2MtMS40LDAtMi40LTAuMy0zLjItMC45Yy0wLjctMC42LTEuMS0xLjMtMS4xLTIuM0MxNDAuMiwyODUuNCwxNDAuNiwyODQuNiwxNDEuNSwyODR6IiBjbGFzcz0ic3QwIiBpZD0iWE1MSURfMzIwXyIvPiYjeGE7CQk8cGF0aCBkPSJNMjAyLDI5Ni43Yy0xMi43LDAtMjMtMTAuMy0yMy0yM3MxMC4zLTIzLDIzLTIzczIzLDEwLjMsMjMsMjNTMjE0LjcsMjk2LjcsMjAyLDI5Ni43eiYjMTA7JiM5OyYjOTsmIzk7IE0yMDIsMjU4LjhjLTguMiwwLTE0LjksNi43LTE0LjksMTQuOXM2LjcsMTQuOSwxNC45LDE0LjlzMTQuOS02LjcsMTQuOS0xNC45UzIxMC4yLDI1OC44LDIwMiwyNTguOHoiIGNsYXNzPSJzdDAiIGlkPSJYTUxJRF8yMzVfIi8+JiN4YTsJPC9nPiYjeGE7PC9nPiYjeGE7PC9zdmc+" parent="5G_yt-iN49mRIbdVEVWk-1" vertex="1">
          <mxGeometry x="-1350" y="-1040" width="40" height="40" as="geometry" />
        </mxCell>
        <mxCell id="CYGOTzT2Un6UXpQJSBjx-14" value="" style="fontColor=#0066CC;verticalAlign=top;verticalLabelPosition=bottom;labelPosition=center;align=center;html=1;outlineConnect=0;fillColor=#FF6666;strokeColor=#660000;gradientColor=none;gradientDirection=north;strokeWidth=2;shape=mxgraph.networks.firewall;aspect=fixed;" parent="5G_yt-iN49mRIbdVEVWk-1" vertex="1">
          <mxGeometry x="-1187" y="-823.8299999999999" width="28.02" height="28.02" as="geometry" />
        </mxCell>
        <mxCell id="CYGOTzT2Un6UXpQJSBjx-17" value="External Data Sources&lt;br&gt;Public Remote Repository" style="sketch=0;points=[[0,0,0],[0.25,0,0],[0.5,0,0],[0.75,0,0],[1,0,0],[1,0.25,0],[1,0.5,0],[1,0.75,0],[1,1,0],[0.75,1,0],[0.5,1,0],[0.25,1,0],[0,1,0],[0,0.75,0],[0,0.5,0],[0,0.25,0]];rounded=1;absoluteArcSize=1;arcSize=2;html=1;strokeColor=none;gradientColor=none;shadow=0;dashed=0;fontSize=12;fontColor=#9E9E9E;align=left;verticalAlign=top;spacing=10;spacingTop=-4;whiteSpace=wrap;fillColor=#FFF8E1;" parent="5G_yt-iN49mRIbdVEVWk-1" vertex="1">
          <mxGeometry x="-1667.2199999999998" y="-417.1" width="258.61" height="290" as="geometry" />
        </mxCell>
        <mxCell id="CYGOTzT2Un6UXpQJSBjx-18" value="Jobs artifacts" style="sketch=0;points=[[0,0,0],[0.25,0,0],[0.5,0,0],[0.75,0,0],[1,0,0],[1,0.25,0],[1,0.5,0],[1,0.75,0],[1,1,0],[0.75,1,0],[0.5,1,0],[0.25,1,0],[0,1,0],[0,0.75,0],[0,0.5,0],[0,0.25,0]];rounded=1;absoluteArcSize=1;arcSize=2;html=1;strokeColor=none;gradientColor=none;shadow=0;dashed=0;fontSize=12;fontColor=#9E9E9E;align=left;verticalAlign=top;spacing=10;spacingTop=-4;whiteSpace=wrap;fillColor=#F1F8E9;" parent="5G_yt-iN49mRIbdVEVWk-1" vertex="1">
          <mxGeometry x="-1651.54" y="-239.95999999999998" width="227.25" height="97.9" as="geometry" />
        </mxCell>
        <mxCell id="CYGOTzT2Un6UXpQJSBjx-19" value="&lt;b&gt;VCastanedap/ingenieria-de-software-para-aplicaciones-moviles-MISW4203-2023-15-proyecto&lt;/b&gt;" style="text;html=1;strokeColor=none;fillColor=none;align=center;verticalAlign=middle;whiteSpace=wrap;rounded=0;" parent="5G_yt-iN49mRIbdVEVWk-1" vertex="1">
          <mxGeometry x="-1668.62" y="-367.6" width="260" height="40.47" as="geometry" />
        </mxCell>
        <mxCell id="CYGOTzT2Un6UXpQJSBjx-30" value="Domain: appbajopruebas.com&#xa;(≈ $2 USD/Month)" style="shape=image;verticalLabelPosition=bottom;verticalAlign=top;imageAspect=0;aspect=fixed;image=data:image/svg+xml,PHN2ZyB4bWxucz0iaHR0cDovL3d3dy53My5vcmcvMjAwMC9zdmciIHZpZXdCb3g9IjAgMCAxMDI0LjIxOSAyMTAuMDg3IiBoZWlnaHQ9IjIxMC4wODciIHdpZHRoPSIxMDI0LjIxOSI+JiN4YTsgIDxwYXRoIGZpbGw9IiMxYmRiZGIiIHRyYW5zZm9ybT0idHJhbnNsYXRlKC05MC4wNzMgLTQzLjA2OSkiIGQ9Ik0yOTMuNTksNTIuNjdDMjY5LjA3LDM3LjM1LDIzNi43OSw0MSwyMDgsNTkuMDksMTc5LjMsNDEsMTQ3LDM3LjM1LDEyMi41MSw1Mi42Nyw4My43Nyw3Ni44OCw3OS4wNiwxMzkuMjMsMTEyLDE5MS45NGMyNC4yOCwzOC44Niw2Mi4yNSw2MS42Myw5Ni4wNSw2MS4yMSwzMy44LjQyLDcxLjc3LTIyLjM1LDk2LjA1LTYxLjIxQzMzNywxMzkuMjMsMzMyLjMzLDc2Ljg4LDI5My41OSw1Mi42N1pNMTI5LjgxLDE4MC44MWExMjYuMjYsMTI2LjI2LDAsMCwxLTE1LjItMzQuOCw5OS41MSw5OS41MSwwLDAsMS0zLjMtMzIuODFjMS40Ny0xOS40OCw5LjQtMzQuNjUsMjIuMzItNDIuNzJzMzAtOC41Niw0OC4xOS0xLjM0YzIuNzMsMS4wOSw1LjQzLDIuMzUsOC4xMSwzLjc0YTE0OC44NSwxNDguODUsMCwwLDAtMjYuMTIsMzEuNGMtMjAsMzItMjYuMSw2Ny42MS0xOS4xMiw5NmExMjkuMjA3LDEyOS4yMDcsMCwwLDEtMTQuODgtMTkuNDdaTTMwMS41LDE0NmExMjYuNTU5LDEyNi41NTksMCwwLDEtMTUuMiwzNC44LDEzMC4zODEsMTMwLjM4MSwwLDAsMS0xNC44OCwxOS41MWM2LjI0LTI1LjQ1LDItNTYuNjMtMTMuMy04NS44N2EzLjg2LDMuODYsMCwwLDAtNS41My0xLjVsLTQ3LjcsMjkuOGEzLjksMy45LDAsMCwwLTEuMjQsNS4zOGw3LDExLjE5YTMuODksMy44OSwwLDAsMCw1LjM3LDEuMjRsMzAuOTItMTkuMzJjMSwzLDIsNiwyLjc1LDlBOTkuNDgxLDk5LjQ4MSwwLDAsMSwyNTMsMTgzYy0xLjQ3LDE5LjQ3LTkuNCwzNC42NC0yMi4zMiw0Mi43MmE0My42Miw0My42MiwwLDAsMS0yMi4xMSw2LjRoLS45OWE0My41Nyw0My41NywwLDAsMS0yMi4xMS02LjRjLTEyLjkzLTguMDgtMjAuODYtMjMuMjUtMjIuMzMtNDIuNzJhOTkuNzUsOTkuNzUsMCwwLDEsMy4zLTMyLjgxLDEyOS44NSwxMjkuODUsMCwwLDEsMzkuODItNjMuNzMsOTkuNzExLDk5LjcxMSwwLDAsMSwyOC0xNy4zNGMxOC4xNC03LjIyLDM1LjI1LTYuNzQsNDguMTgsMS4zNHMyMC44NSwyMy4yNCwyMi4zMiw0Mi43MkE5OS43Niw5OS43NiwwLDAsMSwzMDEuNSwxNDZabTI0Ni4yMi0yMy4yN2MtMjUuMDgsMC00NS4zNSwxOS41OC00NS4zNSw0NC40OSwwLDI0Ljc0LDIwLjI3LDQ0LDQ1LjM1LDQ0LDI1LjI1LDAsNDUuNTItMTkuMjMsNDUuNTItNDQsMC0yNC45LTIwLjI0LTQ0LjQ4LTQ1LjUyLTQ0LjQ4Wm0wLDY1LjIzYy0xMS41NiwwLTIwLjM2LTkuMzUtMjAuMzYtMjAuOTFTNTM2LjE2LDE0Niw1NDcuNzIsMTQ2YzExLjczLDAsMjAuNTMsOS41MiwyMC41MywyMS4wOFM1NTkuNDUsMTg4LDU0Ny43MiwxODhabTEwMi4wNy05OS40SDYwMy42NGEzLjcsMy43LDAsMCwwLTMuNzcsMy43OFYyMDQuODVhMy43NCwzLjc0LDAsMCwwLDMuNzcsNGg0Ni4xNWMzNi45MywwLDYyLjU5LTI0LjU2LDYyLjU5LTYwLjI5QzcxMi4zOCwxMTIuNjEsNjg2LjcyLDg4LjU2LDY0OS43OSw4OC41NlptMS4wOSw5Ni41M0g2MjUuNjNWMTEyLjI2aDI1LjI1YzIwLjQ0LDAsMzQuNTMsMTUuMjksMzQuNTMsMzYuMjVDNjg1LjQxLDE2OS4xMiw2NzEuMzIsMTg1LjA5LDY1MC44OCwxODUuMDlabTE1My4zNi01OS45NEg3ODYuODlhMy45MSwzLjkxLDAsMCwwLTMuNiwzLjc4djUuMTVjLTMuOTUtNi41My0xMi44OC0xMS4zNC0yNC0xMS4zNC0yMS42NCwwLTQxLjkxLDE3LTQxLjkxLDQ0LjE1LDAsMjcsMjAuMDksNDQuMzEsNDEuNzQsNDQuMzEsMTEuMTYsMCwyMC4yNy00LjgsMjQuMjItMTEuMzN2NS4zMmEzLjYzLDMuNjMsMCwwLDAsMy42LDMuNjFoMTcuMzVhMy41MywzLjUzLDAsMCwwLDMuNjEtMy42MVYxMjguOTNhMy42NywzLjY3LDAsMCwwLTMuNjYtMy43OFptLTQwLjM2LDYzYy0xMS40OSwwLTIwLjEyLTguODMtMjAuMTItMjEuMDhTNzUyLjM5LDE0Niw3NjMuODgsMTQ2LDc4NCwxNTQuODEsNzg0LDE2Ny4wNnMtOC42MiwyMS4wOC0yMC4xMiwyMS4wOFpNOTAxLjYzLDg4LjU2SDg4NC4yOGEzLjY2LDMuNjYsMCwwLDAtMy43NywzLjYxdjQxLjU3Yy00LTYuMTktMTMuMDYtMTEtMjQuMzktMTEtMjEuNDgsMC00MS40LDE3LTQxLjQsNDQuMTUsMCwyNywyMC4wOSw0NC4zMSw0MS43NCw0NC4zMSwxMS4xNiwwLDE5LjU4LTQuOCwyNC4yMi0xMS4zM3Y1LjMyYTMuNjIsMy42MiwwLDAsMCwzLjYsMy42MWgxNy4zNWEzLjUyLDMuNTIsMCwwLDAsMy42MS0zLjYxdi0xMTNhMy41MiwzLjUyLDAsMCwwLTMuNjEtMy42M1ptLTQwLjM2LDk5LjhjLTExLjQ0LDAtMjAtOC45Mi0yMC0yMS4zczguNTktMjEuMywyMC0yMS4zLDIwLDguOTIsMjAsMjEuM1M4NzIuNzIsMTg4LjM2LDg2MS4yNywxODguMzZaTTk5OSw4OC41Nkg5ODEuNjhhMy42NywzLjY3LDAsMCwwLTMuNzgsMy42MXY0MS41N2MtMy45NS02LjE5LTEzLjA2LTExLTI0LjM5LTExLTIxLjQ4LDAtNDEuNCwxNy00MS40LDQ0LjE1LDAsMjcsMjAuMSw0NC4zMSw0MS43NCw0NC4zMSwxMS4xNywwLDE5LjU4LTQuOCwyNC4yMi0xMS4zM3Y1LjMyYTMuNjMsMy42MywwLDAsMCwzLjYxLDMuNjFIOTk5YTMuNTEsMy41MSwwLDAsMCwzLjYtMy42MXYtMTEzYTMuNTEsMy41MSwwLDAsMC0zLjYtMy42M1ptLTQwLjM2LDk5LjhjLTExLjQ1LDAtMjAtOC45Mi0yMC0yMS4zczguNTktMjEuMywyMC0yMS4zLDIwLDguOTIsMjAsMjEuMy04LjUzLDIxLjMtMTkuOTcsMjEuM1pNMTA5NCwxMzFsLTI1Ljg5LDg4Ljc5Yy01LDE1LjgtMTYuMTUsMjUuMjUtMzMuNSwyNS4yNS03Ljg5LDAtMTUuMDctMS42MS0yMC43LTQuODMtMy4yOC0xLjg3LTYtMy41OC02LTYuMzIsMC0xLjcuNTUtMi41OCwxLjU1LTQuMTdsNS4xNC03LjdjMS40NS0yLjE1LDIuNTItMi44NSw0LjA4LTIuODVhNS45Myw1LjkzLDAsMCwxLDMuNDIsMS4xOWMzLjIzLDIuMDksNi4yMywzLjg5LDEwLjgsMy44OSw1LjM0LDAsOS40Mi0xLjcxLDExLjYyLTguMDdsMi4yMi03LjM3aC0xMC40OGE0LjYsNC42LDAsMCwxLTQuNjQtMy42MUwxMDA4LjQ1LDEzMWMtLjg2LTIuOTItLjA3LTUuODQsNC4yMi01Ljg0aDE4LjI1YzIuMjMsMCwzLjc5Ljc2LDQuNzcsMy45NWwxNy4xMSw1OS43NSwxNi01OS43NWMuNTEtMi4wNiwxLjg5LTMuOTUsNC42NC0zLjk1aDE3LjMxQzEwOTQuMTYsMTI1LjE1LDEwOTUuMTksMTI3LjU1LDEwOTQsMTMxWk00OTUuODMsMTU3LjQxdjQ3LjQzYTMuODYsMy44NiwwLDAsMS0zLjkyLDMuOTJINDc3LjU5YTMuODUsMy44NSwwLDAsMS0zLjkyLTMuOTJWMTkyLjM5Yy05LjA5LDExLjQ4LTI0LjksMTguNzEtNDIuNzgsMTguNzEtMzMuNTgsMC01OS44Mi0yNS4yNi01OS44Mi02MS4yMiwwLTM3LjM3LDI4LjMzLTYzLjEzLDY0LjEyLTYzLjEzLDI2LjQyLDAsNDcuNTQsMTEuMzYsNTYuOTIsMzQuMjFhNS4yMTEsNS4yMTEsMCwwLDEsLjQzLDEuOTFjMCwxLjA4LS43MSwxLjktMywyLjY5TDQ3Mi44MiwxMzJhNC4yOSw0LjI5LDAsMCwxLTMuMTYuMDUsNC44NCw0Ljg0LDAsMCwxLTItMi4yOWMtNi0xMS40MS0xNi42OC0xOS4xNi0zMy4xMi0xOS4xNi0yMS4zMiwwLTM2LjU5LDE2LjY1LTM2LjU5LDM4LjI0LDAsMjAuOTMsMTMsMzguMTQsMzcuMiwzOC4xNCwxMi43MywwLDIyLjg4LTYsMjcuNjEtMTIuNTloLTE1LjFhMy44NiwzLjg2LDAsMCwxLTMuOTItMy45MlYxNTcuNThhMy44NiwzLjg2LDAsMCwxLDMuOTItMy45Mmg0NC4yNWEzLjczLDMuNzMsMCwwLDEsMy45MiwzLjc1Wm01OTguNjQtNDkuODJ2LTEuMTVhLjMzLjMzLDAsMCwxLC4wOC0uMjIuMzIuMzIsMCwwLDEsLjIxLS4wOGg3LjMxYS4yOS4yOSwwLDAsMSwuMjEuMDguMzMuMzMsMCwwLDEsLjA4LjIydjEuMTVhLjMyMS4zMjEsMCwwLDEtLjA4LjIxLjI5LjI5LDAsMCwxLS4yMS4wOGgtMi42N3Y3LjIxYS4zMS4zMSwwLDAsMS0uMy4zaC0xLjM4YS4yNy4yNywwLDAsMS0uMi0uMDkuMjkuMjksMCwwLDEtLjA5LS4yMXYtNy4yMWgtMi42N2EuMjcuMjcsMCwwLDEtLjI5LS4yOVptMTIuNzgtMS4xOSwyLDQuNjMsMi00LjYzYS40MS40MSwwLDAsMSwuMTYtLjIuNTQuNTQsMCwwLDEsLjI3LS4wNkgxMTE0YS4yNy4yNywwLDAsMSwuMjkuMjh2OC42OGEuMjcuMjcsMCwwLDEtLjI4LjI5aC0xLjNhLjI5LjI5LDAsMCwxLS4yMS0uMDguMjYuMjYsMCwwLDEtLjA4LS4yMXYtNi41NWwtMi4xNSw0Ljc2YS41Mi41MiwwLDAsMS0uMTYuMjMuNDg5LjQ4OSwwLDAsMS0uMjcuMDZoLTEuMDZhLjQ4LjQ4LDAsMCwxLS4yNi0uMDYuNDUxLjQ1MSwwLDAsMS0uMTYtLjIzbC0yLjE0LTQuNzZ2Ni41NWEuMjc0LjI3NCwwLDAsMS0uMjguMjloLTEuMzNhLjI3NC4yNzQsMCwwLDEtLjI3LS4yOXYtOC42OGEuMjcuMjcsMCwwLDEsLjI5LS4yOGgyLjI1YS41My41MywwLDAsMSwuMjYuMDYuNDEuNDEsMCwwLDEsLjExLjJaIiBkYXRhLW5hbWU9IlBhdGggMjciIGlkPSJQYXRoXzI3Ii8+JiN4YTs8L3N2Zz4=" parent="5G_yt-iN49mRIbdVEVWk-1" vertex="1">
          <mxGeometry x="-467.77" y="-980" width="175.54" height="36" as="geometry" />
        </mxCell>
        <mxCell id="CYGOTzT2Un6UXpQJSBjx-38" value="" style="outlineConnect=0;dashed=0;verticalLabelPosition=bottom;verticalAlign=top;align=center;html=1;shape=mxgraph.aws3.android;fillColor=#96BF3D;gradientColor=none;aspect=fixed;" parent="5G_yt-iN49mRIbdVEVWk-1" vertex="1">
          <mxGeometry x="-1553.4799999999996" y="-186.18" width="31.12" height="35.57" as="geometry" />
        </mxCell>
        <mxCell id="CYGOTzT2Un6UXpQJSBjx-44" style="edgeStyle=orthogonalEdgeStyle;rounded=0;orthogonalLoop=1;jettySize=auto;html=1;entryX=0.5;entryY=1;entryDx=0;entryDy=0;entryPerimeter=0;dashed=1;exitX=0;exitY=0.5;exitDx=0;exitDy=0;exitPerimeter=0;" parent="5G_yt-iN49mRIbdVEVWk-1" source="2x0kGgbs7OKSk3ZMjQRD-15" target="CYGOTzT2Un6UXpQJSBjx-38" edge="1">
          <mxGeometry relative="1" as="geometry">
            <mxPoint x="-1290.7228915662652" y="-140" as="targetPoint" />
            <Array as="points">
              <mxPoint x="-990" y="-50" />
              <mxPoint x="-1537" y="-50" />
            </Array>
          </mxGeometry>
        </mxCell>
        <mxCell id="CYGOTzT2Un6UXpQJSBjx-47" value="" style="group" parent="5G_yt-iN49mRIbdVEVWk-1" vertex="1" connectable="0">
          <mxGeometry x="-977.9999999999998" y="-105" width="54" height="90" as="geometry" />
        </mxCell>
        <mxCell id="CYGOTzT2Un6UXpQJSBjx-39" value="" style="sketch=0;aspect=fixed;pointerEvents=1;shadow=0;dashed=0;html=1;strokeColor=none;labelPosition=center;verticalLabelPosition=bottom;verticalAlign=top;align=center;fillColor=#000000;shape=mxgraph.mscae.enterprise.android_phone" parent="CYGOTzT2Un6UXpQJSBjx-47" vertex="1">
          <mxGeometry width="54" height="90" as="geometry" />
        </mxCell>
        <mxCell id="CYGOTzT2Un6UXpQJSBjx-46" value="" style="rounded=0;whiteSpace=wrap;html=1;strokeColor=none;" parent="CYGOTzT2Un6UXpQJSBjx-47" vertex="1">
          <mxGeometry x="6" y="10" width="42" height="68" as="geometry" />
        </mxCell>
        <mxCell id="CYGOTzT2Un6UXpQJSBjx-45" value="" style="dashed=0;outlineConnect=0;html=1;align=center;labelPosition=center;verticalLabelPosition=bottom;verticalAlign=top;shape=mxgraph.weblogos.android;fillColor=#A4CA39;strokeColor=none;aspect=fixed;" parent="CYGOTzT2Un6UXpQJSBjx-47" vertex="1">
          <mxGeometry x="10.999999999999773" y="24" width="32" height="42" as="geometry" />
        </mxCell>
        <mxCell id="CYGOTzT2Un6UXpQJSBjx-49" style="edgeStyle=orthogonalEdgeStyle;rounded=0;orthogonalLoop=1;jettySize=auto;html=1;entryX=1.001;entryY=0.522;entryDx=0;entryDy=0;entryPerimeter=0;exitX=1;exitY=0.5;exitDx=0;exitDy=0;exitPerimeter=0;" parent="5G_yt-iN49mRIbdVEVWk-1" source="2x0kGgbs7OKSk3ZMjQRD-15" target="5G_yt-iN49mRIbdVEVWk-44" edge="1">
          <mxGeometry relative="1" as="geometry">
            <mxPoint x="-698.9959999999996" y="-69.84999999999982" as="sourcePoint" />
            <mxPoint x="-400.14999999999986" y="-869.38" as="targetPoint" />
            <Array as="points">
              <mxPoint x="-160" y="-49" />
              <mxPoint x="-160" y="-872" />
            </Array>
          </mxGeometry>
        </mxCell>
        <mxCell id="5G_yt-iN49mRIbdVEVWk-138" value="&lt;font color=&quot;#999999&quot;&gt;Droplet Firewall Rules&lt;/font&gt;" style="text;html=1;strokeColor=none;fillColor=none;align=center;verticalAlign=middle;whiteSpace=wrap;rounded=0;" parent="5G_yt-iN49mRIbdVEVWk-1" vertex="1">
          <mxGeometry x="-1310" y="-826.54" width="120" height="29.73" as="geometry" />
        </mxCell>
        <mxCell id="CYGOTzT2Un6UXpQJSBjx-50" value="SSH-DigitalOcean-key" style="points=[[0,0.5,0],[0.24,0,0],[0.5,0.28,0],[0.995,0.475,0],[0.5,0.72,0],[0.24,1,0]];verticalLabelPosition=bottom;sketch=0;html=1;verticalAlign=top;aspect=fixed;align=center;pointerEvents=1;shape=mxgraph.cisco19.key;fillColor=#FFDF0F;strokeColor=none;shadow=1;" parent="5G_yt-iN49mRIbdVEVWk-1" vertex="1">
          <mxGeometry x="-1305.1" y="-969" width="50" height="22.5" as="geometry" />
        </mxCell>
        <mxCell id="CYGOTzT2Un6UXpQJSBjx-57" value="" style="group" parent="5G_yt-iN49mRIbdVEVWk-1" vertex="1" connectable="0">
          <mxGeometry x="-1098.06" y="-920" width="130" height="60" as="geometry" />
        </mxCell>
        <mxCell id="CYGOTzT2Un6UXpQJSBjx-54" value="" style="strokeColor=#dddddd;shadow=1;strokeWidth=1;rounded=1;absoluteArcSize=1;arcSize=2;" parent="CYGOTzT2Un6UXpQJSBjx-57" vertex="1">
          <mxGeometry y="5" width="130" height="49" as="geometry" />
        </mxCell>
        <mxCell id="CYGOTzT2Un6UXpQJSBjx-56" value="159.89.243.58&lt;br&gt;&lt;font color=&quot;#999999&quot;&gt;Reserved&lt;/font&gt;&lt;br style=&quot;border-color: var(--border-color); text-align: left;&quot;&gt;&lt;span style=&quot;color: rgb(153, 153, 153); text-align: left; background-color: rgb(255, 255, 255);&quot;&gt;IP Addresses&lt;/span&gt;" style="text;html=1;strokeColor=none;fillColor=none;align=center;verticalAlign=middle;whiteSpace=wrap;rounded=0;" parent="CYGOTzT2Un6UXpQJSBjx-57" vertex="1">
          <mxGeometry x="23" y="7" width="84" height="45" as="geometry" />
        </mxCell>
        <mxCell id="CYGOTzT2Un6UXpQJSBjx-59" style="edgeStyle=orthogonalEdgeStyle;rounded=0;orthogonalLoop=1;jettySize=auto;html=1;exitX=0;exitY=0.5;exitDx=0;exitDy=0;entryX=0.25;entryY=0;entryDx=0;entryDy=0;entryPerimeter=0;" parent="5G_yt-iN49mRIbdVEVWk-1" source="CYGOTzT2Un6UXpQJSBjx-54" target="5G_yt-iN49mRIbdVEVWk-150" edge="1">
          <mxGeometry relative="1" as="geometry">
            <mxPoint x="-1170" y="-630" as="targetPoint" />
            <Array as="points">
              <mxPoint x="-1135" y="-890" />
            </Array>
          </mxGeometry>
        </mxCell>
        <mxCell id="CYGOTzT2Un6UXpQJSBjx-71" style="edgeStyle=orthogonalEdgeStyle;rounded=0;orthogonalLoop=1;jettySize=auto;html=1;" parent="5G_yt-iN49mRIbdVEVWk-1" source="CYGOTzT2Un6UXpQJSBjx-66" target="CYGOTzT2Un6UXpQJSBjx-54" edge="1">
          <mxGeometry relative="1" as="geometry" />
        </mxCell>
        <mxCell id="CYGOTzT2Un6UXpQJSBjx-72" value="" style="group" parent="5G_yt-iN49mRIbdVEVWk-1" vertex="1" connectable="0">
          <mxGeometry x="-872.06" y="-969" width="170" height="60" as="geometry" />
        </mxCell>
        <mxCell id="CYGOTzT2Un6UXpQJSBjx-66" value="" style="strokeColor=#dddddd;shadow=1;strokeWidth=1;rounded=1;absoluteArcSize=1;arcSize=2;" parent="CYGOTzT2Un6UXpQJSBjx-72" vertex="1">
          <mxGeometry y="-21" width="170" height="60" as="geometry" />
        </mxCell>
        <mxCell id="CYGOTzT2Un6UXpQJSBjx-67" value="appbajopruebas.com&lt;br style=&quot;border-color: var(--border-color); text-align: left;&quot;&gt;&lt;span style=&quot;color: rgb(153, 153, 153); text-align: left; background-color: rgb(255, 255, 255);&quot;&gt;Domain &amp;amp; Domain Records&lt;/span&gt;" style="text;html=1;strokeColor=none;fillColor=none;align=center;verticalAlign=middle;whiteSpace=wrap;rounded=0;" parent="CYGOTzT2Un6UXpQJSBjx-72" vertex="1">
          <mxGeometry x="46.88" y="-11" width="114.12" height="44" as="geometry" />
        </mxCell>
        <mxCell id="CYGOTzT2Un6UXpQJSBjx-60" value="" style="sketch=0;pointerEvents=1;shadow=0;dashed=0;html=1;strokeColor=none;fillColor=#505050;labelPosition=center;verticalLabelPosition=bottom;verticalAlign=top;outlineConnect=0;align=center;shape=mxgraph.office.security.domain;" parent="CYGOTzT2Un6UXpQJSBjx-72" vertex="1">
          <mxGeometry x="5.8799999999999955" y="-11" width="41" height="36" as="geometry" />
        </mxCell>
        <mxCell id="CYGOTzT2Un6UXpQJSBjx-75" style="edgeStyle=orthogonalEdgeStyle;rounded=0;orthogonalLoop=1;jettySize=auto;html=1;exitX=0.11;exitY=-0.001;exitDx=0;exitDy=0;entryX=0.5;entryY=0.72;entryDx=0;entryDy=0;entryPerimeter=0;dashed=1;exitPerimeter=0;" parent="5G_yt-iN49mRIbdVEVWk-1" source="5G_yt-iN49mRIbdVEVWk-150" target="CYGOTzT2Un6UXpQJSBjx-50" edge="1">
          <mxGeometry relative="1" as="geometry">
            <Array as="points">
              <mxPoint x="-1227" y="-730" />
              <mxPoint x="-1280" y="-730" />
            </Array>
          </mxGeometry>
        </mxCell>
        <mxCell id="CYGOTzT2Un6UXpQJSBjx-53" style="edgeStyle=orthogonalEdgeStyle;rounded=0;orthogonalLoop=1;jettySize=auto;html=1;entryX=0.5;entryY=1;entryDx=0;entryDy=0;dashed=1;exitX=0.326;exitY=-0.001;exitDx=0;exitDy=0;exitPerimeter=0;" parent="5G_yt-iN49mRIbdVEVWk-1" source="5G_yt-iN49mRIbdVEVWk-150" target="CYGOTzT2Un6UXpQJSBjx-54" edge="1">
          <mxGeometry relative="1" as="geometry">
            <mxPoint x="-1093.25" y="-535.8691584158416" as="sourcePoint" />
            <mxPoint x="-1093.56" y="-918.9099999999999" as="targetPoint" />
            <Array as="points">
              <mxPoint x="-1085" y="-730" />
              <mxPoint x="-1033" y="-730" />
            </Array>
          </mxGeometry>
        </mxCell>
        <mxCell id="5G_yt-iN49mRIbdVEVWk-142" value="&lt;div style=&quot;font-size: 11px;&quot;&gt;&lt;div&gt;TYPE&lt;span style=&quot;white-space: pre;&quot;&gt;&#x9;&lt;/span&gt;PROTOCOL&lt;span style=&quot;white-space: pre;&quot;&gt;&#x9;&lt;/span&gt;PORT RANGE&lt;span style=&quot;white-space: pre;&quot;&gt;&#x9;&lt;/span&gt;SOURCES&lt;/div&gt;&lt;div&gt;SSH&lt;span style=&quot;white-space: pre;&quot;&gt;&#x9;&lt;/span&gt;&lt;span style=&quot;white-space: pre;&quot;&gt;&#x9;&lt;/span&gt;TCP&lt;span style=&quot;white-space: pre;&quot;&gt;&#x9;&lt;/span&gt;&lt;span style=&quot;white-space: pre;&quot;&gt;&#x9;&lt;/span&gt;&lt;span style=&quot;white-space: pre;&quot;&gt;&#x9;&lt;/span&gt;22&lt;span style=&quot;white-space: pre;&quot;&gt;&#x9;&lt;/span&gt;&lt;span style=&quot;white-space: pre;&quot;&gt;&#x9;&lt;/span&gt;&lt;span style=&quot;white-space: pre;&quot;&gt;&#x9;&lt;/span&gt;&lt;span style=&quot;white-space: pre;&quot;&gt;&#x9;&lt;/span&gt;All IPv4, All IPv6&lt;/div&gt;&lt;div&gt;&lt;strike&gt;HTTP&lt;span style=&quot;white-space: pre;&quot;&gt;&#x9;&lt;/span&gt;TCP&lt;span style=&quot;white-space: pre;&quot;&gt;&#x9;&lt;/span&gt;&lt;span style=&quot;white-space: pre;&quot;&gt;&#x9;&lt;/span&gt;&lt;span style=&quot;white-space: pre;&quot;&gt;&#x9;&lt;/span&gt;80&lt;span style=&quot;white-space: pre;&quot;&gt;&#x9;&lt;/span&gt;&lt;span style=&quot;white-space: pre;&quot;&gt;&#x9;&lt;/span&gt;&lt;span style=&quot;white-space: pre;&quot;&gt;&#x9;&lt;/span&gt;&lt;span style=&quot;white-space: pre;&quot;&gt;&#x9;&lt;/span&gt;All IPv4, All IPv6&lt;/strike&gt;&lt;/div&gt;&lt;div&gt;HTTPS&lt;span style=&quot;white-space: pre;&quot;&gt;&#x9;&lt;/span&gt;TCP&lt;span style=&quot;white-space: pre;&quot;&gt;&#x9;&lt;/span&gt;&lt;span style=&quot;white-space: pre;&quot;&gt;&#x9;&lt;/span&gt;&lt;span style=&quot;white-space: pre;&quot;&gt;&#x9;&lt;/span&gt;443&lt;span style=&quot;white-space: pre;&quot;&gt;&#x9;&lt;/span&gt;&lt;span style=&quot;white-space: pre;&quot;&gt;&#x9;&lt;/span&gt;&lt;span style=&quot;white-space: pre;&quot;&gt;&#x9;&lt;/span&gt;&lt;span style=&quot;white-space: pre;&quot;&gt;&#x9;&lt;/span&gt;All IPv4, All IPv6&lt;/div&gt;&lt;/div&gt;" style="rounded=0;whiteSpace=wrap;html=1;align=left;fillColor=#fff2cc;strokeColor=#d6b656;" parent="5G_yt-iN49mRIbdVEVWk-1" vertex="1">
          <mxGeometry x="-964" y="-802.4" width="324" height="56.4" as="geometry" />
        </mxCell>
        <mxCell id="CYGOTzT2Un6UXpQJSBjx-76" value="&lt;b&gt;Inbound Rules&lt;/b&gt;" style="rounded=0;whiteSpace=wrap;html=1;fillColor=#ffe6cc;strokeColor=#d79b00;" parent="5G_yt-iN49mRIbdVEVWk-1" vertex="1">
          <mxGeometry x="-964" y="-818.51" width="324" height="15.57" as="geometry" />
        </mxCell>
        <mxCell id="CYGOTzT2Un6UXpQJSBjx-79" value="&lt;div style=&quot;font-size: 11px;&quot;&gt;&lt;div&gt;TYPE&lt;span style=&quot;white-space: pre;&quot;&gt;&#x9;&lt;/span&gt;PROTOCOL&lt;span style=&quot;white-space: pre;&quot;&gt;&#x9;&lt;/span&gt;PORT RANGE&lt;span style=&quot;white-space: pre;&quot;&gt;&#x9;&lt;/span&gt;DESTINATIONS&lt;/div&gt;&lt;div&gt;DNS&lt;span style=&quot;white-space: pre;&quot;&gt;&#x9;&lt;/span&gt;UDP&lt;span style=&quot;white-space: pre;&quot;&gt;&#x9;&lt;/span&gt;&lt;span style=&quot;white-space: pre;&quot;&gt;&#x9;&lt;/span&gt;53&lt;span style=&quot;white-space: pre;&quot;&gt;&#x9;&lt;/span&gt;&lt;span style=&quot;white-space: pre;&quot;&gt;&#x9;&lt;/span&gt;&lt;span style=&quot;white-space: pre;&quot;&gt;&#x9;&lt;/span&gt;&lt;span style=&quot;white-space: pre;&quot;&gt;&#x9;&lt;/span&gt;All IPv4, All IPv6&lt;br&gt;DNS&lt;span style=&quot;white-space: pre;&quot;&gt;&#x9;&lt;/span&gt;TCP&lt;span style=&quot;white-space: pre;&quot;&gt;&#x9;&lt;/span&gt;&lt;span style=&quot;white-space: pre;&quot;&gt;&#x9;&lt;/span&gt;&lt;span style=&quot;white-space: pre;&quot;&gt;&#x9;&lt;/span&gt;53&lt;span style=&quot;white-space: pre;&quot;&gt;&#x9;&lt;/span&gt;&lt;span style=&quot;white-space: pre;&quot;&gt;&#x9;&lt;/span&gt;&lt;span style=&quot;white-space: pre;&quot;&gt;&#x9;&lt;/span&gt;&lt;span style=&quot;white-space: pre;&quot;&gt;&#x9;&lt;/span&gt;All IPv4, All IPv6&lt;/div&gt;&lt;div&gt;HTTP&lt;span style=&quot;white-space: pre;&quot;&gt;&#x9;&lt;/span&gt;TCP&lt;span style=&quot;white-space: pre;&quot;&gt;&#x9;&lt;/span&gt;&lt;span style=&quot;white-space: pre;&quot;&gt;&#x9;&lt;/span&gt;&lt;span style=&quot;white-space: pre;&quot;&gt;&#x9;&lt;/span&gt;80&lt;span style=&quot;white-space: pre;&quot;&gt;&#x9;&lt;/span&gt;&lt;span style=&quot;white-space: pre;&quot;&gt;&#x9;&lt;/span&gt;&lt;span style=&quot;white-space: pre;&quot;&gt;&#x9;&lt;/span&gt;&lt;span style=&quot;white-space: pre;&quot;&gt;&#x9;&lt;/span&gt;All IPv4, All IPv6&lt;/div&gt;&lt;div&gt;HTTPS&lt;span style=&quot;white-space: pre;&quot;&gt;&#x9;&lt;/span&gt;TCP&lt;span style=&quot;white-space: pre;&quot;&gt;&#x9;&lt;/span&gt;&lt;span style=&quot;white-space: pre;&quot;&gt;&#x9;&lt;/span&gt;&lt;span style=&quot;white-space: pre;&quot;&gt;&#x9;&lt;/span&gt;443&lt;span style=&quot;white-space: pre;&quot;&gt;&#x9;&lt;/span&gt;&lt;span style=&quot;white-space: pre;&quot;&gt;&#x9;&lt;/span&gt;&lt;span style=&quot;white-space: pre;&quot;&gt;&#x9;&lt;/span&gt;&lt;span style=&quot;white-space: pre;&quot;&gt;&#x9;&lt;/span&gt;All IPv4, All IPv6&lt;/div&gt;&lt;/div&gt;" style="rounded=0;whiteSpace=wrap;html=1;align=left;fillColor=#fff2cc;strokeColor=#d6b656;" parent="5G_yt-iN49mRIbdVEVWk-1" vertex="1">
          <mxGeometry x="-964" y="-729.89" width="324" height="70.43" as="geometry" />
        </mxCell>
        <mxCell id="CYGOTzT2Un6UXpQJSBjx-80" value="&lt;b&gt;OutbundRules&lt;/b&gt;" style="rounded=0;whiteSpace=wrap;html=1;fillColor=#ffe6cc;strokeColor=#d79b00;" parent="5G_yt-iN49mRIbdVEVWk-1" vertex="1">
          <mxGeometry x="-964" y="-746" width="324" height="15.57" as="geometry" />
        </mxCell>
        <mxCell id="CYGOTzT2Un6UXpQJSBjx-81" value="&lt;font color=&quot;#000000&quot;&gt;&lt;b&gt;Developers&lt;/b&gt;&lt;/font&gt;" style="shape=actor;whiteSpace=wrap;html=1;fillColor=#ffcc99;strokeColor=#36393d;" parent="5G_yt-iN49mRIbdVEVWk-1" vertex="1">
          <mxGeometry x="-390" y="-158.36" width="30" height="40" as="geometry" />
        </mxCell>
        <mxCell id="2x0kGgbs7OKSk3ZMjQRD-0" value="&lt;font color=&quot;#000000&quot;&gt;&lt;b&gt;Users&lt;/b&gt;&lt;/font&gt;" style="shape=actor;whiteSpace=wrap;html=1;fillColor=#b1ddf0;strokeColor=#10739e;" parent="5G_yt-iN49mRIbdVEVWk-1" vertex="1">
          <mxGeometry x="-900" y="-94" width="30" height="40" as="geometry" />
        </mxCell>
        <mxCell id="2x0kGgbs7OKSk3ZMjQRD-1" value="/etc/ssh/sshd_config&lt;br&gt;&lt;font color=&quot;#999999&quot;&gt;# Restrict port forwarding for all connections&lt;/font&gt;&lt;div&gt;&lt;font style=&quot;border-color: var(--border-color);&quot; color=&quot;#ff8000&quot;&gt;AllowTcpForwarding&lt;/font&gt;&lt;font style=&quot;border-color: var(--border-color);&quot; color=&quot;#007fff&quot;&gt;&amp;nbsp;no&lt;/font&gt;&lt;font style=&quot;&quot; color=&quot;#ff8000&quot;&gt;&lt;br&gt;PermitOpen&lt;/font&gt; &lt;font color=&quot;#007fff&quot;&gt;none&lt;/font&gt;&lt;font color=&quot;#007fff&quot;&gt;&lt;br&gt;&lt;/font&gt;&lt;/div&gt;&lt;div&gt;&lt;span style=&quot;background-color: initial;&quot;&gt;&lt;font color=&quot;#ff8000&quot;&gt;AllowStreamLocalForwarding&lt;/font&gt; &lt;font color=&quot;#007fff&quot;&gt;no&lt;/font&gt;&lt;/span&gt;&lt;/div&gt;&lt;div&gt;&lt;span style=&quot;background-color: initial;&quot;&gt;&lt;font color=&quot;#ff8000&quot;&gt;GatewayPorts&lt;/font&gt;&lt;font color=&quot;#007fff&quot;&gt; no&lt;/font&gt;&lt;/span&gt;&lt;/div&gt;&lt;div&gt;&lt;span style=&quot;background-color: initial;&quot;&gt;&lt;font color=&quot;#ff8000&quot;&gt;PermitTunnel &lt;/font&gt;&lt;font color=&quot;#007fff&quot;&gt;no&lt;/font&gt;&lt;/span&gt;&lt;/div&gt;&lt;div&gt;&lt;font style=&quot;background-color: initial;&quot; color=&quot;#999999&quot;&gt;# Allow port forwarding for theIP range of the home network&lt;/font&gt;&lt;br&gt;&lt;/div&gt;&lt;div&gt;&lt;font color=&quot;#ff8000&quot;&gt;Match&lt;/font&gt; &lt;font color=&quot;#007fff&quot;&gt;Address xxx.xxx.xxx.xxx/yy&lt;/font&gt;&lt;/div&gt;&lt;div&gt;&lt;font color=&quot;#ff8000&quot;&gt;&lt;span style=&quot;&quot;&gt;&lt;span style=&quot;white-space: pre;&quot;&gt;&amp;nbsp;&amp;nbsp;&amp;nbsp;&amp;nbsp;&lt;/span&gt;&lt;/span&gt;AllowTcpForwarding&lt;/font&gt; &lt;font color=&quot;#007fff&quot;&gt;local&lt;/font&gt;&lt;/div&gt;&lt;font color=&quot;#ff8000&quot;&gt;&lt;span style=&quot;&quot;&gt;&lt;span style=&quot;white-space: pre;&quot;&gt;&amp;nbsp;&amp;nbsp;&amp;nbsp;&amp;nbsp;&lt;/span&gt;&lt;/span&gt;PermitOpen&lt;/font&gt; &lt;font color=&quot;#007fff&quot;&gt;localhost:5432&lt;/font&gt;" style="rounded=0;whiteSpace=wrap;html=1;align=left;fillColor=#fff2cc;strokeColor=#D6B656;" parent="5G_yt-iN49mRIbdVEVWk-1" vertex="1">
          <mxGeometry x="-970" y="-414" width="324" height="158.89" as="geometry" />
        </mxCell>
        <mxCell id="2x0kGgbs7OKSk3ZMjQRD-4" value="&lt;div style=&quot;text-align: left;&quot;&gt;&lt;/div&gt;&lt;font color=&quot;#999999&quot;&gt;UFW Rules&lt;/font&gt;" style="text;html=1;strokeColor=none;fillColor=none;align=center;verticalAlign=middle;whiteSpace=wrap;rounded=0;" parent="5G_yt-iN49mRIbdVEVWk-1" vertex="1">
          <mxGeometry x="-1287" y="-570" width="67" height="19.87" as="geometry" />
        </mxCell>
        <mxCell id="2x0kGgbs7OKSk3ZMjQRD-14" value="" style="group" parent="5G_yt-iN49mRIbdVEVWk-1" vertex="1" connectable="0">
          <mxGeometry x="-967.9999999999998" y="-94" width="54" height="90" as="geometry" />
        </mxCell>
        <mxCell id="2x0kGgbs7OKSk3ZMjQRD-15" value="" style="sketch=0;aspect=fixed;pointerEvents=1;shadow=0;dashed=0;html=1;strokeColor=none;labelPosition=center;verticalLabelPosition=bottom;verticalAlign=top;align=center;fillColor=#000000;shape=mxgraph.mscae.enterprise.android_phone" parent="2x0kGgbs7OKSk3ZMjQRD-14" vertex="1">
          <mxGeometry width="54" height="90" as="geometry" />
        </mxCell>
        <mxCell id="2x0kGgbs7OKSk3ZMjQRD-16" value="" style="rounded=0;whiteSpace=wrap;html=1;strokeColor=none;" parent="2x0kGgbs7OKSk3ZMjQRD-14" vertex="1">
          <mxGeometry x="6" y="10" width="42" height="68" as="geometry" />
        </mxCell>
        <mxCell id="2x0kGgbs7OKSk3ZMjQRD-17" value="" style="dashed=0;outlineConnect=0;html=1;align=center;labelPosition=center;verticalLabelPosition=bottom;verticalAlign=top;shape=mxgraph.weblogos.android;fillColor=#A4CA39;strokeColor=none;aspect=fixed;" parent="2x0kGgbs7OKSk3ZMjQRD-14" vertex="1">
          <mxGeometry x="10.999999999999773" y="24" width="32" height="42" as="geometry" />
        </mxCell>
        <mxCell id="2x0kGgbs7OKSk3ZMjQRD-33" value="" style="rounded=0;whiteSpace=wrap;html=1;fillColor=#f5f5f5;fontColor=#333333;strokeColor=none;" parent="5G_yt-iN49mRIbdVEVWk-1" vertex="1">
          <mxGeometry x="-1280" y="-550" width="290" height="100" as="geometry" />
        </mxCell>
        <mxCell id="2x0kGgbs7OKSk3ZMjQRD-20" value="" style="shape=image;verticalLabelPosition=bottom;verticalAlign=top;imageAspect=0;aspect=fixed;image=data:image/svg+xml,PHN2ZyB4bWxucz0iaHR0cDovL3d3dy53My5vcmcvMjAwMC9zdmciIHZpZXdCb3g9IjAgMCAzMiAzMiIgaGVpZ2h0PSI4MDBweCIgd2lkdGg9IjgwMHB4Ij48dGl0bGU+ZmlsZV90eXBlX25naW54PC90aXRsZT48cGF0aCBzdHlsZT0iZmlsbDojMDE5NjM5IiBkPSJNMTUuOTQ4LDJoLjA2NWExMC40MTgsMTAuNDE4LDAsMCwxLC45NzIuNTI4UTIyLjQxNCw1LjY1LDI3Ljg0Myw4Ljc3NGEuNzkyLjc5MiwwLDAsMSwuNDE0Ljc4OGMtLjAwOCw0LjM4OSwwLDguNzc3LS4wMDUsMTMuMTY0YS44MTMuODEzLDAsMCwxLS4zNTYuNTA3cS01Ljc3MywzLjMyNC0xMS41NDcsNi42NDRhLjU4Ny41ODcsMCwwLDEtLjY1Ny4wMzdROS45MTIsMjYuNiw0LjE0MywyMy4yNzRhLjcuNywwLDAsMS0uNC0uNjY2cTAtNi41ODIsMC0xMy4xNjNhLjY5My42OTMsMCwwLDEsLjM4Ny0uNjdROS41NTIsNS42NTcsMTQuOTc0LDIuNTM1Yy4zMjItLjE4NC42MzgtLjM3OS45NzQtLjUzNSIvPjxwYXRoIHN0eWxlPSJmaWxsOiNmZmYiIGQ9Ik04Ljc2NywxMC41MzhxMCw1LjQyOSwwLDEwLjg1OWExLjUwOSwxLjUwOSwwLDAsMCwuNDI3LDEuMDg3LDEuNjQ3LDEuNjQ3LDAsMCwwLDIuMDYuMjA2LDEuNTY0LDEuNTY0LDAsMCwwLC42ODUtMS4yOTNjMC0yLjYyLS4wMDUtNS4yNCwwLTcuODZxMy41ODMsNC4yOSw3LjE4MSw4LjU2OGEyLjgzMywyLjgzMywwLDAsMCwyLjYuNzgyLDEuNTYxLDEuNTYxLDAsMCwwLDEuMjUxLTEuMzcxcS4wMDgtNS41NDEsMC0xMS4wODFhMS41ODIsMS41ODIsMCwwLDAtMy4xNTIsMGMwLDIuNjYyLS4wMTYsNS4zMjEsMCw3Ljk4Mi0yLjM0Ni0yLjc2Ni00LjY2My01LjU1Ni03LTguMzMyQTIuODE3LDIuODE3LDAsMCwwLDEwLjE3LDkuMDMzLDEuNTc5LDEuNTc5LDAsMCwwLDguNzY3LDEwLjUzOFoiLz48L3N2Zz4=" parent="5G_yt-iN49mRIbdVEVWk-1" vertex="1">
          <mxGeometry x="-1179" y="-510" width="40" height="40" as="geometry" />
        </mxCell>
        <mxCell id="2x0kGgbs7OKSk3ZMjQRD-21" style="edgeStyle=orthogonalEdgeStyle;rounded=0;orthogonalLoop=1;jettySize=auto;html=1;entryX=0.5;entryY=0;entryDx=0;entryDy=0;exitX=0.25;exitY=0;exitDx=0;exitDy=0;exitPerimeter=0;" parent="5G_yt-iN49mRIbdVEVWk-1" source="5G_yt-iN49mRIbdVEVWk-150" target="2x0kGgbs7OKSk3ZMjQRD-20" edge="1">
          <mxGeometry relative="1" as="geometry">
            <mxPoint x="-1135" y="-590" as="sourcePoint" />
            <Array as="points">
              <mxPoint x="-1135" y="-560" />
              <mxPoint x="-1159" y="-560" />
            </Array>
          </mxGeometry>
        </mxCell>
        <mxCell id="2x0kGgbs7OKSk3ZMjQRD-22" value="" style="shape=image;verticalLabelPosition=bottom;verticalAlign=top;imageAspect=0;aspect=fixed;image=data:image/svg+xml,PHN2ZyB4bWxucz0iaHR0cDovL3d3dy53My5vcmcvMjAwMC9zdmciIGlkPSJzdmc1IiB2ZXJzaW9uPSIxLjEiIHZpZXdCb3g9IjAgMCAyNzAuOTMzMzQgMjcwLjkzMzM1IiBoZWlnaHQ9IjEwMjQiIHdpZHRoPSIxMDI0Ij4mI3hhOyAgPHRpdGxlIGlkPSJ0aXRsZTMxMTE4Ij5Vbm9mZmljaWFsIFNTSCBMb2dvPC90aXRsZT4mI3hhOyAgJiN4YTsgIDxkZWZzIGlkPSJkZWZzMiI+JiN4YTsgICAgPHJlY3QgaWQ9InJlY3Q0NDAxLTIiIGhlaWdodD0iMTIxMi43NzI1IiB3aWR0aD0iMTI4NC42OTI3IiB5PSI0MzEuNTIxMzkiIHg9IjIxNS43NjA3Ii8+JiN4YTsgIDwvZGVmcz4mI3hhOyAgPGcgaWQ9ImxheWVyMSI+JiN4YTsgICAgPHJlY3QgeT0iMCIgeD0iMCIgaGVpZ2h0PSIyNzAuOTMzMzIiIHdpZHRoPSIyNzAuOTMzMzIiIGlkPSJyZWN0MjAxMTYiIHN0eWxlPSJmaWxsOiMzMjMzMzA7ZmlsbC1vcGFjaXR5OjE7c3Ryb2tlLXdpZHRoOjA7cGFpbnQtb3JkZXI6c3Ryb2tlIGZpbGwgbWFya2VycyIvPiYjeGE7ICAgIDxnIHN0eWxlPSJmb250LXNpemU6NDY2LjY2N3B4O2xpbmUtaGVpZ2h0OjEuMjU7d2hpdGUtc3BhY2U6cHJlO3NoYXBlLWluc2lkZTp1cmwoI3JlY3Q0NDAxLTIpO2ZpbGw6I2ZmZmZmZiIgaWQ9InRleHQ0Mzk5IiB0cmFuc2Zvcm09Im1hdHJpeCgwLjI2NDU5MDgyLDAsMCwwLjI2NDkwNjIxLC0xMy42ODQxNzYsMjQuNjk3MTMxKSIgYXJpYS1sYWJlbD0iU1NIIj4mI3hhOyAgICAgIDxwYXRoIGlkPSJwYXRoMzA5NDAiIHN0eWxlPSJmb250LWZhbWlseTonRmFsbGluZyBTa3knOy1pbmtzY2FwZS1mb250LXNwZWNpZmljYXRpb246J0ZhbGxpbmcgU2t5JyIgZD0ibSAyMjkuMjkzMTEsODAxLjQ3OTAzIGMgLTEuODY2NjcsMS44NjY2NyAtMi4zMzMzNCw1LjYwMDAxIDAsNy45MzMzNCAyOS44NjY2OSwyOS40MDAwMiA3MS44NjY3Miw0Ni4yMDAwNCAxMTQuMzMzNDEsNDYuMjAwMDQgNzAuOTMzMzgsMCAxMTUuNzMzNDIsLTQyLjkzMzM3IDExNS43MzM0MiwtOTYuMTMzNDEgMCwtNDcuMTMzMzYgLTI4LjQ2NjY5LC03Mi4zMzMzOCAtNjUuMzMzMzgsLTg4LjIwMDA2IGwgLTQxLjUzMzM3LC0xNy4yNjY2OCBjIC0yNi4xMzMzNSwtMTAuNzMzMzQgLTQ0LjgwMDAzLC0xOC4yMDAwMSAtNDQuODAwMDMsLTM3LjMzMzM1IDAsLTE4LjIwMDAyIDE0LjQ2NjY4LC0yOS44NjY2OSA0Mi4wMDAwMywtMjkuODY2NjkgMjQuNzMzMzUsMCA0My40MDAwMyw4Ljg2NjY3IDYyLjUzMzM4LDI0LjczMzM1IDIuOCwyLjMzMzMzIDYuNTMzMzQsMS40IDguNDAwMDEsLTAuOTMzMzQgbCAyNy41MzMzNSwtMzQuNTMzMzUgYyAxLjg2NjY3LC0xLjg2NjY3IDEuODY2NjcsLTUuNjAwMDEgLTAuNDY2NjcsLTcuOTMzMzQgLTI0LjczMzM1LC0yNC43MzMzNSAtNjEuMTMzMzgsLTQwLjEzMzM2IC05OC4wMDAwNywtNDAuMTMzMzYgLTYyLjA2NjcxLDAgLTEwOC4yNjY3NCwzOS4yMDAwMiAtMTA4LjI2Njc0LDkxLjQ2NjczIDAsNDguMDY2NyAzNC4wNjY2OSw3My4yNjY3MSA2NC44NjY3MSw4Ni4zMzMzOSBsIDQyLjAwMDAzLDE4LjIwMDAxIGMgMjguNDY2NjksMTIuMTMzMzUgNDMuODY2NywxOC42NjY2OCA0My44NjY3LDM5LjY2NjcgMCwxOS42MDAwMSAtMTQuNDY2NjgsMzMuNjAwMDIgLTQ3LjYwMDAzLDMzLjYwMDAyIC0yNi4xMzMzNiwwIC01NC4xMzMzOCwtMTMuNTMzMzQgLTc1LjEzMzM5LC0zMy4xMzMzNiAtMi44LC0yLjMzMzMzIC02LjUzMzM0LC0xLjg2NjY2IC04LjQwMDAxLDAuNDY2NjcgeiIvPiYjeGE7ICAgICAgPHBhdGggaWQ9InBhdGgzMDk0MiIgc3R5bGU9ImZvbnQtZmFtaWx5OidGYWxsaW5nIFNreSc7LWlua3NjYXBlLWZvbnQtc3BlY2lmaWNhdGlvbjonRmFsbGluZyBTa3knIiBkPSJtIDQ3Ni4xNTg3NCw4MDEuNDc5MDMgYyAtMS44NjY2NywxLjg2NjY3IC0yLjMzMzM0LDUuNjAwMDEgMCw3LjkzMzM0IDI5Ljg2NjY5LDI5LjQwMDAyIDcxLjg2NjcyLDQ2LjIwMDA0IDExNC4zMzM0MSw0Ni4yMDAwNCA3MC45MzMzOSwwIDExNS43MzM0MiwtNDIuOTMzMzcgMTE1LjczMzQyLC05Ni4xMzM0MSAwLC00Ny4xMzMzNiAtMjguNDY2NjksLTcyLjMzMzM4IC02NS4zMzMzOCwtODguMjAwMDYgbCAtNDEuNTMzMzYsLTE3LjI2NjY4IGMgLTI2LjEzMzM2LC0xMC43MzMzNCAtNDQuODAwMDQsLTE4LjIwMDAxIC00NC44MDAwNCwtMzcuMzMzMzUgMCwtMTguMjAwMDIgMTQuNDY2NjgsLTI5Ljg2NjY5IDQyLjAwMDAzLC0yOS44NjY2OSAyNC43MzMzNSwwIDQzLjQwMDAzLDguODY2NjcgNjIuNTMzMzgsMjQuNzMzMzUgMi44LDIuMzMzMzMgNi41MzMzNCwxLjQgOC40MDAwMSwtMC45MzMzNCBsIDI3LjUzMzM1LC0zNC41MzMzNSBjIDEuODY2NjcsLTEuODY2NjcgMS44NjY2NywtNS42MDAwMSAtMC40NjY2NywtNy45MzMzNCAtMjQuNzMzMzUsLTI0LjczMzM1IC02MS4xMzMzNywtNDAuMTMzMzYgLTk4LjAwMDA3LC00MC4xMzMzNiAtNjIuMDY2NzEsMCAtMTA4LjI2Njc0LDM5LjIwMDAyIC0xMDguMjY2NzQsOTEuNDY2NzMgMCw0OC4wNjY3IDM0LjA2NjY5LDczLjI2NjcxIDY0Ljg2NjcxLDg2LjMzMzM5IGwgNDIuMDAwMDMsMTguMjAwMDEgYyAyOC40NjY2OSwxMi4xMzMzNSA0My44NjY3LDE4LjY2NjY4IDQzLjg2NjcsMzkuNjY2NyAwLDE5LjYwMDAxIC0xNC40NjY2OCwzMy42MDAwMiAtNDcuNjAwMDMsMzMuNjAwMDIgLTI2LjEzMzM1LDAgLTU0LjEzMzM3LC0xMy41MzMzNCAtNzUuMTMzMzksLTMzLjEzMzM2IC0yLjgsLTIuMzMzMzMgLTYuNTMzMzQsLTEuODY2NjYgLTguNDAwMDEsMC40NjY2NyB6Ii8+JiN4YTsgICAgICA8cGF0aCBpZD0icGF0aDMwOTQ0IiBzdHlsZT0iZm9udC1mYW1pbHk6J0ZhbGxpbmcgU2t5JzstaW5rc2NhcGUtZm9udC1zcGVjaWZpY2F0aW9uOidGYWxsaW5nIFNreSciIGQ9Im0gNzQ5LjYyNDc2LDg0NC40MTI0IGMgMCwyLjMzMzMzIDIuMzMzMzMsNS42IDYuMDY2NjcsNS42IGggNTQuMTMzMzcgYyAyLjMzMzM0LDAgNS42LC0xLjg2NjY3IDUuNiwtNS42IFYgNzE0LjY3ODk3IEggOTI3Ljg5MTU1IFYgODQ0LjQxMjQgYyAwLDIuMzMzMzMgMS44NjY2Nyw1LjYgNS42LDUuNiBoIDU0LjEzMzM3IGMgMi4zMzMzNCwwIDYuMDY2NjgsLTEuODY2NjcgNi4wNjY2OCwtNS42IFYgNTM5LjIxMjE4IGMgMCwtMi4zMzMzMyAtMi4zMzMzNCwtNS42IC02LjA2NjY4LC01LjYgaCAtNTQuMTMzMzcgYyAtMi4zMzMzMywwIC01LjYsMS44NjY2NyAtNS42LDUuNiBWIDY1NS44Nzg5MyBIIDgxNS40MjQ4IFYgNTM5LjIxMjE4IGMgMCwtMi4zMzMzMyAtMS44NjY2NiwtNS42IC01LjYsLTUuNiBoIC01NC4xMzMzNyBjIC0yLjMzMzM0LDAgLTYuMDY2NjcsMS44NjY2NyAtNi4wNjY2Nyw1LjYgeiIvPiYjeGE7ICAgIDwvZz4mI3hhOyAgPC9nPiYjeGE7ICA8bWV0YWRhdGEgaWQ9Im1ldGFkYXRhMzExMTYiPiYjeGE7ICAgICYjeGE7ICAgICAgJiN4YTsgICAgICAgIFVub2ZmaWNpYWwgU1NIIExvZ28mI3hhOyAgICAgICAgMjAyMi0wMi0yNSYjeGE7ICAgICAgICAmI3hhOyAgICAgICAgICAmI3hhOyAgICAgICAgICAgIEplc3NpZSBLaXJrJiN4YTsgICAgICAgICAgJiN4YTsgICAgICAgICYjeGE7ICAgICAgICBodHRwczovL2dpdGh1Yi5jb20vdm9vZG9vdGlraWdvZC9sb2dvLmpzL2Jsb2IvMTU0NGJkZWVkL2pzLnN2ZyYjeGE7ICAgICAgICBCYXNlZCBvbiBVbm9mZmljaWFsIEphdmFTY3JpcHQgTG9nbyBieSBDaHJpcyBXaWxsaWFtcy4mI3hhOyAgICAgICAgJiN4YTsgICAgICAmI3hhOyAgICAgICYjeGE7ICAgICAgICAmI3hhOyAgICAgICAgJiN4YTsgICAgICAgICYjeGE7ICAgICAgICAmI3hhOyAgICAgICAgJiN4YTsgICAgICAmI3hhOyAgICAmI3hhOyAgPC9tZXRhZGF0YT4mI3hhOzwvc3ZnPg==" parent="5G_yt-iN49mRIbdVEVWk-1" vertex="1">
          <mxGeometry x="-1138.0599999999997" y="-510" width="40" height="40" as="geometry" />
        </mxCell>
        <mxCell id="2x0kGgbs7OKSk3ZMjQRD-24" style="edgeStyle=orthogonalEdgeStyle;rounded=0;orthogonalLoop=1;jettySize=auto;html=1;exitX=0.25;exitY=0;exitDx=0;exitDy=0;exitPerimeter=0;entryX=0.5;entryY=0;entryDx=0;entryDy=0;" parent="5G_yt-iN49mRIbdVEVWk-1" source="5G_yt-iN49mRIbdVEVWk-150" target="2x0kGgbs7OKSk3ZMjQRD-22" edge="1">
          <mxGeometry relative="1" as="geometry">
            <Array as="points">
              <mxPoint x="-1135" y="-560" />
              <mxPoint x="-1118" y="-560" />
            </Array>
          </mxGeometry>
        </mxCell>
        <mxCell id="2x0kGgbs7OKSk3ZMjQRD-38" value="" style="rounded=0;whiteSpace=wrap;html=1;fillColor=#f5f5f5;fontColor=#333333;strokeColor=none;" parent="5G_yt-iN49mRIbdVEVWk-1" vertex="1">
          <mxGeometry x="-1280" y="-445" width="290" height="155" as="geometry" />
        </mxCell>
        <mxCell id="2x0kGgbs7OKSk3ZMjQRD-18" value="&lt;font style=&quot;font-size: 11px;&quot;&gt;«Multi-Container Docker Runner»&lt;br&gt;&lt;b&gt;Docker Compose&lt;/b&gt;&lt;/font&gt;" style="html=1;dropTarget=0;whiteSpace=wrap;" parent="5G_yt-iN49mRIbdVEVWk-1" vertex="1">
          <mxGeometry x="-1270" y="-350.06" width="270" height="50.06" as="geometry" />
        </mxCell>
        <mxCell id="2x0kGgbs7OKSk3ZMjQRD-19" value="" style="shape=module;jettyWidth=8;jettyHeight=4;" parent="2x0kGgbs7OKSk3ZMjQRD-18" vertex="1">
          <mxGeometry x="1" width="20" height="20" relative="1" as="geometry">
            <mxPoint x="-25" y="5" as="offset" />
          </mxGeometry>
        </mxCell>
        <mxCell id="2x0kGgbs7OKSk3ZMjQRD-2" style="edgeStyle=orthogonalEdgeStyle;rounded=0;orthogonalLoop=1;jettySize=auto;html=1;entryX=1;entryY=0.5;entryDx=0;entryDy=0;endArrow=none;endFill=0;strokeColor=#007FFF;dashed=1;exitX=0;exitY=0.5;exitDx=0;exitDy=0;" parent="5G_yt-iN49mRIbdVEVWk-1" source="2x0kGgbs7OKSk3ZMjQRD-1" target="2x0kGgbs7OKSk3ZMjQRD-22" edge="1">
          <mxGeometry relative="1" as="geometry">
            <Array as="points">
              <mxPoint x="-990" y="-335" />
              <mxPoint x="-990" y="-490" />
            </Array>
          </mxGeometry>
        </mxCell>
        <mxCell id="2x0kGgbs7OKSk3ZMjQRD-41" value="&lt;br style=&quot;font-size: 11px;&quot;&gt;&lt;font size=&quot;1&quot;&gt;appuser&lt;/font&gt;" style="shape=actor;whiteSpace=wrap;html=1;fillColor=#f5f5f5;strokeColor=#666666;fontColor=#333333;" parent="5G_yt-iN49mRIbdVEVWk-1" vertex="1">
          <mxGeometry x="-1265.1" y="-442.57" width="10" height="10" as="geometry" />
        </mxCell>
        <mxCell id="2x0kGgbs7OKSk3ZMjQRD-42" value="&lt;br style=&quot;font-size: 11px;&quot;&gt;&lt;font size=&quot;1&quot;&gt;root&lt;/font&gt;" style="shape=actor;whiteSpace=wrap;html=1;fillColor=#f5f5f5;strokeColor=#666666;fontColor=#333333;" parent="5G_yt-iN49mRIbdVEVWk-1" vertex="1">
          <mxGeometry x="-1265.1" y="-546.5" width="10" height="10" as="geometry" />
        </mxCell>
        <mxCell id="5G_yt-iN49mRIbdVEVWk-152" value="" style="shape=image;verticalLabelPosition=bottom;verticalAlign=top;imageAspect=0;image=data:image/svg+xml,PHN2ZyB4bWxuczp4bGluaz0iaHR0cDovL3d3dy53My5vcmcvMTk5OS94bGluayIgeG1sbnM9Imh0dHA6Ly93d3cudzMub3JnLzIwMDAvc3ZnIiB2ZXJzaW9uPSIxLjEiIGlkPSJzdmczMTk4IiBoZWlnaHQ9IjEyOCIgd2lkdGg9IjEyOCIgdmlld0JveD0iMCAwIDEyOCAxMjgiPiYjeGE7ICA8ZGVmcyBpZD0iZGVmczMyMDAiPiYjeGE7ICAgIDxsaW5lYXJHcmFkaWVudCBpZD0ibGluZWFyR3JhZGllbnQzMTUxIj4mI3hhOyAgICAgIDxzdG9wIHN0eWxlPSJzdG9wLWNvbG9yOiMxNTE1MTU7c3RvcC1vcGFjaXR5OjA7IiBvZmZzZXQ9IjAiIGlkPSJzdG9wMzE1MyIvPiYjeGE7ICAgICAgPHN0b3AgaWQ9InN0b3AzMTU1IiBvZmZzZXQ9IjAuMjMyNDEwMTUiIHN0eWxlPSJzdG9wLWNvbG9yOiM0ZjRmNGY7c3RvcC1vcGFjaXR5OjAuNTIxNTY4NjM7Ii8+JiN4YTsgICAgICA8c3RvcCBpZD0ic3RvcDMxNTgiIG9mZnNldD0iMC40MTkzNTYyNiIgc3R5bGU9InN0b3AtY29sb3I6IzhhOGE4YTtzdG9wLW9wYWNpdHk6MC4zNDkwMTk2MTsiLz4mI3hhOyAgICAgIDxzdG9wIHN0eWxlPSJzdG9wLWNvbG9yOiNmZmZmZmY7c3RvcC1vcGFjaXR5OjA7IiBvZmZzZXQ9IjEiIGlkPSJzdG9wMzE2MCIvPiYjeGE7ICAgIDwvbGluZWFyR3JhZGllbnQ+JiN4YTsgICAgPGxpbmVhckdyYWRpZW50IHkyPSIzMy4yNSIgeDI9IjExNi40NDIxNSIgeTE9IjMzLjI1IiB4MT0iNTIuNTkwMjk4IiBncmFkaWVudFVuaXRzPSJ1c2VyU3BhY2VPblVzZSIgaWQ9ImxpbmVhckdyYWRpZW50NTc2My01IiB4bGluazpocmVmPSIjbGluZWFyR3JhZGllbnQ1NTExLTMiLz4mI3hhOyAgICA8bGluZWFyR3JhZGllbnQgaWQ9ImxpbmVhckdyYWRpZW50NTUxMS0zIj4mI3hhOyAgICAgIDxzdG9wIHN0eWxlPSJzdG9wLWNvbG9yOiMwMDAwNjU7c3RvcC1vcGFjaXR5OjE7IiBvZmZzZXQ9IjAiIGlkPSJzdG9wNTU0Ny05Ii8+JiN4YTsgICAgICA8c3RvcCBpZD0ic3RvcDU1ODAtNSIgb2Zmc2V0PSIwLjI1IiBzdHlsZT0ic3RvcC1jb2xvcjojMDAwMDcyO3N0b3Atb3BhY2l0eTowLjc0OTAxOTYxOyIvPiYjeGE7ICAgICAgPHN0b3AgaWQ9InN0b3A1NTc4LTgiIG9mZnNldD0iMC41IiBzdHlsZT0ic3RvcC1jb2xvcjojMDAwMDdmO3N0b3Atb3BhY2l0eTowLjQ5ODAzOTIyOyIvPiYjeGE7ICAgICAgPHN0b3AgaWQ9InN0b3A1NTE1LTMiIG9mZnNldD0iMSIgc3R5bGU9InN0b3AtY29sb3I6IzAwMDAwMDtzdG9wLW9wYWNpdHk6MDsiLz4mI3hhOyAgICA8L2xpbmVhckdyYWRpZW50PiYjeGE7ICAgIDxsaW5lYXJHcmFkaWVudCB4bGluazpocmVmPSIjbGluZWFyR3JhZGllbnQ1NTExLTMiIGlkPSJsaW5lYXJHcmFkaWVudDU4MjUiIGdyYWRpZW50VW5pdHM9InVzZXJTcGFjZU9uVXNlIiB4MT0iNTIuNTkwMjk4IiB5MT0iMzMuMjUiIHgyPSIxMTYuNDQyMTUiIHkyPSIzMy4yNSIvPiYjeGE7ICAgIDxsaW5lYXJHcmFkaWVudCBpZD0ibGluZWFyR3JhZGllbnQzMTQ0Ij4mI3hhOyAgICAgIDxzdG9wIHN0eWxlPSJzdG9wLWNvbG9yOiMwMDAwNjU7c3RvcC1vcGFjaXR5OjE7IiBvZmZzZXQ9IjAiIGlkPSJzdG9wMzE0NiIvPiYjeGE7ICAgICAgPHN0b3AgaWQ9InN0b3AzMTQ4IiBvZmZzZXQ9IjAuMjUiIHN0eWxlPSJzdG9wLWNvbG9yOiMwMDAwNzI7c3RvcC1vcGFjaXR5OjAuNzQ5MDE5NjE7Ii8+JiN4YTsgICAgICA8c3RvcCBpZD0ic3RvcDMxNTAiIG9mZnNldD0iMC41IiBzdHlsZT0ic3RvcC1jb2xvcjojMDAwMDdmO3N0b3Atb3BhY2l0eTowLjQ5ODAzOTIyOyIvPiYjeGE7ICAgICAgPHN0b3AgaWQ9InN0b3AzMTUyIiBvZmZzZXQ9IjEiIHN0eWxlPSJzdG9wLWNvbG9yOiMwMDAwMDA7c3RvcC1vcGFjaXR5OjA7Ii8+JiN4YTsgICAgPC9saW5lYXJHcmFkaWVudD4mI3hhOyAgICA8bGluZWFyR3JhZGllbnQgeTI9IjMzLjI1IiB4Mj0iMTE2LjQ0MjE1IiB5MT0iMzMuMjUiIHgxPSI1Mi41OTAyOTgiIGdyYWRpZW50VW5pdHM9InVzZXJTcGFjZU9uVXNlIiBpZD0ibGluZWFyR3JhZGllbnQ1NzU5LTkiIHhsaW5rOmhyZWY9IiNsaW5lYXJHcmFkaWVudDU1MTEtMyIvPiYjeGE7ICAgIDxsaW5lYXJHcmFkaWVudCBpZD0ibGluZWFyR3JhZGllbnQzMTU1Ij4mI3hhOyAgICAgIDxzdG9wIHN0eWxlPSJzdG9wLWNvbG9yOiMwMDAwNjU7c3RvcC1vcGFjaXR5OjE7IiBvZmZzZXQ9IjAiIGlkPSJzdG9wMzE1NyIvPiYjeGE7ICAgICAgPHN0b3AgaWQ9InN0b3AzMTU5IiBvZmZzZXQ9IjAuMjUiIHN0eWxlPSJzdG9wLWNvbG9yOiMwMDAwNzI7c3RvcC1vcGFjaXR5OjAuNzQ5MDE5NjE7Ii8+JiN4YTsgICAgICA8c3RvcCBpZD0ic3RvcDMxNjEiIG9mZnNldD0iMC41IiBzdHlsZT0ic3RvcC1jb2xvcjojMDAwMDdmO3N0b3Atb3BhY2l0eTowLjQ5ODAzOTIyOyIvPiYjeGE7ICAgICAgPHN0b3AgaWQ9InN0b3AzMTYzIiBvZmZzZXQ9IjEiIHN0eWxlPSJzdG9wLWNvbG9yOiMwMDAwMDA7c3RvcC1vcGFjaXR5OjA7Ii8+JiN4YTsgICAgPC9saW5lYXJHcmFkaWVudD4mI3hhOyAgICA8cmFkaWFsR3JhZGllbnQgZ3JhZGllbnRVbml0cz0idXNlclNwYWNlT25Vc2UiIGdyYWRpZW50VHJhbnNmb3JtPSJtYXRyaXgoMS42NTM4NTI3LDEuMjM5NzU5NiwtMS42NjI2ODYxLDIuMjE4MDQxMywtMzEuODc1NzMsLTEzNi4xNTU5KSIgcj0iMjEuNTU2MzYyIiBmeT0iMjQuODM1NDU1IiBmeD0iNzYuNTI3OTM5IiBjeT0iMjQuODM1NDU1IiBjeD0iNzYuNTI3OTM5IiBpZD0icmFkaWFsR3JhZGllbnQ1NjAwLTciIHhsaW5rOmhyZWY9IiNsaW5lYXJHcmFkaWVudDU2MDItNCIvPiYjeGE7ICAgIDxsaW5lYXJHcmFkaWVudCBpZD0ibGluZWFyR3JhZGllbnQ1NjAyLTQiPiYjeGE7ICAgICAgPHN0b3AgaWQ9InN0b3A1NjA0LTYiIG9mZnNldD0iMCIgc3R5bGU9InN0b3AtY29sb3I6IzAwMDA2NTtzdG9wLW9wYWNpdHk6MTsiLz4mI3hhOyAgICAgIDxzdG9wIHN0eWxlPSJzdG9wLWNvbG9yOiMwMDAwNzI7c3RvcC1vcGFjaXR5OjAuNzQ5MDE5NjE7IiBvZmZzZXQ9IjAuMzEwNjI5NzkiIGlkPSJzdG9wNTYwNi0yIi8+JiN4YTsgICAgICA8c3RvcCBzdHlsZT0ic3RvcC1jb2xvcjojMDAwMDdmO3N0b3Atb3BhY2l0eTowLjQ5ODAzOTIyOyIgb2Zmc2V0PSIwLjY1MTQyODY0IiBpZD0ic3RvcDU2MDgtNCIvPiYjeGE7ICAgICAgPHN0b3Agc3R5bGU9InN0b3AtY29sb3I6IzAwMDAwMDtzdG9wLW9wYWNpdHk6MDsiIG9mZnNldD0iMSIgaWQ9InN0b3A1NjEwLTEiLz4mI3hhOyAgICA8L2xpbmVhckdyYWRpZW50PiYjeGE7ICAgIDxyYWRpYWxHcmFkaWVudCByPSIyNC4yMzcxMzEiIGZ5PSIzNC42Nzg2NTQiIGZ4PSIxMDAuMzE0NzIiIGN5PSIzNC42Nzg2NTQiIGN4PSIxMDAuMzE0NzIiIGdyYWRpZW50VHJhbnNmb3JtPSJtYXRyaXgoLTMuNjI5MjY5MiwtMi4wMjI5ODUzLDEuNjg5NzIxNCwtMy4wMzEzODcyLDQxMy42NzY4OSwzNDAuMDMzMzMpIiBncmFkaWVudFVuaXRzPSJ1c2VyU3BhY2VPblVzZSIgaWQ9InJhZGlhbEdyYWRpZW50NTkzMiIgeGxpbms6aHJlZj0iI2xpbmVhckdyYWRpZW50NTkzNCIvPiYjeGE7ICAgIDxsaW5lYXJHcmFkaWVudCBpZD0ibGluZWFyR3JhZGllbnQ1OTM0Ij4mI3hhOyAgICAgIDxzdG9wIHN0eWxlPSJzdG9wLWNvbG9yOiMwMDAwNjU7c3RvcC1vcGFjaXR5OjE7IiBvZmZzZXQ9IjAiIGlkPSJzdG9wNTkzNiIvPiYjeGE7ICAgICAgPHN0b3AgaWQ9InN0b3A1OTM4IiBvZmZzZXQ9IjAuMzYzMTYzNjgiIHN0eWxlPSJzdG9wLWNvbG9yOiMwMDAwNzI7c3RvcC1vcGFjaXR5OjAuNzQ5MDE5NjE7Ii8+JiN4YTsgICAgICA8c3RvcCBpZD0ic3RvcDU5NDAiIG9mZnNldD0iMC42MTc0Nzg2NyIgc3R5bGU9InN0b3AtY29sb3I6IzAwMDA3ZjtzdG9wLW9wYWNpdHk6MC40OTgwMzkyMjsiLz4mI3hhOyAgICAgIDxzdG9wIGlkPSJzdG9wNTk0MiIgb2Zmc2V0PSIxIiBzdHlsZT0ic3RvcC1jb2xvcjojMDAwMDAwO3N0b3Atb3BhY2l0eTowOyIvPiYjeGE7ICAgIDwvbGluZWFyR3JhZGllbnQ+JiN4YTsgICAgPGxpbmVhckdyYWRpZW50IHkyPSI0Mi42OTcwNjciIHgyPSIyMDUuMDczNTIiIHkxPSI1OS40NDcwNjciIHgxPSIxNTcuMjE4MzUiIGdyYWRpZW50VHJhbnNmb3JtPSJtYXRyaXgoMSwwLDAsMS4wMDM1MTMsLTE2My41MzU2Miw5NjMuMzcwNDkpIiBncmFkaWVudFVuaXRzPSJ1c2VyU3BhY2VPblVzZSIgaWQ9ImxpbmVhckdyYWRpZW50NTgyNyIgeGxpbms6aHJlZj0iI2xpbmVhckdyYWRpZW50NTczNSIvPiYjeGE7ICAgIDxsaW5lYXJHcmFkaWVudCBpZD0ibGluZWFyR3JhZGllbnQ1NzM1Ij4mI3hhOyAgICAgIDxzdG9wIGlkPSJzdG9wNTczNyIgb2Zmc2V0PSIwIiBzdHlsZT0ic3RvcC1jb2xvcjojMTUxNTE1O3N0b3Atb3BhY2l0eTowOyIvPiYjeGE7ICAgICAgPHN0b3Agc3R5bGU9InN0b3AtY29sb3I6IzRmNGY0ZjtzdG9wLW9wYWNpdHk6MC41MjE1Njg2MzsiIG9mZnNldD0iMC4yNjg3MzIyMiIgaWQ9InN0b3A1NzQ1Ii8+JiN4YTsgICAgICA8c3RvcCBzdHlsZT0ic3RvcC1jb2xvcjojOGE4YThhO3N0b3Atb3BhY2l0eTowLjM0OTAxOTYxOyIgb2Zmc2V0PSIwLjUzNzQ2NDQ0IiBpZD0ic3RvcDU3NDMiLz4mI3hhOyAgICAgIDxzdG9wIGlkPSJzdG9wNTczOSIgb2Zmc2V0PSIxIiBzdHlsZT0ic3RvcC1jb2xvcjojZmZmZmZmO3N0b3Atb3BhY2l0eTowOyIvPiYjeGE7ICAgIDwvbGluZWFyR3JhZGllbnQ+JiN4YTsgICAgPGZpbHRlciBjb2xvci1pbnRlcnBvbGF0aW9uLWZpbHRlcnM9InNSR0IiIGlkPSJmaWx0ZXI2MTkwIj4mI3hhOyAgICAgIDxmZUdhdXNzaWFuQmx1ciByZXN1bHQ9InJlc3VsdDkxIiBzdGREZXZpYXRpb249IjUiIGlkPSJmZUdhdXNzaWFuQmx1cjYxOTIiLz4mI3hhOyAgICAgIDxmZUNvbXBvc2l0ZSBvcGVyYXRvcj0ib3ZlciIgaW49IlNvdXJjZUdyYXBoaWMiIGlkPSJmZUNvbXBvc2l0ZTYxOTQiIGluMj0icmVzdWx0OTEiLz4mI3hhOyAgICA8L2ZpbHRlcj4mI3hhOyAgICA8ZmlsdGVyIGlkPSJmaWx0ZXI1NDAwIiBjb2xvci1pbnRlcnBvbGF0aW9uLWZpbHRlcnM9InNSR0IiPiYjeGE7ICAgICAgPGZlR2F1c3NpYW5CbHVyIGlkPSJmZUdhdXNzaWFuQmx1cjU0MDIiIHN0ZERldmlhdGlvbj0iMS4zNzA3NTg4Ii8+JiN4YTsgICAgPC9maWx0ZXI+JiN4YTsgICAgPGxpbmVhckdyYWRpZW50IHkyPSIzOS4zMTYwOSIgeDI9IjE5NC43MTYzNyIgeTE9IjUyLjg2MzA1MiIgeDE9IjE2NS4wNzU1IiBncmFkaWVudFRyYW5zZm9ybT0ibWF0cml4KDEsMCwwLDEuMDAzNTEzLC0xNjMuNTM1NjIsOTYzLjM3MDQ5KSIgZ3JhZGllbnRVbml0cz0idXNlclNwYWNlT25Vc2UiIGlkPSJsaW5lYXJHcmFkaWVudDMxNDkiIHhsaW5rOmhyZWY9IiNsaW5lYXJHcmFkaWVudDMxNTEiLz4mI3hhOyAgICA8bGluZWFyR3JhZGllbnQgeTI9IjM5LjMxNjA5IiB4Mj0iMTk0LjcxNjM3IiB5MT0iNTIuODYzMDUyIiB4MT0iMTY1LjA3NTUiIGdyYWRpZW50VHJhbnNmb3JtPSJtYXRyaXgoMSwwLDAsMS4wMDM1MTMsLTE2My41MzU2Miw5NjMuMzcwNDkpIiBncmFkaWVudFVuaXRzPSJ1c2VyU3BhY2VPblVzZSIgaWQ9ImxpbmVhckdyYWRpZW50MzA1MSIgeGxpbms6aHJlZj0iI2xpbmVhckdyYWRpZW50MzE1MSIvPiYjeGE7ICAgIDxsaW5lYXJHcmFkaWVudCB5Mj0iMzMuMjUiIHgyPSIxMTYuNDQyMTUiIHkxPSIzMy4yNSIgeDE9IjUyLjU5MDI5OCIgZ3JhZGllbnRVbml0cz0idXNlclNwYWNlT25Vc2UiIGlkPSJsaW5lYXJHcmFkaWVudDMwNTMiIHhsaW5rOmhyZWY9IiNsaW5lYXJHcmFkaWVudDU1MTEtMyIvPiYjeGE7ICAgIDxyYWRpYWxHcmFkaWVudCByPSIyMS41NTYzNjIiIGZ5PSIyNC44MzU0NTUiIGZ4PSI3Ni41Mjc5MzkiIGN5PSIyNC44MzU0NTUiIGN4PSI3Ni41Mjc5MzkiIGdyYWRpZW50VHJhbnNmb3JtPSJtYXRyaXgoMS42NTM4NTI3LDEuMjM5NzU5NiwtMS42NjI2ODYxLDIuMjE4MDQxMywtMzEuODc1NzMsLTEzNi4xNTU5KSIgZ3JhZGllbnRVbml0cz0idXNlclNwYWNlT25Vc2UiIGlkPSJyYWRpYWxHcmFkaWVudDMwNTUiIHhsaW5rOmhyZWY9IiNsaW5lYXJHcmFkaWVudDU2MDItNCIvPiYjeGE7ICAgIDxyYWRpYWxHcmFkaWVudCByPSIyNC4yMzcxMzEiIGZ5PSIzNC42Nzg2NTQiIGZ4PSIxMDAuMzE0NzIiIGN5PSIzNC42Nzg2NTQiIGN4PSIxMDAuMzE0NzIiIGdyYWRpZW50VHJhbnNmb3JtPSJtYXRyaXgoLTMuNjI5MjY5MiwtMi4wMjI5ODUzLDEuNjg5NzIxNCwtMy4wMzEzODcyLDQxMy42NzY4OSwzNDAuMDMzMzMpIiBncmFkaWVudFVuaXRzPSJ1c2VyU3BhY2VPblVzZSIgaWQ9InJhZGlhbEdyYWRpZW50MzA1NyIgeGxpbms6aHJlZj0iI2xpbmVhckdyYWRpZW50NTkzNCIvPiYjeGE7ICAgIDxsaW5lYXJHcmFkaWVudCB5Mj0iMzMuMjUiIHgyPSIxMTYuNDQyMTUiIHkxPSIzMy4yNSIgeDE9IjUyLjU5MDI5OCIgZ3JhZGllbnRVbml0cz0idXNlclNwYWNlT25Vc2UiIGlkPSJsaW5lYXJHcmFkaWVudDMwNTkiIHhsaW5rOmhyZWY9IiNsaW5lYXJHcmFkaWVudDU1MTEtMyIvPiYjeGE7ICAgIDxsaW5lYXJHcmFkaWVudCB5Mj0iMzMuMjUiIHgyPSIxMTYuNDQyMTUiIHkxPSIzMy4yNSIgeDE9IjUyLjU5MDI5OCIgZ3JhZGllbnRVbml0cz0idXNlclNwYWNlT25Vc2UiIGlkPSJsaW5lYXJHcmFkaWVudDMwNjEiIHhsaW5rOmhyZWY9IiNsaW5lYXJHcmFkaWVudDU1MTEtMyIvPiYjeGE7ICA8L2RlZnM+JiN4YTsgICYjeGE7ICA8bWV0YWRhdGEgaWQ9Im1ldGFkYXRhMzIwMyI+JiN4YTsgICAgJiN4YTsgICAgICAmI3hhOyAgICAgICAgaW1hZ2Uvc3ZnK3htbCYjeGE7ICAgICAgICAmI3hhOyAgICAgICAgJiN4YTsgICAgICAmI3hhOyAgICAmI3hhOyAgPC9tZXRhZGF0YT4mI3hhOyAgPGcgdHJhbnNmb3JtPSJ0cmFuc2xhdGUoMCwtOTI0LjM2MjE4KSIgaWQ9ImxheWVyMSI+JiN4YTsgICAgPGcgdHJhbnNmb3JtPSJtYXRyaXgoMS4zODAzNTI0LDAsMCwxLjM4MDM1MjQsMTIuMzE4NzA0LC00MDIuMDk4MzMpIiBpZD0iZzMwMzkiPiYjeGE7ICAgICAgPGcgdHJhbnNmb3JtPSJ0cmFuc2xhdGUoLTc2LjA5ODExNiw5NjMuNzk2MzQpIiBpZD0iZzU0NzkiPiYjeGE7ICAgICAgICA8cGF0aCBpZD0icGF0aDM3OTMtOSIgZD0ibSA4MS43NjIxMzksMC4wNTg0MjggNjUuMjMwNTkxLDAgQyAxNTQuMDAwNTEsNTcuNzcyNjk5IDEyNi4zNjI2NSw4MS4wNjQ4MzQgMTE0LjczMDk5LDg1LjQ0MTU3MiAxMDUuMDc0OTgsODEuMDkzODY1IDcxLjY3NDM5Myw2Mi41NzM5NTYgODEuNzYyMTM5LDAuMDU4NDI4IHoiIHN0eWxlPSJmaWxsOiNmZmZmZmY7ZmlsbC1vcGFjaXR5OjE7c3Ryb2tlOiMwMDAwMDA7c3Ryb2tlLXdpZHRoOjAuMTtzdHJva2UtbGluZWNhcDpidXR0O3N0cm9rZS1saW5lam9pbjptaXRlcjtzdHJva2UtbWl0ZXJsaW1pdDo0O3N0cm9rZS1vcGFjaXR5OjE7c3Ryb2tlLWRhc2hhcnJheTpub25lIi8+JiN4YTsgICAgICAgIDxwYXRoIHRyYW5zZm9ybT0ibWF0cml4KDEuMDEwNTc4NSwwLDAsMC45OTk5NzYwNiwtMC44MjU2Njk3MSwwLjUwMTAyNCkiIGlkPSJwYXRoMzc5My0wIiBkPSJtIDgxLjI2MjE4OSwwLjA1ODQyOCA2NS4yMzA1OTEsMCBDIDE1My41MDA1Niw1Ny43NzI3IDEyNS44NjI3LDgxLjA2NDgzIDExNC4yMzEwNCw4NS40NDE1NyAxMDQuNTc1MDMsODEuMDkzODYgNzEuMTc0NDQzLDYyLjU3Mzk2IDgxLjI2MjE4OSwwLjA1ODQyOCB6IiBzdHlsZT0iZmlsbDpub25lO3N0cm9rZTojMDAwMDAwO3N0cm9rZS13aWR0aDoxLjU5MzYxMjMxO3N0cm9rZS1saW5lY2FwOmJ1dHQ7c3Ryb2tlLWxpbmVqb2luOm1pdGVyO3N0cm9rZS1taXRlcmxpbWl0OjQ7c3Ryb2tlLW9wYWNpdHk6MTtzdHJva2UtZGFzaGFycmF5Om5vbmU7ZmlsdGVyOnVybCgjZmlsdGVyNTQwMCkiLz4mI3hhOyAgICAgICAgPHBhdGggaWQ9InBhdGgzNzkzIiBkPSJtIDgxLjc4MzEwNSwtMC4yNDQ1MDI2MSA2NS4yMzA1OTUsMCBDIDE1NC4wMjE0OCw1Ny42NzI1MTcgMTI2LjM4MzYyLDgxLjA0NjQ3NiAxMTQuNzUxOTYsODUuNDM4NTkgMTA1LjA5NTk1LDgxLjA3NTYwOSA3MS42OTUzNTksNjIuNDkwNjQgODEuNzgzMTA1LC0wLjI0NDUwMjYxIHoiIHN0eWxlPSJmaWxsOiNmZmZmZmY7ZmlsbC1vcGFjaXR5OjE7c3Ryb2tlOiMwMDAwMDA7c3Ryb2tlLXdpZHRoOjAuMTAwMTc1NTtzdHJva2UtbGluZWNhcDpidXR0O3N0cm9rZS1saW5lam9pbjptaXRlcjtzdHJva2UtbWl0ZXJsaW1pdDo0O3N0cm9rZS1vcGFjaXR5OjE7c3Ryb2tlLWRhc2hhcnJheTpub25lIi8+JiN4YTsgICAgICA8L2c+JiN4YTsgICAgICA8cGF0aCBzdHlsZT0iZmlsbDp1cmwoI2xpbmVhckdyYWRpZW50MzA1MSk7ZmlsbC1vcGFjaXR5OjE7c3Ryb2tlOiMwMDAwMDA7c3Ryb2tlLXdpZHRoOjAuMTAwMTc1NTtzdHJva2UtbGluZWNhcDpidXR0O3N0cm9rZS1saW5lam9pbjptaXRlcjtzdHJva2UtbWl0ZXJsaW1pdDo0O3N0cm9rZS1vcGFjaXR5OjE7c3Ryb2tlLWRhc2hhcnJheTpub25lO2ZpbHRlcjp1cmwoI2ZpbHRlcjYxOTApIiBkPSJtIDUuNjIyNDU0NCw5NjMuNjI2ODkgNjUuMjMwNTg2NiwwIGMgNy4wMDc3OCw1Ny45MTcwMSAtMjAuNjMwMDc3LDgxLjI5MTAxIC0zMi4yNjE3MzcsODUuNjgzMTEgLTkuNjU2MDEsLTQuMzYzIC00My4wNTY1OTk2LC0yMi45NDggLTMyLjk2ODg0OTYsLTg1LjY4MzExIHoiIGlkPSJwYXRoMzc5My01Ii8+JiN4YTsgICAgICA8ZyBzdHlsZT0iZmlsbDp1cmwoI2xpbmVhckdyYWRpZW50MzA2MSk7ZmlsbC1vcGFjaXR5OjEiIGlkPSJnNTUzOCIgdHJhbnNmb3JtPSJ0cmFuc2xhdGUoLTQ2LjMzNDAwNiw5NzIuNjM3MzMpIj4mI3hhOyAgICAgICAgPGcgc3R5bGU9ImZpbGw6dXJsKCNsaW5lYXJHcmFkaWVudDMwNTkpO2ZpbGwtb3BhY2l0eToxIiBpZD0iZzU1NjEiPiYjeGE7ICAgICAgICAgIDxwYXRoIHN0eWxlPSJmaWxsOnVybCgjbGluZWFyR3JhZGllbnQzMDUzKTtmaWxsLW9wYWNpdHk6MTtzdHJva2U6IzAwMDAwMDtzdHJva2Utd2lkdGg6MDtzdHJva2UtbGluZWNhcDpidXR0O3N0cm9rZS1saW5lam9pbjptaXRlcjtzdHJva2UtbWl0ZXJsaW1pdDo0O3N0cm9rZS1vcGFjaXR5OjE7c3Ryb2tlLWRhc2hhcnJheTpub25lIiBkPSJNIDU1LjYzNDc3MSwtNi44Njc4Mzc5IDk0LjM0MjM5NywtNy4wNTg1MTU4IiBpZD0icGF0aDI5OTAiLz4mI3hhOyAgICAgICAgICA8cGF0aCBzdHlsZT0iZmlsbDp1cmwoI3JhZGlhbEdyYWRpZW50MzA1NSk7ZmlsbC1vcGFjaXR5OjE7c3Ryb2tlOiMwMDAwMDA7c3Ryb2tlLXdpZHRoOjAuMTtzdHJva2UtbGluZWNhcDpidXR0O3N0cm9rZS1saW5lam9pbjptaXRlcjtzdHJva2UtbWl0ZXJsaW1pdDo0O3N0cm9rZS1vcGFjaXR5OjE7c3Ryb2tlLWRhc2hhcnJheTpub25lIiBkPSJtIDU2LjYyMzExOCwtNi42MjIwNzQ5IDM4LjE4NzQ5OSwwLjEyNSBjIDEuNDE0NDgsMC4yMjIzNzE0IDAuNzQ5NzQsMS4xMTY5MzQ1IDAsMiBMIDU3LjQ4OTUwNCwzMi43MjM1MzMgYyAtMC40MTY2NjcsMC4zNTY2NzkgLTAuNzQ3NDc0LDAuNTE4MjE5IC0xLjAwMjEwOSwwLjUwNjY0MyAtMC44MTcwOTgsMC4wNDY3NSAtMS4wNDc1NTEsLTAuMjU5MjMzIC0xLjQzMzAyLC0wLjY0NDExMyAtMC40MjI3OTQsLTAuNDQyNzE1IC0wLjU2ODA4MywtMC45ODY4MzYgLTAuNzYwOTYzLC0xLjUxOTUyNSAtMC42NTIxMTEsLTIuMTU4MzYyIC0wLjk2NDAxOSwtNC40MTI0OTEgLTEuMTcxMjE0LC02LjkzODYxNCAtMC4yOTMzNzIsLTQuMTY3MjUgLTAuNTYyNjc1LC04LjM4MDk1MyAtMC40MzgyNjcsLTEyLjI5MDUxNiAwLjIyNTEzNSwtNC42MzA3MTI4IDAuMjcyMDY4LC04Ljk5MTM4NzUgMC44NDc2NTcsLTE0LjI5MDI4ODcgLTAuMDYwNDgsLTIuODE4MjMzMiAxLjk0NDc2OCwtNC4xNzU1MTYxIDMuMDkxNTMsLTQuMTY5MTk0MiB6IiBpZD0icGF0aDM3NzAiLz4mI3hhOyAgICAgICAgICA8cGF0aCBzdHlsZT0iZmlsbDp1cmwoI3JhZGlhbEdyYWRpZW50MzA1Nyk7ZmlsbC1vcGFjaXR5OjE7c3Ryb2tlOiMwMDAwMDA7c3Ryb2tlLXdpZHRoOjAuMTtzdHJva2UtbGluZWNhcDpidXR0O3N0cm9rZS1saW5lam9pbjptaXRlcjtzdHJva2UtbWl0ZXJsaW1pdDo0O3N0cm9rZS1vcGFjaXR5OjE7c3Ryb2tlLWRhc2hhcnJheTpub25lIiBkPSJNIDY4LjQzNTYxOSw1OS4wMDI5MjQgMTE0LjUxMTc2LDEzLjA1MTc4IGMgMC44MDk5MywwLjIwMzM5OCAwLjg1ODY5LDIuMzUzODgxIDAuODE2MTMsMy4zNTc1MjIgLTAuMDUwNCwxLjIxOTc1MiAwLjMyODQ0LDIuMTc5MDM1IC0wLjQ2MTA2LDcuNzc5NjIyIC0yLjgwOTU5LDE0LjMyNzEzNCAtNy42MjgwNCwzNi41MzUyNjEgLTI4LjA0ODA4Myw0OC44NjgwMDIgLTEuMDQxNDUsMC40MDc0NDQgLTIuMTE4NDgsMC43MDgxNDQgLTMuNTA4MTMsMC4wNzEgLTQuMjg2MDEsLTIuOTg3MzMyIC04LjE0NjIsLTUuMTkzOTg1IC0xNC4zMzQwODYsLTExLjY2ODA4NiAtMS40OTY4MjIsLTEuNTU5NTEzIC0wLjg0NDIyOCwtMS45MDk5OCAtMC41NDA5MTIsLTIuNDU2OTE2IHoiIGlkPSJwYXRoMzc5MSIvPiYjeGE7ICAgICAgICA8L2c+JiN4YTsgICAgICA8L2c+JiN4YTsgICAgPC9nPiYjeGE7ICA8L2c+JiN4YTs8L3N2Zz4=;aspect=fixed;" parent="5G_yt-iN49mRIbdVEVWk-1" vertex="1">
          <mxGeometry x="-1219.25" y="-566.13" width="32.25" height="32.25" as="geometry" />
        </mxCell>
        <mxCell id="2x0kGgbs7OKSk3ZMjQRD-46" value="&lt;span style=&quot;background-color: rgb(245, 245, 245);&quot;&gt;&lt;font style=&quot;font-size: 10px;&quot;&gt;volume: pgdata&lt;/font&gt;&lt;/span&gt;" style="image;aspect=fixed;html=1;points=[];align=center;fontSize=12;image=img/lib/azure2/general/Folder_Blank.svg;" parent="5G_yt-iN49mRIbdVEVWk-1" vertex="1">
          <mxGeometry x="-1045.22" y="-427.65000000000003" width="39.49" height="32.05" as="geometry" />
        </mxCell>
        <mxCell id="2x0kGgbs7OKSk3ZMjQRD-52" style="edgeStyle=orthogonalEdgeStyle;rounded=0;orthogonalLoop=1;jettySize=auto;html=1;entryX=0.5;entryY=0;entryDx=0;entryDy=0;dashed=1;" parent="5G_yt-iN49mRIbdVEVWk-1" source="2x0kGgbs7OKSk3ZMjQRD-48" target="2x0kGgbs7OKSk3ZMjQRD-18" edge="1">
          <mxGeometry relative="1" as="geometry">
            <Array as="points">
              <mxPoint x="-1150" y="-370" />
              <mxPoint x="-1150" y="-370" />
            </Array>
          </mxGeometry>
        </mxCell>
        <mxCell id="2x0kGgbs7OKSk3ZMjQRD-48" value="" style="rounded=0;whiteSpace=wrap;html=1;fillColor=#EDE7F6;strokeColor=none;" parent="5G_yt-iN49mRIbdVEVWk-1" vertex="1">
          <mxGeometry x="-1239" y="-440" width="179" height="70" as="geometry" />
        </mxCell>
        <mxCell id="2x0kGgbs7OKSk3ZMjQRD-29" style="edgeStyle=orthogonalEdgeStyle;rounded=0;orthogonalLoop=1;jettySize=auto;html=1;exitX=0;exitY=0.75;exitDx=0;exitDy=0;" parent="5G_yt-iN49mRIbdVEVWk-1" source="2x0kGgbs7OKSk3ZMjQRD-20" edge="1">
          <mxGeometry relative="1" as="geometry">
            <mxPoint x="-1214" y="-431" as="targetPoint" />
          </mxGeometry>
        </mxCell>
        <mxCell id="2x0kGgbs7OKSk3ZMjQRD-26" style="edgeStyle=orthogonalEdgeStyle;rounded=0;orthogonalLoop=1;jettySize=auto;html=1;entryX=0.5;entryY=0;entryDx=0;entryDy=0;exitX=0.5;exitY=1;exitDx=0;exitDy=0;" parent="5G_yt-iN49mRIbdVEVWk-1" source="2x0kGgbs7OKSk3ZMjQRD-22" target="2x0kGgbs7OKSk3ZMjQRD-25" edge="1">
          <mxGeometry relative="1" as="geometry">
            <Array as="points">
              <mxPoint x="-1118" y="-460" />
              <mxPoint x="-1118" y="-460" />
            </Array>
          </mxGeometry>
        </mxCell>
        <mxCell id="2x0kGgbs7OKSk3ZMjQRD-47" style="edgeStyle=orthogonalEdgeStyle;rounded=0;orthogonalLoop=1;jettySize=auto;html=1;" parent="5G_yt-iN49mRIbdVEVWk-1" source="2x0kGgbs7OKSk3ZMjQRD-25" target="2x0kGgbs7OKSk3ZMjQRD-46" edge="1">
          <mxGeometry relative="1" as="geometry" />
        </mxCell>
        <mxCell id="2x0kGgbs7OKSk3ZMjQRD-25" value="Postgresql-server" style="shape=image;verticalLabelPosition=bottom;verticalAlign=top;imageAspect=0;image=data:image/svg+xml,PHN2ZyB4bWxucz0iaHR0cDovL3d3dy53My5vcmcvMjAwMC9zdmciIHhtbDpzcGFjZT0icHJlc2VydmUiIHZpZXdCb3g9IjAgMCA0MzIuMDcxIDQ0NS4zODMiIGhlaWdodD0iNDQ1LjM4M3B0IiB3aWR0aD0iNDMyLjA3MXB0Ij4mI3hhOzxnIHN0eWxlPSJmaWxsLXJ1bGU6bm9uemVybztjbGlwLXJ1bGU6bm9uemVybztzdHJva2U6IzAwMDAwMDtzdHJva2UtbWl0ZXJsaW1pdDo0OyIgaWQ9Im9yZ2luYWwiPiYjeGE7CTwvZz4mI3hhOzxnIHN0eWxlPSJmaWxsLXJ1bGU6bm9uemVybztjbGlwLXJ1bGU6bm9uemVybztmaWxsOm5vbmU7c3Ryb2tlOiNGRkZGRkY7c3Ryb2tlLXdpZHRoOjEyLjQ2NTE7c3Ryb2tlLWxpbmVjYXA6cm91bmQ7c3Ryb2tlLWxpbmVqb2luOnJvdW5kO3N0cm9rZS1taXRlcmxpbWl0OjQ7IiBpZD0iTGF5ZXJfeDAwMjBfMyI+JiN4YTs8cGF0aCBkPSJNMzIzLjIwNSwzMjQuMjI3YzIuODMzLTIzLjYwMSwxLjk4NC0yNy4wNjIsMTkuNTYzLTIzLjIzOWw0LjQ2MywwLjM5MmMxMy41MTcsMC42MTUsMzEuMTk5LTIuMTc0LDQxLjU4Ny03YzIyLjM2Mi0xMC4zNzYsMzUuNjIyLTI3LjcsMTMuNTcyLTIzLjE0OGMtNTAuMjk3LDEwLjM3Ni01My43NTUtNi42NTUtNTMuNzU1LTYuNjU1YzUzLjExMS03OC44MDMsNzUuMzEzLTE3OC44MzYsNTYuMTQ5LTIwMy4zMjIgICAgQzM1Mi41MTQtNS41MzQsMjYyLjAzNiwyNi4wNDksMjYwLjUyMiwyNi44NjlsLTAuNDgyLDAuMDg5Yy05LjkzOC0yLjA2Mi0yMS4wNi0zLjI5NC0zMy41NTQtMy40OTZjLTIyLjc2MS0wLjM3NC00MC4wMzIsNS45NjctNTMuMTMzLDE1LjkwNGMwLDAtMTYxLjQwOC02Ni40OTgtMTUzLjg5OSw4My42MjhjMS41OTcsMzEuOTM2LDQ1Ljc3NywyNDEuNjU1LDk4LjQ3LDE3OC4zMSAgICBjMTkuMjU5LTIzLjE2MywzNy44NzEtNDIuNzQ4LDM3Ljg3MS00Mi43NDhjOS4yNDIsNi4xNCwyMC4zMDcsOS4yNzIsMzEuOTEyLDguMTQ3bDAuODk3LTAuNzY1Yy0wLjI4MSwyLjg3Ni0wLjE1Nyw1LjY4OSwwLjM1OSw5LjAxOWMtMTMuNTcyLDE1LjE2Ny05LjU4NCwxNy44My0zNi43MjMsMjMuNDE2Yy0yNy40NTcsNS42NTktMTEuMzI2LDE1LjczNC0wLjc5NywxOC4zNjdjMTIuNzY4LDMuMTkzLDQyLjMwNSw3LjcxNiw2Mi4yNjgtMjAuMjI0ICAgIGwtMC43OTUsMy4xODhjNS4zMjUsNC4yNiw0Ljk2NSwzMC42MTksNS43Miw0OS40NTJjMC43NTYsMTguODM0LDIuMDE3LDM2LjQwOSw1Ljg1Niw0Ni43NzFjMy44MzksMTAuMzYsOC4zNjksMzcuMDUsNDQuMDM2LDI5LjQwNmMyOS44MDktNi4zODgsNTIuNi0xNS41ODIsNTQuNjc3LTEwMS4xMDciIHN0eWxlPSJmaWxsOiMwMDAwMDA7c3Ryb2tlOiMwMDAwMDA7c3Ryb2tlLXdpZHRoOjM3LjM5NTM7c3Ryb2tlLWxpbmVjYXA6YnV0dDtzdHJva2UtbGluZWpvaW46bWl0ZXI7Ii8+JiN4YTs8cGF0aCBkPSJNNDAyLjM5NSwyNzEuMjNjLTUwLjMwMiwxMC4zNzYtNTMuNzYtNi42NTUtNTMuNzYtNi42NTVjNTMuMTExLTc4LjgwOCw3NS4zMTMtMTc4Ljg0Myw1Ni4xNTMtMjAzLjMyNmMtNTIuMjctNjYuNzg1LTE0Mi43NTItMzUuMi0xNDQuMjYyLTM0LjM4bC0wLjQ4NiwwLjA4N2MtOS45MzgtMi4wNjMtMjEuMDYtMy4yOTItMzMuNTYtMy40OTZjLTIyLjc2MS0wLjM3My00MC4wMjYsNS45NjctNTMuMTI3LDE1LjkwMiAgICBjMCwwLTE2MS40MTEtNjYuNDk1LTE1My45MDQsODMuNjNjMS41OTcsMzEuOTM4LDQ1Ljc3NiwyNDEuNjU3LDk4LjQ3MSwxNzguMzEyYzE5LjI2LTIzLjE2MywzNy44NjktNDIuNzQ4LDM3Ljg2OS00Mi43NDhjOS4yNDMsNi4xNCwyMC4zMDgsOS4yNzIsMzEuOTA4LDguMTQ3bDAuOTAxLTAuNzY1Yy0wLjI4LDIuODc2LTAuMTUyLDUuNjg5LDAuMzYxLDkuMDE5Yy0xMy41NzUsMTUuMTY3LTkuNTg2LDE3LjgzLTM2LjcyMywyMy40MTYgICAgYy0yNy40NTksNS42NTktMTEuMzI4LDE1LjczNC0wLjc5NiwxOC4zNjdjMTIuNzY4LDMuMTkzLDQyLjMwNyw3LjcxNiw2Mi4yNjYtMjAuMjI0bC0wLjc5NiwzLjE4OGM1LjMxOSw0LjI2LDkuMDU0LDI3LjcxMSw4LjQyOCw0OC45NjljLTAuNjI2LDIxLjI1OS0xLjA0NCwzNS44NTQsMy4xNDcsNDcuMjU0YzQuMTkxLDExLjQsOC4zNjgsMzcuMDUsNDQuMDQyLDI5LjQwNmMyOS44MDktNi4zODgsNDUuMjU2LTIyLjk0Miw0Ny40MDUtNTAuNTU1ICAgIGMxLjUyNS0xOS42MzEsNC45NzYtMTYuNzI5LDUuMTk0LTM0LjI4bDIuNzY4LTguMzA5YzMuMTkyLTI2LjYxMSwwLjUwNy0zNS4xOTYsMTguODcyLTMxLjIwM2w0LjQ2MywwLjM5MmMxMy41MTcsMC42MTUsMzEuMjA4LTIuMTc0LDQxLjU5MS03YzIyLjM1OC0xMC4zNzYsMzUuNjE4LTI3LjcsMTMuNTczLTIzLjE0OHoiIHN0eWxlPSJmaWxsOiMzMzY3OTE7c3Ryb2tlOm5vbmU7Ii8+JiN4YTs8cGF0aCBkPSJNMjE1Ljg2NiwyODYuNDg0Yy0xLjM4NSw0OS41MTYsMC4zNDgsOTkuMzc3LDUuMTkzLDExMS40OTVjNC44NDgsMTIuMTE4LDE1LjIyMywzNS42ODgsNTAuOSwyOC4wNDVjMjkuODA2LTYuMzksNDAuNjUxLTE4Ljc1Niw0NS4zNTctNDYuMDUxYzMuNDY2LTIwLjA4MiwxMC4xNDgtNzUuODU0LDExLjAwNS04Ny4yODEiLz4mI3hhOzxwYXRoIGQ9Ik0xNzMuMTA0LDM4LjI1NmMwLDAtMTYxLjUyMS02Ni4wMTYtMTU0LjAxMiw4NC4xMDljMS41OTcsMzEuOTM4LDQ1Ljc3OSwyNDEuNjY0LDk4LjQ3MywxNzguMzE2YzE5LjI1Ni0yMy4xNjYsMzYuNjcxLTQxLjMzNSwzNi42NzEtNDEuMzM1Ii8+JiN4YTs8cGF0aCBkPSJNMjYwLjM0OSwyNi4yMDdjLTUuNTkxLDEuNzUzLDg5Ljg0OC0zNC44ODksMTQ0LjA4NywzNC40MTdjMTkuMTU5LDI0LjQ4NC0zLjA0MywxMjQuNTE5LTU2LjE1MywyMDMuMzI5Ii8+JiN4YTs8cGF0aCBkPSJNMzQ4LjI4MiwyNjMuOTUzYzAsMCwzLjQ2MSwxNy4wMzYsNTMuNzY0LDYuNjUzYzIyLjA0LTQuNTUyLDguNzc2LDEyLjc3NC0xMy41NzcsMjMuMTU1Yy0xOC4zNDUsOC41MTQtNTkuNDc0LDEwLjY5Ni02MC4xNDYtMS4wNjljLTEuNzI5LTMwLjM1NSwyMS42NDctMjEuMTMzLDE5Ljk2LTI4LjczOWMtMS41MjUtNi44NS0xMS45NzktMTMuNTczLTE4Ljg5NC0zMC4zMzggICAgYy02LjAzNy0xNC42MzMtODIuNzk2LTEyNi44NDksMjEuMjg3LTExMC4xODNjMy44MTMtMC43ODktMjcuMTQ2LTk5LjAwMi0xMjQuNTUzLTEwMC41OTljLTk3LjM4NS0xLjU5Ny05NC4xOSwxMTkuNzYyLTk0LjE5LDExOS43NjIiIHN0eWxlPSJzdHJva2UtbGluZWpvaW46YmV2ZWw7Ii8+JiN4YTs8cGF0aCBkPSJNMTg4LjYwNCwyNzQuMzM0Yy0xMy41NzcsMTUuMTY2LTkuNTg0LDE3LjgyOS0zNi43MjMsMjMuNDE3Yy0yNy40NTksNS42Ni0xMS4zMjYsMTUuNzMzLTAuNzk3LDE4LjM2NWMxMi43NjgsMy4xOTUsNDIuMzA3LDcuNzE4LDYyLjI2Ni0yMC4yMjljNi4wNzgtOC41MDktMC4wMzYtMjIuMDg2LTguMzg1LTI1LjU0N2MtNC4wMzQtMS42NzEtOS40MjgtMy43NjUtMTYuMzYxLDMuOTk0eiIvPiYjeGE7PHBhdGggZD0iTTE4Ny43MTUsMjc0LjA2OWMtMS4zNjgtOC45MTcsMi45My0xOS41MjgsNy41MzYtMzEuOTQyYzYuOTIyLTE4LjYyNiwyMi44OTMtMzcuMjU1LDEwLjExNy05Ni4zMzljLTkuNTIzLTQ0LjAyOS03My4zOTYtOS4xNjMtNzMuNDM2LTMuMTkzYy0wLjAzOSw1Ljk2OCwyLjg4OSwzMC4yNi0xLjA2Nyw1OC41NDhjLTUuMTYyLDM2LjkxMywyMy40ODgsNjguMTMyLDU2LjQ3OSw2NC45MzgiLz4mI3hhOzxwYXRoIGQ9Ik0xNzIuNTE3LDE0MS43Yy0wLjI4OCwyLjAzOSwzLjczMyw3LjQ4LDguOTc2LDguMjA3YzUuMjM0LDAuNzMsOS43MTQtMy41MjIsOS45OTgtNS41NTljMC4yODQtMi4wMzktMy43MzItNC4yODUtOC45NzctNS4wMTVjLTUuMjM3LTAuNzMxLTkuNzE5LDAuMzMzLTkuOTk2LDIuMzY3eiIgc3R5bGU9ImZpbGw6I0ZGRkZGRjtzdHJva2Utd2lkdGg6NC4xNTU7c3Ryb2tlLWxpbmVjYXA6YnV0dDtzdHJva2UtbGluZWpvaW46bWl0ZXI7Ii8+JiN4YTs8cGF0aCBkPSJNMzMxLjk0MSwxMzcuNTQzYzAuMjg0LDIuMDM5LTMuNzMyLDcuNDgtOC45NzYsOC4yMDdjLTUuMjM4LDAuNzMtOS43MTgtMy41MjItMTAuMDA1LTUuNTU5Yy0wLjI3Ny0yLjAzOSwzLjc0LTQuMjg1LDguOTc5LTUuMDE1YzUuMjM5LTAuNzMsOS43MTgsMC4zMzMsMTAuMDAyLDIuMzY4eiIgc3R5bGU9ImZpbGw6I0ZGRkZGRjtzdHJva2Utd2lkdGg6Mi4wNzc1O3N0cm9rZS1saW5lY2FwOmJ1dHQ7c3Ryb2tlLWxpbmVqb2luOm1pdGVyOyIvPiYjeGE7PHBhdGggZD0iTTM1MC42NzYsMTIzLjQzMmMwLjg2MywxNS45OTQtMy40NDUsMjYuODg4LTMuOTg4LDQzLjkxNGMtMC44MDQsMjQuNzQ4LDExLjc5OSw1My4wNzQtNy4xOTEsODEuNDM1Ii8+JiN4YTs8cGF0aCBkPSJNMCw2MC4yMzIiIHN0eWxlPSJzdHJva2Utd2lkdGg6MzsiLz4mI3hhOzwvZz4mI3hhOzwvc3ZnPg==;aspect=fixed;" parent="5G_yt-iN49mRIbdVEVWk-1" vertex="1">
          <mxGeometry x="-1138.1399999999999" y="-432.3" width="40.08" height="41.35" as="geometry" />
        </mxCell>
        <mxCell id="2x0kGgbs7OKSk3ZMjQRD-28" style="edgeStyle=orthogonalEdgeStyle;rounded=0;orthogonalLoop=1;jettySize=auto;html=1;entryX=0;entryY=0.5;entryDx=0;entryDy=0;" parent="5G_yt-iN49mRIbdVEVWk-1" source="2x0kGgbs7OKSk3ZMjQRD-27" target="2x0kGgbs7OKSk3ZMjQRD-25" edge="1">
          <mxGeometry relative="1" as="geometry" />
        </mxCell>
        <mxCell id="2x0kGgbs7OKSk3ZMjQRD-27" value="Rest API" style="shape=image;verticalLabelPosition=bottom;verticalAlign=top;imageAspect=0;aspect=fixed;image=data:image/svg+xml,PHN2ZyB4bWxucz0iaHR0cDovL3d3dy53My5vcmcvMjAwMC9zdmciIHdpZHRoPSIxMDAwIiB2aWV3Qm94PSIwIDAgMjY0LjU4MzMzIDI1NS41ODc1MSIgaGVpZ2h0PSI5NjYiPjxwYXRoIHRyYW5zZm9ybT0idHJhbnNsYXRlKDAgLTQxLjQxMjQ4NykiIGZpbGwtcnVsZT0iZXZlbm9kZCIgZmlsbD0iI2UwMjM0ZSIgZD0ibTE1My4zMzg0NSA0NS42NTI0ODFjLTEuODA5MzQgMC0zLjQ4OTQ0LjM4NzcyOS01LjA0MDMyLjkwNDY3MyAzLjI5NTU4IDIuMTk3MDYgNS4xMDQ5MyA1LjEwNDk2MSA2LjAwOTYzIDguNDAwNTUxLjA2NDguNDUyMzMuMTkzODYuNzc1NDQ0LjI1ODU2IDEuMjI3NzU5LjA2NDguMzg3NzI5LjEyOTE2Ljc3NTQ0NC4xMjkxNiAxLjE2MzE3MS4yNTg2IDUuNjg2NTA5LTEuNDg2MjggNi4zOTczMjMtMi43MTQwMyA5Ljc1NzU0My0xLjg3Mzk4IDQuMzI5NTI5LTEuMzU3MDQgOC45ODIxMzMuOTA0NjYgMTIuNzMwMDc5LjE5Mzg3LjQ1MjMxOC40NTIzNC45NjkyNzUuNzc1NDYgMS40MjE2MTgtMi40NTU1OC0xNi4zNDg3NTkgMTEuMTc5MTktMTguODA0MzA0IDEzLjY5OTMyLTIzLjkwOTI0LjE5Mzg2LTQuNDU4NzYxLTMuNDg5NDQtNy40MzEyNjMtNi4zOTczMS05LjQ5OTA5Mi0yLjc3ODY0LTEuNjgwMTA0LTUuMjk4ODQtMi4xOTcwNjItNy42MjUxMy0yLjE5NzA2MnptMjAuNTQ5MDMgMy42ODMzMThjLS4yNTg1OCAxLjQ4NjI0Ny0uMDY0NyAxLjA5ODUzLS4xMjkxMyAxLjg3Mzk3My0uMDY0Ny41MTY5NDUtLjA2NDcgMS4xNjMxNTctLjEyOTE0IDEuNjgwMTAyLS4xMjkxNC41MTY5NTktLjI1ODYgMS4wMzM5MDQtLjQ1MjM2IDEuNTUwODg2LS4xMjkxMy41MTY5NDUtLjMyMzA5IDEuMDMzOTAzLS41MTY5NCAxLjU1MDg0Ny0uMjU4Ni41MTY5ODMtLjQ1MjM0Ljk2OTMwMS0uNzEwODIgMS40ODYyNTgtLjE5Mzg1LjI1ODU4NS0uMzIzMDkuNTE2OTQ1LS41MTY5NS43NzU0NDMtLjEyOTE0LjE5Mzg1Ny0uMjU4NTguMzg3NzE1LS4zODc3MS41ODE1NzItLjMyMzA5LjQ1MjM1NS0uNjQ2MjEuOTA0NjczLS45NjkyOSAxLjI5MjM4Ny0uMzg3NzQuMzg3NzI5LS43MTA4My44NDAwNDYtMS4xNjMxOSAxLjE2MzE3MXYuMDY0N2MtLjM4NzcxLjMyMzEtLjc3NTQzLjcxMDgxNS0xLjIyNzc1IDEuMDMzOTAzLTEuMzU3MDIgMS4wMzM5MDItMi45MDc4NyAxLjgwOTM0NC00LjMyOTUyIDIuNzc4NjQ0LS40NTIzMS4zMjMwODgtLjkwNDY4LjU4MTU4Ny0xLjI5MjM4Ljk2OTMtLjQ1MjMzLjMyMzA4OC0uODQwMDYuNjQ2MTc2LTEuMjI3NzYgMS4wMzM5MDMtLjQ1MjM2LjM4NzcxNS0uNzc1NDUuNzc1NDQyLTEuMTYzMTggMS4yMjc3ODQtLjMyMzA5LjM4NzcyOC0uNzEwOC44NDAwNDgtLjk2OTI3IDEuMjkyNDAyLS4zMjMxMi40NTIzMTctLjY0NjIuOTA0NjYxLS45MDQ3IDEuMzU2OTktLjI1ODU3LjUxNjk0NC0uNDUyMzMuOTY5Mjk5LS43MTA4MSAxLjQ4NjI0NS0uMTkzODUuNTE2OTQ0LS4zODc3My45NjkzMDEtLjUxNjk1IDEuNDg2MjQ0LS4xOTM4Ni41ODE1ODYtLjMyMzEgMS4wOTg1NDQtLjQ1MjM0IDEuNjE1NTE0LS4wNjQ3LjI1ODU4My0uMDY0Ny41ODE1Ni0uMTI5MTQuODQwMDQ1LS4wNjQ4LjI1ODU4NC0uMDY0OC41MTY5NDUtLjEyOTEzLjc3NTQ0MyAwIC41MTY5NDQtLjA2NDcgMS4wOTg1My0uMDY0NyAxLjYxNTQ3NSAwIC4zODc3MjcgMCAuNzc1NDQxLjA2NDcgMS4xNjMxNjkgMCAuNTE2OTQ2LjA2NDcgMS4wMzM4OTIuMTkzODUgMS42MTU0NzYuMDY0Ny41MTY5NDQuMTkzODQgMS4wMzM5MDIuMzIzMTIgMS41NTA4ODUuMTkzODYuNTE2OTQ0LjMyMzEgMS4wMzM5MDIuNTE2OTQgMS41NTA4NDcuMTI5MTYuMzIzMTI2LjMyMzA5LjY0NjIxMy40NTIzNi45MDQ2NzNsLTE0Ljg2MjUyLTUuNzUxMTRjLTIuNTIwMTgtLjcxMDgxNS00Ljk3NTctMS4zNTY5OS03LjQ5NTg4LTEuOTM4NTc2LTEuMzU3LS4zMjMwODctMi43MTQtLjY0NjE5OC00LjA3MTAyLS45NjkyOTktMy44NzcxOS0uNzc1NDMtNy44MTg5NS0xLjM1Njk5MS0xMS43NjA3Ni0xLjc0NDcwNS0uMTI5MTMgMC0uMTkzODUtLjA2NDcxLS4zMjMwOS0uMDY0NzEtMy44NzcyLS4zODc3MTQtNy42ODk3My0uNTgxNTcyLTExLjU2NjktLjU4MTU3Mi0yLjg0MzI4IDAtNS42ODY1Ni4xMjkxMzEtOC40NjUyMDEuMzIzMDg4LTMuOTQxNzk4LjI1ODU4NC03Ljg4MzYwMi43NzU0NDItMTEuODI1MzczIDEuNDIxNjE3LS45NjkzMDIuMTI5MTQ0LTEuOTM4NjAyLjMyMzEyNS0yLjkwNzkwNS41MTY5ODQtMi4wMDMxOTkuMzg3Njg5LTMuOTQxNzcxLjg0MDA0NC01LjgxNTc0MiAxLjI5MjM4Ni0uOTY5My4yNTg1ODQtMS45Mzg2MDIuNTE2OTU4LTIuOTA3OTAzLjc3NTQxOS0uOTY5MjcuMzg3NzEzLTEuODczOTQuODQwMDctMi43Nzg2NDIgMS4yMjc3ODQtLjcxMDgxMS4zMjMwODgtMS40MjE2MTkuNjQ2MTg3LTIuMTMyNDMxLjk2OTMtLjEyOTEzOS4wNjQ3MS0uMjU4NTguMDY0NzEtLjMyMzA5LjEyOTE0NC0uNjQ2MjEuMzIzMDg3LTEuMjI3NzkuNTgxNTQ3LTEuODA5MzQxLjkwNDY3MS0uMTkzODYxLjA2NDcxLS4zMjMxMjIuMTI5MTMyLS40NTIzNTEuMTkzODU5LS43MTA4MS4zMjMwODktMS40MjE2MTguNzEwODAzLTIuMDAzMjAxIDEuMDMzOTAyLS40NTIzNS4xOTM4NTgtLjkwNDY3LjQ1MjM0My0xLjI5MjM4OS42NDYyMTMtLjE5Mzg2Mi4xMjkxMzEtLjQ1MjM1My4yNTg1NzItLjU4MTU4Mi4zMjMwODgtLjU4MTU3OS4zMjMwODgtMS4xNjMxNi42NDYxNzQtMS42ODAxMTEuOTY5My0uNTgxNTgxLjMyMzA4Ny0xLjA5ODUzMi42NDYxNzUtMS41NTA4ODIuOTY5MjYzLS40NTIzMTguMzIzMTI1LS45MDQ2NjcuNTgxNTg1LTEuMjkyMzkuOTA0NjcyLS4wNjQ3NC4wNjQ3MS0uMTI5MTM5LjA2NDcxLS4xOTM4NjEuMTI5MTQ1LS4zODc3MTkuMjU4NTgzLS44NDAwMzkuNTgxNTcxLTEuMjI3NzU4LjkwNDY5NiAwIDAtLjA2NDczLjA2NDctLjEyOTE0LjEyOTE0Mi0uMzIzMDkuMjU4NTg0LS42NDYyMTIuNTE2OTQ3LS45NjkzMDEuNzc1NDA3LS4xMjkxMzguMDY0NzEtLjI1ODU4MS4xOTM4NTctLjM4NzcyLjI1ODU4My0uMzIzMDkuMjU4NTg2LS42NDYxOC41ODE1ODYtLjk2OTI3MS44NDAwNy0uMDY0NzMuMTI5MTQzLS4xOTM4NTkuMTkzODU4LS4yNTg1ODEuMjU4NTg1LS4zODc3Mi4zODc3MTUtLjc3NTQ0MS43MTA4MDItMS4xNjMxNjEgMS4wOTg1My0uMDY0NzMgMC0uMDY0NzMuMDY0NzEtLjEyOTEzOS4xMjkxMzEtLjM4NzcyLjMyMzEtLjc3NTQzOS43MTA4MTYtMS4xNjMxNTkgMS4wOTg1NDMtLjA2NDczLjA2NDcxLS4wNjQ3My4xMjkxMy0uMTI5MTQuMTI5MTMtLjMyMzA5LjMyMzA4OS0uNjQ2MTguNjQ2MjEzLS45NjkzMDEgMS4wMzM5MDItLjEyOTEzNy4xMjkxNDMtLjMyMzA5LjI1ODU4Ni0uNDUyMzE5LjM4NzcxNS0uMzIzMDkuMzg3NzI4LS43MTA4MTEuNzc1NDQzLTEuMDk4NTMgMS4xNjMxNzEtLjA2NDczLjEyOTEzMi0uMTkzODYuMTkzODU4LS4yNTg1ODIuMzIzMDg3LS41MTY5NTIuNTE2OTgzLS45NjkzMDIgMS4wMzM5MjgtMS40ODYyNTIgMS41NTA4ODUtLjA2NDczLjA2NDcxLS4xMjkxMzguMTI5MTI4LS4xOTM4NTkuMTkzODU4LTEuMDMzOTMxIDEuMDk4NTI5LTIuMTMyNDYzIDIuMTk3MDU5LTMuMjk1NTk0IDMuMTY2MzUyLTEuMTYzMTU5IDEuMDMzOS0yLjM5MDkyMiAyLjAwMzItMy42MTg3MTEgMi44NDMyNS0xLjI5MjM5Mi45MDQ3LTIuNTIwMTUyIDEuNjgwMTEtMy44NzcxNzMgMi40NTU1NS0xLjI5MjM5Mi43MTA3OS0yLjY0OTQxMiAxLjM1NzAxLTQuMDcxMDMyIDEuOTM4Ni0xLjM1NzAyMi41ODE1Ny0yLjc3ODY0MSAxLjA5ODU0LTQuMjAwMjY0IDEuNTUwODUtMi43MTQwNDEuNTgxNTctNS40OTI2ODQgMS42ODAxMS03Ljg4MzYwNSAxLjg3Mzk3LS41MTY5NSAwLTEuMDk4NTMxLjEyOTE1LTEuNjE1NDgyLjE5Mzg1LS41ODE1NzguMTI5MTQtMS4wOTg1MjkuMjU4NTktMS42MTU0NzkuMzg3NzQtLjUxNjk1MS4xOTM4NC0xLjAzMzkzMS4zODc3MS0xLjU1MDg4My41ODE1Ni0uNTE2OTUxLjE5Mzg2LTEuMDMzOTAxLjQ1MjM1LTEuNTUwODUyLjcxMDgzLS40NTIzNS4zMjMwOC0uOTY5Mjk5LjU4MTU3LTEuNDIxNjUxLjkwNDY2LS40NTIzMjIuMzIzMDktLjkwNDY3Mi43MTA4LTEuMjkyMzkzIDEuMDk4NTMtLjQ1MjMxOS4zMjMxMi0uOTA0NjY5Ljc3NTQ1LTEuMjkyMzkgMS4xNjMxNS0uMzg3NzIxLjQ1MjM3LS43NzU0NC44NDAwOC0xLjA5ODUzMDQgMS4yOTIzOS0uMzIzMDkwMS41MTY5NS0uNzEwODEwOC45NjkzMS0uOTY5MzAxNiAxLjQ4NjI3LS4zMjMwOS40NTIzNS0uNjQ2MTc5OS45NjkyOS0uOTA0NjcwNyAxLjQ4NjIyLS4yNTg1ODE1LjU4MTYxLS41MTY5NDk4IDEuMDk4NTUtLjcxMDgxMDcgMS42ODAxNC0uMTkzODU5OS41MTY5NS0uMzg3NzE5OSAxLjA5ODUyLS41ODE1Nzk5IDEuNjgwMTEtLjEyOTEzODIuNTE2OTQtLjI1ODU4MTMgMS4wMzM5LS4zMjMwODk4IDEuNTUwODMgMCAuMDY0OC0uMDY0NzE5LjEyOTE2LS4wNjQ3MTkuMTkzODctLjEyOTEzOTIuNTgxNjEtLjEyOTEzOTIgMS4zNTcwNi0uMTkzODYwOCAxLjc0NDc5LS4wNjQ3MTkuNDUyMzItLjEyOTEzNzMuODQwMDItLjEyOTEzNzMgMS4yOTIzOCAwIC4yNTg1OCAwIC41ODE1NS4wNjQ3MTkuODQwMDMuMDY0NzE5LjQ1MjM2LjEyOTEzNzEuODQwMDcuMjU4NTgxNCAxLjIyNzgyLjEyOTEzODIuMzg3NjYuMjU4NTgxNS43NzUzOS40NTIzMjAxIDEuMTYzMTJ2LjA2NDdjLjE5Mzg1OTkuMzg3NzUuNDUyMzUwNi43NzU0NS43MTA4MTA4IDEuMTYzMTcuMjU4NTgxNC4zODc3Mi41MTY5ODA0Ljc3NTQ0Ljg0MDA3MDQgMS4xNjMxNy4zMjMwODk5LjMyMzA5LjcxMDgxMDkuNzEwNzggMS4wOTg1MzA0IDEuMDMzODkuMzg3NzIwOS4zODc3Mi43NzU0NDIxLjcxMDgxIDEuMjI3NzYxMSAxLjAzMzkgMS41NTA4ODEgMS4zNTcwMyAxLjkzODYwMSAxLjgwOTM4IDMuOTQxODA2IDIuODQzMjcuMzIzMDg3LjE5Mzg3LjY0NjIxLjMyMzExIDEuMDMzOTMuNTE2OTcuMDY0NzMgMCAuMTI5MTM5LjA2NDcuMTkzODU5LjA2NDcgMCAuMTI5MTMgMCAuMTkzODcuMDY0NzMuMzIzMTMuMDY0NzIuNTE2OTYuMTkzODU5IDEuMDMzODkuMzIzMDkgMS41NTA4Ni4xMjkxMzguNTgxNTguMzIzMTIxIDEuMDk4NTUuNTE2OTgxIDEuNTUwODcuMTkzODYuMzg3NzMuMzIzMDkuNzc1NDMuNTE2OTUxIDEuMTYzMTcuMDY0NzIuMTI5MTUuMTI5MTQuMjU4NTguMTkzODYuMzIzMDkuMjU4NTgxLjUxNjk0LjUxNjk1Ljk2OTMyLjc3NTQxIDEuNDIxNjIuMzIzMTIxLjQ1MjMzLjY0NjIxLjkwNDY2Ljk2OTI5OSAxLjM1NzAzLjMyMzA5Mi4zODc3LjcxMDgxMy44NDAwNCAxLjA5ODUzMiAxLjIyNzc1LjM4NzcyMS4zODc3My43NzU0NDIuNzEwODMgMS4yMjc3OTMgMS4wOTg1MiAwIDAgLjA2NDczLjA2NDguMTI5MTM3LjA2NDguMzg3NzIyLjMyMzEyLjc3NTQ0LjY0NjIyIDEuMTYzMTYyLjkwNDY2LjQ1MjMyLjMyMzExLjkwNDY3LjU4MTU3IDEuNDIxNjE5Ljg0MDA3LjQ1MjM1MS4yNTg1OC45NjkzMDIuNTE2OTUgMS40ODYyNTIuNzEwODIuMzg3NzIxLjE5Mzg2Ljg0MDA0LjMyMzExIDEuMjkyMzkyLjQ1MjM0LjA2NDczLjA2NDguMTI5MTM4LjA2NDguMjU4NTgyLjEyOTE2LjI1ODU4MS4wNjQ4LjU4MTU0OC4xMjkxMi44NDAwMzkuMTkzODQtLjE5Mzg1OSAzLjQ4OTQ1LS4yNTg1ODIgNi43ODUwNC4yNTg1ODMgNy45NDgyMi41ODE1NSAxLjI5MjM4IDMuNDI0ODIxLTIuNjQ5NDEgNi4yNjgwOTQtNy4xNzI3Ny0uMzg3NzE5IDQuNDU4NzUtLjY0NjIxMSA5LjY5MjkgMCAxMS4yNDM4MS43MTA4MDkgMS42MTU0NSA0LjU4Nzk4Mi0zLjQyNDg3IDcuOTQ4MjAzLTguOTgyMTUgNDUuODE1MjYyLTEwLjU5NzU3IDg3LjYyNDE4IDIxLjA2NiA5Mi4wMTgyOSA2NS43ODI3My0uODQwMDYtNi45Nzg5Mi05LjQzNDQ2LTEwLjg1NjA4LTEzLjM3NjIzLTkuODg2NzctMS45Mzg2MSA0Ljc4MTgzLTUuMjM0MiAxMC45MjA2OC0xMC41MzI5OSAxNC43MzMyNC40NTIzMy00LjI2NDkuMjU4NTYtOC42NTkwMS0uNjQ2MTktMTIuOTIzOTItMS40MjE2NSA1Ljk0NTAxLTQuMjAwMyAxMS41MDIzMi04LjAxMjg3IDE2LjI4NDE1LTYuMTM4ODU3LjQ1MjMyLTEyLjI3NzcyOS0yLjUyMDE5LTE1LjUwODcyLTYuOTc4OTEtLjI1ODU4Mi0uMTkzODgtLjMyMzA5MS0uNTgxNTktLjUxNjk1MS0uODQwMDYtLjE5Mzg2Mi0uNDUyMzgtLjM4NzcxOS0uOTA0NjctLjUxNjk1MS0xLjM1NzAzLS4xOTM4NTktLjQ1MjMyLS4zMjMwODktLjkwNDY3LS4zODc3MTktMS4zNTY5OS0uMDY0NzMtLjQ1MjM2LS4wNjQ3My0uOTA0NjktLjA2NDczLTEuNDIxNjMgMC0uMzIzMTIgMC0uNjQ2MiAwLS45NjkyOC4wNjQ3My0uNDUyMzguMTkzODYtLjkwNDcxLjMyMzA5MS0xLjM1NzA1LjEyOTEzOC0uNDUyMzIuMjU4NTgtLjkwNDY3LjQ1MjM1LTEuMzU3MDEuMjU4NTgyLS40NTIzMS40NTIzMi0uOTA0NjYuNzc1NDQxLTEuMzU2OTggMS4wOTg1My0zLjEwMTc4IDEuMDk4NTMtNS42MjE5Mi0uOTA0NjctNy4xMDgxNi0uMzg3NzIxLS4yNTg1OC0uNzc1NDQxLS40NTIzNi0xLjIyNzc5MS0uNjQ2MjItLjI1ODU4NC0uMDY0Ny0uNTgxNTgyLS4xOTM4Ni0uODQwMDQtLjI1ODU3LS4xOTM4NjEtLjA2NDctLjMyMzA5LS4xMjkxNi0uNTE2OTUxLS4xOTM4Ny0uNDUyMzUxLS4xMjkxNC0uOTA0NzAyLS4yNTg1OS0xLjM1NzAyMi0uMzIzMDktLjQ1MjM1LS4xMjkxMy0uOTA0NjctLjE5Mzg2LTEuMzU3MDItLjE5Mzg2LS40NTIzMjEtLjA2NDgtLjk2OTMwMy0uMTI5MTQtMS40MjE2MjItLjEyOTE0LS4zMjMwODkgMC0uNjQ2MjEuMDY0Ny0uOTY5MzAxLjA2NDctLjUxNjk0OSAwLS45NjkyOTkuMDY0OC0xLjQyMTYyMS4xOTM4Ni0uNDUyMzUuMDY0OC0uOTA0NjY5LjEyOTEzLTEuMzU3MDE5LjI1ODU2LS40NTIzMjIuMTI5MTUtLjkwNDY3My4yNTg1OS0xLjM1NzAyMy40NTIzOC0uNDUyMzE5LjE5Mzg1LS44NDAwNDEuMzg3NzEtMS4yOTIzODkuNTgxNTctLjM4NzY5LjE5Mzg3LS43NzU0MTIuNDUyMzItMS4yMjc3NjEuNjQ2MTgtMTUuMDU2MzcxIDkuODIyMTctNi4wNzQyMzUgMzIuODI2NzQgNC4yMDAyNjQgMzkuNDgyNTYtMy44NzcxNzUuNzEwODEtNy44MTg5NDcgMS41NTA5LTguOTE3NDc5IDIuMzkwOTItLjA2NDczLjA2NDctLjEyOTEzOC4xMjkxNS0uMTI5MTM4LjEyOTE1IDIuNzc4NjQyIDEuNjgwMDkgNS42ODY1MTYgMy4xMDE3MyA4LjcyMzYxNiA0LjMyOTQ5IDQuMTM1NjY1IDEuMzU3MDIgOC41Mjk3ODYgMi41ODQ3OSAxMC40NjgzODcgMy4xMDE3NnYuMDY0N2M1LjM2MzQyNCAxLjA5ODU0IDEwLjc5MTQ4IDEuNDg2MjYgMTYuMjg0MTM5IDEuMTYzMTcgMjguNjI2NDktMi4wMDMyMSA1Mi4wODM0LTIzLjc4MDAzIDU2LjM0ODMtNTIuNDcxMTEuMTI5MTQuNTgxNTkuMjU4NTggMS4wOTg1Mi4zODc3MiAxLjY4MDEyLjE5Mzg3IDEuMTYzMTIuNDUyMzIgMi4zOTA5LjU4MTU1IDMuNjE4Njd2LjA2NDhjLjEyOTE0LjU4MTU4LjE5Mzg2IDEuMTYzMTUuMjU4NTggMS42ODAxdi4yNTg1OWMuMDY0OC41ODE1Ny4xMjkxNSAxLjE2MzE2LjEyOTE1IDEuNjgwMS4wNjQ3LjcxMDgyLjEyOTE0IDEuNDIxNjIuMTI5MTQgMi4xMzI0N3YxLjAzMzljMCAuMzIzMTIuMDY0Ny43MTA4LjA2NDcgMS4wMzM5MiAwIC4zODc3My0uMDY0Ny43NzU0Mi0uMDY0NyAxLjE2MzE0di45MDQ2N2MwIC40NTIzNi0uMDY0OC44NDAwNi0uMDY0OCAxLjI5MjQgMCAuMjU4NTYgMCAuNTE2OTYtLjA2NDcuODQwMDYgMCAuNDUyMzYtLjA2NDcuOTA0NjYtLjA2NDcgMS40MjE2Mi0uMDY0OC4xOTM4Ni0uMDY0OC4zODc3Mi0uMDY0OC41ODE1OS0uMDY0Ny41MTY5Ni0uMTI5MTQuOTY5My0uMTkzODcgMS40ODYyNiAwIC4xOTM4NyAwIC4zODc3MS0uMDY0Ny41ODE1OS0uMDY0OC42NDYxNy0uMTkzODUgMS4yMjc3Ny0uMjU4NTUgMS44NzM5NHYuMDY0OC4wNjQ3Yy0uMTI5MTQuNTgxNTctLjI1ODYgMS4yMjc3Ni0uMzg3NzUgMS44MDkzM3YuMTkzODdjLS4xMjkxMi41ODE1Ni0uMjU4NTggMS4xNjMxNi0uMzg3NyAxLjc0NDcxIDAgLjA2NDgtLjA2NDcuMTkzODctLjA2NDcuMjU4NTYtLjEyOTE2LjU4MTYtLjI1ODYgMS4xNjMxNy0uNDUyMzIgMS43NDQ3OHYuMTkzODRjLS4xOTM4Ni42NDYxNy0uMzg3NzMgMS4yMjc3Ni0uNTE2OTggMS44MDkzNC0uMDY0Ny4wNjQ3LS4wNjQ3LjEyOTE0LS4wNjQ3LjEyOTE0LS4xOTM4Ny42NDYyMS0uMzg3NzEgMS4yOTIzOS0uNTgxNTUgMS45Mzg1OC0uMjU4NTguNjQ2MjEtLjQ1MjM0IDEuMjI3NzgtLjcxMDgxIDEuODczOTgtLjI1ODU3LjY0NjItLjQ1MjM2IDEuMjkyNC0uNzEwODMgMS44NzM5Ni0uMjU4NTkuNjQ2MjItLjUxNjk3IDEuMjI3OC0uNzc1NDMgMS44NzM5N2gtLjA2NDhjLS4yNTg2LjU4MTU3LS41MTY5OSAxLjIyNzc5LS44NDAxIDEuODA5MzgtLjA2NDcuMTkzODMtLjEyOTEyLjMyMzA5LS4xOTM4NC40NTIzLS4wNjQ3LjA2NDgtLjA2NDcuMTI5MTQtLjEyOTE0LjE5Mzg4LTQuMjAwMjYgOC40NjUxNC0xMC40MDM3NyAxNS44OTYzOS0xOC4xNTgwOSAyMS43MTIxNy0uNTE2OTUuMzIzMDktMS4wMzM5Mi43MTA4Mi0xLjU1MDg2IDEuMDk4NTItLjEyOTE1LjEyOTE1LS4zMjMxMi4xOTM4OC0uNDUyMzUuMzIzMDktLjQ1MjM1LjMyMzEtLjkwNDY4LjY0NjE4LTEuNDIxNjEuOTY5MzFsLjE5Mzg1LjM4NzcyaC4wNjQ3Yy45MDQ2Ni0uMTI5MTMgMS44MDkzNC0uMjU4NTggMi43MTQwMi0uMzg3NzJoLjA2NDdjMS42ODAxMi0uMjU4NTggMy4zNjAyMy0uNTgxNTggNS4wNDAzNS0uOTA0NjcuNDUyMzEtLjA2NDguOTY5My0uMTkzODUgMS40MjE2MS0uMzIzMTIuMzIzMDktLjA2NDguNTgxNTgtLjEyOTEzLjkwNDY3LS4xOTM4Ni40NTIzNS0uMDY0OC45MDQ2OC0uMTkzODYgMS4zNTcwNC0uMjU4NTcuMzg3Ny0uMTI5MTQuNzc1NDMtLjE5Mzg4IDEuMTYzMTQtLjMyMzEgNi40NjE5NS0xLjU1MDg5IDEyLjczMDA3LTMuNjgzMzUgMTguNzM5NjUtNi4yMDM0OS0xMC4yNzQ0OCAxNC4wMjI0My0yNC4wMzg0NyAyNS4zMzA4Ny00MC4xMjg3NCAzMi43NjIxMiA3LjQzMTI3LS41MTY5NiAxNC44NjI1MS0xLjc0NDcyIDIyLjAzNTI4LTMuODEyNTQgMjYuMDQxNy03LjY4OTc3IDQ3Ljk0NzcyLTI1LjIwMTY1IDYxLjA2NTQ5LTQ4Ljc4NzgtMi42NDk0IDE0LjkyNzE0LTguNTk0NCAyOS4xNDM0NC0xNy4zODI2NSA0MS41NTA0MSA2LjI2ODA5LTQuMTM1NjkgMTIuMDE5MjMtOC45MTc1MyAxNy4yNTM0Mi0xNC4zNDU1NyAxNC40NzQ3OC0xNS4xMjA5NyAyMy45NzM4OC0zNC4zMTI5NiAyNy4yMDQ4My01NC45MjY2NSAyLjE5NzA4IDEwLjIwOTkgMi44NDMyOCAyMC43NDI5MyAxLjg3Mzk4IDMxLjE0NjY2IDQ2LjY1NTM0LTY1LjA3MTkyIDMuODc3MTctMTMyLjUzNDc2LTE0LjAyMjQ0LTE1MC4zMDUxNDEtLjA2NDgtLjEyOTEzMy0uMTI5MTQtLjE5Mzg1OC0uMTI5MTQtLjMyMzA4OS0uMDY0OC4wNjQ3LS4wNjQ4LjA2NDctLjA2NDguMTI5MTQ0IDAtLjA2NDcxIDAtLjA2NDcxLS4wNjQ3LS4xMjkxNDQgMCAuNzc1NDQyLS4wNjQ3IDEuNTUwODQ4LS4xMjkxNCAyLjMyNjI5MS0uMTkzODcgMS40ODYyNS0uMzg3NzEgMi45MDc4NzktLjY0NjIxIDQuMzI5NTI5LS4zMjMwOCAxLjQyMTYyLS43MTA4MSAyLjg0MzIyLTEuMDk4NTQgNC4yNjQ4OC0uNDUyMzIgMS4zNTY5OS0uOTY5MjUgMi43Nzg2Mi0xLjU1MDg1IDQuMTM1NjUtLjU4MTU4IDEuMjkyMzctMS4yMjc3OCAyLjY0OTM5LTEuOTM4NTkgMy45NDE4LS43MTA4MiAxLjIyNzc4LTEuNDg2MjUgMi41MjAxNi0yLjMyNjI5IDMuNjgzMy0uODQwMDYgMS4yMjc4LTEuNzQ0NzQgMi4zOTA5My0yLjY0OTQzIDMuNDg5NDQtLjk2OTMxIDEuMTYzMTgtMi4wMDMxOSAyLjE5NzEtMy4wMzcxMiAzLjIzMTAxLS42NDYxOC41ODE1OC0xLjIyNzc1IDEuMDk4NTMtMS44NzM5OCAxLjYxNTQ2LS41MTY5NC40NTIzNi0uOTY5MjcuODQwMDktMS40ODYyNSAxLjI5MjM5LTEuMTYzMTQuOTA0NjgtMi4zMjYyOSAxLjc0NDc0LTMuNjE4NjcgMi41MjAxOS0xLjIyNzc4Ljc3NTQyLTIuNTIwMTQgMS41NTA4Ni0zLjgxMjU0IDIuMTk3MDctMS4zNTcwMi42NDYxOS0yLjcxNDA0IDEuMjI3NzYtNC4wNzEwNCAxLjgwOTM1LTEuMzU3MDIuNTE2OTMtMi43Nzg2NC45NjkyOC00LjIwMDMxIDEuMzU3MDEtMS40MjE2MS4zODc3LTIuOTA3ODUuNzEwODEtNC4zMjk0OS45NjkyOC0xLjQ4NjIzLjI1ODU4LTIuOTcyNDkuMzg3NzEtNC4zOTQxMi41MTY5Ny0xLjAzMzkyLjA2NDctMi4wNjc4Mi4xMjkxNS0zLjEwMTc1LjEyOTE1LTEuNDg2MjYgMC0yLjk3MjQ4LS4xMjkxNS00LjM5NDEyLS4yNTg1OC0xLjQ4NjI0LS4xMjkxNC0yLjk3MjUxLS4zMjMxNC00LjM5NDEzLS42NDYyMy0xLjQ4NjI1LS4yNTg1OC0yLjkwNzktLjY0NjIxLTQuMzI5NTMtMS4wOTg1MWgtLjA2NDdjMS40MjE2My0uMTI5MTQgMi44NDMyNy0uMjU4NiA0LjI2NDkyLS41MTY5NyAxLjQ4NjIyLS4yNTg1OCAyLjkwNzg1LS41ODE1NiA0LjMyOTUtLjk2OTMxIDEuNDIxNjItLjM4NzcxIDIuODQzMjUtLjg0MDA2IDQuMjAwMjYtMS4zNTcgMS40MjE2Mi0uNTE2OTYgMi43Nzg2NS0xLjE2MzEzIDQuMDcxMDUtMS44MDkzNiAxLjM1Ny0uNjQ2MjEgMi41ODQ3OC0xLjM1NyAzLjg3NzE2LTIuMTMyNDQgMS4yMjc3Ni0uODQwMDUgMi40NTU1NC0xLjY4MDA5IDMuNjE4NjktMi41ODQ3OSAxLjE2MzE2LS45MDQ2NiAyLjI2MTY3LTEuODczOTQgMy4yOTU2Mi0yLjkwNzg2IDEuMDk4NTMtLjk2OTMyIDIuMDY3ODEtMi4wNjc4NCAzLjAzNzExLTMuMTY2MzguOTY5MjctMS4xNjMxMiAxLjg3Mzk2LTIuMzI2MjggMi43MTQwMi0zLjQ4OTQ0LjEyOTE1LS4xOTM4Ny4yNTg1OS0uNDUyMzIuMzg3NzQtLjY0NjE5LjY0NjE3LTEuMDMzOTIgMS4yOTIzNS0yLjA2NzgzIDEuODczOTItMy4xMDE3Ni43MTA4My0xLjI5MjM5IDEuMzU3MDQtMi41ODQ3OSAxLjkzODYtMy45NDE3Ny41ODE1OS0xLjM1NzAyIDEuMDk4NTUtMi43MTQwNSAxLjU1MDg5LTQuMTM1NjYuNDUyMzItMS4zNTcwMy43NzU0Mi0yLjc3ODY0IDEuMDk4NTMtNC4yMDAyNTguMjU4NTktMS40ODYyNTguNTE2OTQtMi45MDc5MS42NDYxOS00LjMyOTUyOC4xMjkxNC0xLjQ4NjI0NC4yNTg1Ny0yLjk3MjUwMy4yNTg1Ny00LjM5NDExOSAwLTEuMDMzOTI4LS4wNjQ4LTIuMDY3ODMtLjEyOTEyLTMuMTAxNzMzLS4xMjkxNS0xLjQ4NjI0Ni0uMzIzMTEtMi45MDc5LS41MTY5Ni00LjMyOTUxOS0uMjU4NTktMS40ODYyNTctLjU4MTU3LTIuOTA3ODczLS45NjkzMS00LjMyOTUyOS0uNDUyMzEtMS4zNTY5OTEtLjkwNDY3LTIuNzc4NjM0LTEuNDIxNjEtNC4xMzU2MjMtLjUxNjk5LTEuMzU3MDI4LTEuMTYzMTUtMi43MTQwNDItMS44MDkzOC00LjAwNjQ0My0uNzEwODEtMS4yOTIzODgtMS40MjE2MS0yLjU4NDc3Ni0yLjE5NzA0LTMuODEyNTM2LS44NDAwNS0xLjIyNzc2LTEuNjgwMTMtMi4zOTA5MTctMi41ODQ4LTMuNTU0MDg3LS45NjkyNy0xLjA5ODUzMS0xLjkzODU3LTIuMTk3MDYtMi45NzI1MS0zLjI5NTU5LS41MTY5NC0uNTE2OTQ3LTEuMDk4NTMtMS4wOTg1MzItMS42ODAxLTEuNjE1NDc2LTIuOTA3ODctMi4yNjE3LTUuOTQ1LTQuMzk0MTU5LTguOTgyMS02LjMzMjczMi0uNDUyMzMtLjI1ODU3NC0uODQwMDUtLjQ1MjM0Mi0xLjI5MjQtLjY0NjIxMi0yLjEzMjQ2LTEuMzU2OTkyLTQuMTM1NjYtMi4wNjc4MzEtNi4xMzg4NS0yLjcxNDAwN3oiLz48L3N2Zz4=" parent="5G_yt-iN49mRIbdVEVWk-1" vertex="1">
          <mxGeometry x="-1233.9999999999998" y="-431.07" width="40.26" height="38.89" as="geometry" />
        </mxCell>
        <mxCell id="2x0kGgbs7OKSk3ZMjQRD-31" style="rounded=0;orthogonalLoop=1;jettySize=auto;html=1;exitX=1;exitY=0.75;exitDx=0;exitDy=0;entryX=0.75;entryY=0;entryDx=0;entryDy=0;dashed=1;edgeStyle=orthogonalEdgeStyle;" parent="5G_yt-iN49mRIbdVEVWk-1" source="2x0kGgbs7OKSk3ZMjQRD-25" target="2x0kGgbs7OKSk3ZMjQRD-18" edge="1">
          <mxGeometry relative="1" as="geometry">
            <Array as="points">
              <mxPoint x="-1070" y="-401" />
              <mxPoint x="-1070" y="-400" />
              <mxPoint x="-1067" y="-400" />
            </Array>
          </mxGeometry>
        </mxCell>
        <mxCell id="2x0kGgbs7OKSk3ZMjQRD-30" style="edgeStyle=orthogonalEdgeStyle;rounded=0;orthogonalLoop=1;jettySize=auto;html=1;exitX=0;exitY=0.75;exitDx=0;exitDy=0;entryX=0;entryY=0;entryDx=0;entryDy=0;dashed=1;" parent="5G_yt-iN49mRIbdVEVWk-1" source="2x0kGgbs7OKSk3ZMjQRD-27" target="2x0kGgbs7OKSk3ZMjQRD-18" edge="1">
          <mxGeometry relative="1" as="geometry">
            <Array as="points">
              <mxPoint x="-1270" y="-402" />
            </Array>
          </mxGeometry>
        </mxCell>
        <mxCell id="2x0kGgbs7OKSk3ZMjQRD-51" value="&lt;font color=&quot;#999999&quot; style=&quot;font-size: 8px;&quot;&gt;Default network&lt;/font&gt;" style="text;html=1;strokeColor=none;fillColor=none;align=center;verticalAlign=middle;whiteSpace=wrap;rounded=0;" parent="5G_yt-iN49mRIbdVEVWk-1" vertex="1">
          <mxGeometry x="-1239" y="-440" width="60" height="10" as="geometry" />
        </mxCell>
        <mxCell id="CYGOTzT2Un6UXpQJSBjx-16" style="edgeStyle=orthogonalEdgeStyle;rounded=0;orthogonalLoop=1;jettySize=auto;html=1;exitX=0;exitY=0.5;exitDx=0;exitDy=0;entryX=1.01;entryY=0.385;entryDx=0;entryDy=0;entryPerimeter=0;dashed=1;" parent="5G_yt-iN49mRIbdVEVWk-1" source="2x0kGgbs7OKSk3ZMjQRD-27" target="CYGOTzT2Un6UXpQJSBjx-8" edge="1">
          <mxGeometry relative="1" as="geometry">
            <Array as="points">
              <mxPoint x="-1390" y="-412" />
              <mxPoint x="-1390" y="-505" />
            </Array>
          </mxGeometry>
        </mxCell>
        <mxCell id="2x0kGgbs7OKSk3ZMjQRD-54" value="theuserindo@uniandes.edu.co" style="shape=image;verticalLabelPosition=bottom;verticalAlign=top;imageAspect=0;aspect=fixed;image=data:image/svg+xml,PHN2ZyB4bWxucz0iaHR0cDovL3d3dy53My5vcmcvMjAwMC9zdmciIHZpZXdCb3g9IjAgMCA0MiA0MiI+PGRlZnM+PHN0eWxlPi5jbHMtMSwuY2xzLTN7ZmlsbDpub25lO30uY2xzLTF7c3Ryb2tlOiMwMDA7c3Ryb2tlLW1pdGVybGltaXQ6MTA7fS5jbHMtMntmaWxsOiNmM2Y1Zjk7fS5jbHMtM3tzdHJva2U6IzAwNjlmZjtzdHJva2Utd2lkdGg6MS40OXB4O308L3N0eWxlPjwvZGVmcz48dGl0bGU+ZGlnaXRhbG9jZWFuLXByb2R1Y3QtaWNvbi11c2VyPC90aXRsZT48ZyBkYXRhLW5hbWU9IkxheWVyIDIiIGlkPSJMYXllcl8yIj48cmVjdCBoZWlnaHQ9IjcyMCIgd2lkdGg9IjEyODAiIHk9Ii01ODciIHg9Ii01MTAiIGNsYXNzPSJjbHMtMSIvPjwvZz48ZyBkYXRhLW5hbWU9IkxheWVyIDEiIGlkPSJMYXllcl8xIj48Y2lyY2xlIHI9IjIwLjc5IiBjeT0iMjEiIGN4PSIyMSIgY2xhc3M9ImNscy0yIi8+PHBhdGggZD0iTTMxLjgyLDMxYTEwLjM5LDEwLjM5LDAsMCwwLTEwLTEwLjc2LDguNDIsOC40MiwwLDAsMC0uODcsMCwxMC40LDEwLjQsMCwwLDAtMTAuNzYsMTBjMCwuMjcsMCwuNTUsMCwuODIiIGNsYXNzPSJjbHMtMyIvPjxjaXJjbGUgcj0iNS40OSIgY3k9IjE0LjcyIiBjeD0iMjAuOTYiIGNsYXNzPSJjbHMtMyIvPjwvZz48L3N2Zz4=" parent="5G_yt-iN49mRIbdVEVWk-1" vertex="1">
          <mxGeometry x="-702.06" y="-180" width="42" height="42" as="geometry" />
        </mxCell>
        <mxCell id="2x0kGgbs7OKSk3ZMjQRD-56" value="" style="rounded=0;whiteSpace=wrap;html=1;fillColor=#fff2cc;strokeColor=none;" parent="5G_yt-iN49mRIbdVEVWk-1" vertex="1">
          <mxGeometry x="-540" y="-229.18" width="110" height="110.82" as="geometry" />
        </mxCell>
        <mxCell id="2x0kGgbs7OKSk3ZMjQRD-55" style="edgeStyle=orthogonalEdgeStyle;rounded=0;orthogonalLoop=1;jettySize=auto;html=1;dashed=1;exitX=0;exitY=0.5;exitDx=0;exitDy=0;" parent="5G_yt-iN49mRIbdVEVWk-1" source="60riGedRtRJVRlvMksFJ-0" target="2x0kGgbs7OKSk3ZMjQRD-54" edge="1">
          <mxGeometry relative="1" as="geometry">
            <Array as="points">
              <mxPoint x="-610" y="-160" />
              <mxPoint x="-610" y="-160" />
            </Array>
          </mxGeometry>
        </mxCell>
        <mxCell id="CYGOTzT2Un6UXpQJSBjx-1" value="" style="shape=image;verticalLabelPosition=bottom;verticalAlign=top;imageAspect=0;aspect=fixed;image=data:image/svg+xml,PHN2ZyB4bWxucz0iaHR0cDovL3d3dy53My5vcmcvMjAwMC9zdmciIHZpZXdCb3g9IjAgMCA0MiA0MiI+PGRlZnM+PHN0eWxlPi5jbHMtMSwuY2xzLTN7ZmlsbDpub25lO3N0cm9rZS1taXRlcmxpbWl0OjEwO30uY2xzLTF7c3Ryb2tlOiMwMDA7fS5jbHMtMntmaWxsOiMwMDY5ZmY7fS5jbHMtM3tzdHJva2U6I2ZmZjtzdHJva2Utd2lkdGg6MS40OXB4O308L3N0eWxlPjwvZGVmcz48dGl0bGU+ZGlnaXRhbG9jZWFuLXByb2R1Y3QtaWNvbi10ZXJyYWZvcm0tcHJvdmlkZXI8L3RpdGxlPjxnIGRhdGEtbmFtZT0iTGF5ZXIgMiIgaWQ9IkxheWVyXzIiPjxyZWN0IGhlaWdodD0iNzIwIiB3aWR0aD0iMTI4MCIgeT0iLTM5NCIgeD0iLTk3OC44MiIgY2xhc3M9ImNscy0xIi8+PC9nPjxnIGRhdGEtbmFtZT0iTGF5ZXIgMSIgaWQ9IkxheWVyXzEiPjxjaXJjbGUgcj0iMjAuNzkiIGN5PSIyMSIgY3g9IjIxIiBjbGFzcz0iY2xzLTIiLz48cGF0aCBkPSJNMTAuODksMTcuNTNsNC42MSwyLjY0VjE0LjkzbC00LjYxLTIuNjRaIiBjbGFzcz0iY2xzLTMiLz48cGF0aCBkPSJNMTguNjMsMjEuOTRsNC42MiwyLjY1VjE5LjM0TDE4LjYzLDE2LjdaIiBjbGFzcz0iY2xzLTMiLz48cGF0aCBkPSJNMjYuNSwxOS4zNHY1LjI1bDQuNjEtMi42NVYxNi43WiIgY2xhc3M9ImNscy0zIi8+PHBhdGggZD0iTTE4LjYzLDMxbDQuNjIsMi42NFYyOC40M2wtNC42LTIuNjJaIiBjbGFzcz0iY2xzLTMiLz48L2c+PC9zdmc+" parent="5G_yt-iN49mRIbdVEVWk-1" vertex="1">
          <mxGeometry x="-481.5" y="-181.00000000000023" width="42" height="42" as="geometry" />
        </mxCell>
        <mxCell id="2x0kGgbs7OKSk3ZMjQRD-58" value="&lt;b style=&quot;border-color: var(--border-color);&quot;&gt;&lt;font color=&quot;#999999&quot; style=&quot;font-size: 8px;&quot;&gt;Local Repository&lt;br&gt;juanmanuelgg/BackVynils&lt;br&gt;&lt;/font&gt;&lt;/b&gt;" style="text;html=1;strokeColor=none;fillColor=none;align=left;verticalAlign=middle;whiteSpace=wrap;rounded=0;" parent="5G_yt-iN49mRIbdVEVWk-1" vertex="1">
          <mxGeometry x="-540" y="-229" width="110" height="29.18" as="geometry" />
        </mxCell>
        <mxCell id="2x0kGgbs7OKSk3ZMjQRD-57" value="" style="dashed=0;outlineConnect=0;html=1;align=center;labelPosition=center;verticalLabelPosition=bottom;verticalAlign=top;shape=mxgraph.weblogos.github;aspect=fixed;" parent="5G_yt-iN49mRIbdVEVWk-1" vertex="1">
          <mxGeometry x="-450" y="-229" width="18.77" height="18.77" as="geometry" />
        </mxCell>
        <mxCell id="CYGOTzT2Un6UXpQJSBjx-48" style="edgeStyle=orthogonalEdgeStyle;rounded=0;orthogonalLoop=1;jettySize=auto;html=1;entryX=0.5;entryY=1;entryDx=0;entryDy=0;dashed=1;exitX=0;exitY=0.5;exitDx=0;exitDy=0;exitPerimeter=0;" parent="5G_yt-iN49mRIbdVEVWk-1" source="CYGOTzT2Un6UXpQJSBjx-39" target="2x0kGgbs7OKSk3ZMjQRD-27" edge="1">
          <mxGeometry relative="1" as="geometry">
            <mxPoint x="-1000" y="-60" as="sourcePoint" />
          </mxGeometry>
        </mxCell>
        <mxCell id="2x0kGgbs7OKSk3ZMjQRD-60" value="" style="shape=datastore;whiteSpace=wrap;html=1;aspect=fixed;strokeWidth=3;shadow=1;" parent="5G_yt-iN49mRIbdVEVWk-1" vertex="1">
          <mxGeometry x="-1569.04" y="-317.96000000000004" width="60.86" height="60.86" as="geometry" />
        </mxCell>
        <mxCell id="2x0kGgbs7OKSk3ZMjQRD-61" value="Code" style="text;html=1;strokeColor=none;fillColor=none;align=center;verticalAlign=middle;whiteSpace=wrap;rounded=0;" parent="5G_yt-iN49mRIbdVEVWk-1" vertex="1">
          <mxGeometry x="-1568.18" y="-289.59000000000015" width="60" height="30" as="geometry" />
        </mxCell>
        <mxCell id="CYGOTzT2Un6UXpQJSBjx-23" value="app-debug.apk&amp;nbsp;v1.0.1" style="text;html=1;strokeColor=none;fillColor=none;align=center;verticalAlign=middle;whiteSpace=wrap;rounded=0;" parent="5G_yt-iN49mRIbdVEVWk-1" vertex="1">
          <mxGeometry x="-1604.0199999999998" y="-206.92000000000002" width="133.05" height="13.18" as="geometry" />
        </mxCell>
        <mxCell id="2x0kGgbs7OKSk3ZMjQRD-53" style="edgeStyle=orthogonalEdgeStyle;rounded=0;orthogonalLoop=1;jettySize=auto;html=1;entryX=1;entryY=0;entryDx=0;entryDy=0;dashed=1;" parent="5G_yt-iN49mRIbdVEVWk-1" source="2x0kGgbs7OKSk3ZMjQRD-46" target="2x0kGgbs7OKSk3ZMjQRD-18" edge="1">
          <mxGeometry relative="1" as="geometry" />
        </mxCell>
        <mxCell id="2x0kGgbs7OKSk3ZMjQRD-65" value="External SaaS&lt;br&gt;Providers&lt;br&gt;&lt;font color=&quot;#9e9e9e&quot;&gt;Certificate Authority&lt;/font&gt;" style="sketch=0;points=[[0,0,0],[0.25,0,0],[0.5,0,0],[0.75,0,0],[1,0,0],[1,0.25,0],[1,0.5,0],[1,0.75,0],[1,1,0],[0.75,1,0],[0.5,1,0],[0.25,1,0],[0,1,0],[0,0.75,0],[0,0.5,0],[0,0.25,0]];rounded=1;absoluteArcSize=1;arcSize=2;html=1;strokeColor=#666666;shadow=0;dashed=0;fontSize=12;fontColor=#333333;align=left;verticalAlign=top;spacing=10;spacingTop=-4;whiteSpace=wrap;fillColor=#f5f5f5;" parent="5G_yt-iN49mRIbdVEVWk-1" vertex="1">
          <mxGeometry x="-1680" y="-1040" width="280" height="140" as="geometry" />
        </mxCell>
        <mxCell id="2x0kGgbs7OKSk3ZMjQRD-66" value="" style="shape=image;verticalLabelPosition=bottom;verticalAlign=top;imageAspect=0;aspect=fixed;image=data:image/svg+xml,PHN2ZyB4bWxuczp4bGluaz0iaHR0cDovL3d3dy53My5vcmcvMTk5OS94bGluayIgeG1sbnM9Imh0dHA6Ly93d3cudzMub3JnLzIwMDAvc3ZnIiBwcmVzZXJ2ZUFzcGVjdFJhdGlvPSJ4TWlkWU1pZCIgdmVyc2lvbj0iMS4xIiB2aWV3Qm94PSIwLjM5MTAwNjUyOTMzMTIwNzMgMC4zMTA4NjIzMzI1ODI0NzM3NSAyNTUuMzczNDI4MzQ0NzI2NTYgMTk4LjMzMDE2OTY3NzczNDM4IiBoZWlnaHQ9IjYxOS43ODE3ODAyNDI5MTk5IiB3aWR0aD0iNzk4LjA0MTk2MzU3NzI3MDUiPiYjeGE7CTxnPiYjeGE7CQk8ZyB0cmFuc2Zvcm09InRyYW5zbGF0ZSgxMzguODgwMTgyLCAwLjAwMDAwMCkiPiYjeGE7CQkJPHBhdGggZmlsbD0iI0ZGQTQwMCIgZD0iTTg0LjU1NDU1ODQsNjYuNjc5OTczNCBMNjkuNzg4NTk2OSw2Ni42Nzk5NzM0IEw2OS43ODg1OTY5LDU5LjA2Mzg0NTkgQzY5Ljc4ODU5NjksNTMuMDAyMDMwMiA2NC44MTQ3OTk0LDQ4LjAyODIzMjYgNTguNzUyOTgzNiw0OC4wMjgyMzI2IEM1Mi42OTExNjc4LDQ4LjAyODIzMjYgNDcuNzE3MzcwMyw1My4wMDIwMzAyIDQ3LjcxNzM3MDMsNTkuMDYzODQ1OSBMNDcuNzE3MzcwMyw2Ni42Nzk5NzM0IEwzMi45NTE0MDg4LDY2LjY3OTk3MzQgTDMyLjk1MTQwODgsNTkuMDYzODQ1OSBDMzIuOTUxNDA4OCw0NC43NjQxNzggNDQuNjA4NzQ2OCwzMy4yNjIyNzExIDU4Ljc1Mjk4MzYsMzMuMjYyMjcxMSBDNzMuMDUyNjUxNiwzMy4yNjIyNzExIDg0LjU1NDU1ODQsNDQuOTE5NjA5MSA4NC41NTQ1NTg0LDU5LjA2Mzg0NTkgTDg0LjU1NDU1ODQsNjYuNjc5OTczNCBaIj4mI3hhOyYjeGE7PC9wYXRoPiYjeGE7CQkJPHBhdGggZmlsbD0iIzAwM0E3MCIgZD0iTTkwLjYxNjM3NDIsNjYuNjc5OTczNCBMMjYuODg5NTkzLDY2LjY3OTk3MzQgQzI0LjA5MTgzMTksNjYuNjc5OTczNCAyMS45MTU3OTU1LDY4Ljg1NjAwOTkgMjEuOTE1Nzk1NSw3MS42NTM3NzEgTDIxLjkxNTc5NTUsMTE4Ljc0OTQxNyBDMjEuOTE1Nzk1NSwxMjEuNTQ3MTc4IDI0LjA5MTgzMTksMTIzLjcyMzIxNCAyNi44ODk1OTMsMTIzLjcyMzIxNCBMOTAuNjE2Mzc0MiwxMjMuNzIzMjE0IEM5My40MTQxMzUzLDEyMy43MjMyMTQgOTUuNTkwMTcxNywxMjEuNTQ3MTc4IDk1LjU5MDE3MTcsMTE4Ljc0OTQxNyBMOTUuNTkwMTcxNyw3MS42NTM3NzEgQzk1LjQzNDc0MDUsNjguODU2MDA5OSA5My4yNTg3MDQxLDY2LjY3OTk3MzQgOTAuNjE2Mzc0Miw2Ni42Nzk5NzM0IFogTTYxLjg2MTYwNzEsOTcuNjEwNzc3IEw2MS44NjE2MDcxLDEwMy45ODM0NTUgQzYxLjg2MTYwNzEsMTA1LjY5MzE5OCA2MC40NjI3MjY1LDEwNy4yNDc1MSA1OC41OTc1NTI0LDEwNy4yNDc1MSBDNTYuODg3ODA5NSwxMDcuMjQ3NTEgNTUuMzMzNDk3OCwxMDUuODQ4NjI5IDU1LjMzMzQ5NzgsMTAzLjk4MzQ1NSBMNTUuMzMzNDk3OCw5Ny42MTA3NzcgQzUzLjMxMjg5MjUsOTYuNTIyNzU4OCA1Mi4wNjk0NDMxLDk0LjM0NjcyMjMgNTIuMDY5NDQzMSw5MS44NTk4MjM1IEM1Mi4wNjk0NDMxLDg4LjI4NDkwNjYgNTUuMDIyNjM1NCw4NS4zMzE3MTQzIDU4LjU5NzU1MjQsODUuMzMxNzE0MyBDNjIuMTcyNDY5NCw4NS4zMzE3MTQzIDY1LjEyNTY2MTcsODguMjg0OTA2NiA2NS4xMjU2NjE3LDkxLjg1OTgyMzUgQzY1LjI4MTA5MjksOTQuMzQ2NzIyMyA2My44ODIyMTIzLDk2LjUyMjc1ODggNjEuODYxNjA3MSw5Ny42MTA3NzcgWiI+JiN4YTsmI3hhOzwvcGF0aD4mI3hhOwkJCTxwYXRoIGZpbGw9IiNGRkE0MDAiIGQ9Ik0yMC4zNjE0ODM3LDU5LjY4NTU3MDYgTDQuOTczNzk3NTUsNTkuNjg1NTcwNiBDMi40ODY4OTg3OCw1OS42ODU1NzA2IDAuNDY2MjkzNTIxLDU3LjY2NDk2NTQgMC40NjYyOTM1MjEsNTUuMTc4MDY2NiBDMC40NjYyOTM1MjEsNTIuNjkxMTY3OCAyLjQ4Njg5ODc4LDUwLjY3MDU2MjYgNC45NzM3OTc1NSw1MC42NzA1NjI2IEwyMC4zNjE0ODM3LDUwLjY3MDU2MjYgQzIyLjg0ODM4MjUsNTAuNjcwNTYyNiAyNC44Njg5ODc4LDUyLjY5MTE2NzggMjQuODY4OTg3OCw1NS4xNzgwNjY2IEMyNC44Njg5ODc4LDU3LjY2NDk2NTQgMjIuODQ4MzgyNSw1OS42ODU1NzA2IDIwLjM2MTQ4MzcsNTkuNjg1NTcwNiBaIj4mI3hhOyYjeGE7PC9wYXRoPiYjeGE7CQkJPHBhdGggZmlsbD0iI0ZGQTQwMCIgZD0iTTMxLjI0MTY2NTksMzUuNDM4MzA3NiBDMzAuMzA5MDc4OCwzNS40MzgzMDc2IDI5LjIyMTA2MDYsMzUuMTI3NDQ1MiAyOC40NDM5MDQ4LDM0LjM1MDI4OTMgTDE2LjMyMDI3MzIsMjQuNDAyNjk0MiBDMTQuNDU1MDk5MSwyMi44NDgzODI1IDE0LjE0NDIzNjgsMjAuMDUwNjIxNCAxNS42OTg1NDg1LDE4LjAzMDAxNjEgQzE3LjI1Mjg2MDMsMTYuMTY0ODQyIDIwLjA1MDYyMTQsMTUuODUzOTc5NyAyMi4wNzEyMjY2LDE3LjQwODI5MTQgTDM0LjE5NDg1ODIsMjcuMzU1ODg2NSBDMzYuMDYwMDMyMywyOC45MTAxOTgzIDM2LjM3MDg5NDYsMzEuNzA3OTU5NCAzNC44MTY1ODI5LDMzLjcyODU2NDcgQzMzLjcyODU2NDcsMzQuODE2NTgyOSAzMi40ODUxMTUzLDM1LjQzODMwNzYgMzEuMjQxNjY1OSwzNS40MzgzMDc2IFoiPiYjeGE7JiN4YTs8L3BhdGg+JiN4YTsJCQk8cGF0aCBmaWxsPSIjRkZBNDAwIiBkPSJNNTguNzUyOTgzNiwyNC44Njg5ODc4IEM1Ni4yNjYwODQ4LDI0Ljg2ODk4NzggNTQuMjQ1NDc5NiwyMi44NDgzODI1IDU0LjI0NTQ3OTYsMjAuMzYxNDgzNyBMNTQuMjQ1NDc5Niw0LjgxODM2NjM4IEM1NC4yNDU0Nzk2LDIuMzMxNDY3NiA1Ni4yNjYwODQ4LDAuMzEwODYyMzQ3IDU4Ljc1Mjk4MzYsMC4zMTA4NjIzNDcgQzYxLjIzOTg4MjQsMC4zMTA4NjIzNDcgNjMuMjYwNDg3NiwyLjMzMTQ2NzYgNjMuMjYwNDg3Niw0LjgxODM2NjM4IEw2My4yNjA0ODc2LDIwLjM2MTQ4MzcgQzYzLjI2MDQ4NzYsMjIuODQ4MzgyNSA2MS4yMzk4ODI0LDI0Ljg2ODk4NzggNTguNzUyOTgzNiwyNC44Njg5ODc4IFoiPiYjeGE7JiN4YTs8L3BhdGg+JiN4YTsJCQk8cGF0aCBmaWxsPSIjRkZBNDAwIiBkPSJNODYuMTA4ODcwMSwzNS40MzgzMDc2IEM4NC44NjU0MjA3LDM1LjQzODMwNzYgODMuNDY2NTQwMiwzNC44MTY1ODI5IDgyLjY4OTM4NDMsMzMuNzI4NTY0NyBDODEuMTM1MDcyNiwzMS44NjMzOTA2IDgxLjQ0NTkzNDksMjguOTEwMTk4MyA4My4zMTExMDksMjcuMzU1ODg2NSBMOTUuNDM0NzQwNSwxNy40MDgyOTE0IEM5Ny4yOTk5MTQ2LDE1Ljg1Mzk3OTcgMTAwLjI1MzEwNywxNi4xNjQ4NDIgMTAxLjgwNzQxOSwxOC4wMzAwMTYxIEMxMDMuMzYxNzMsMTkuODk1MTkwMiAxMDMuMDUwODY4LDIyLjg0ODM4MjUgMTAxLjE4NTY5NCwyNC40MDI2OTQyIEw4OS4wNjIwNjI0LDM0LjM1MDI4OTMgQzg4LjEyOTQ3NTQsMzUuMTI3NDQ1MiA4Ny4xOTY4ODgzLDM1LjQzODMwNzYgODYuMTA4ODcwMSwzNS40MzgzMDc2IFoiPiYjeGE7JiN4YTs8L3BhdGg+JiN4YTsJCQk8cGF0aCBmaWxsPSIjRkZBNDAwIiBkPSJNMTEyLjM3NjczOCw1OS42ODU1NzA2IEw5Ni44MzM2MjExLDU5LjY4NTU3MDYgQzk0LjM0NjcyMjMsNTkuNjg1NTcwNiA5Mi4zMjYxMTcxLDU3LjY2NDk2NTQgOTIuMzI2MTE3MSw1NS4xNzgwNjY2IEM5Mi4zMjYxMTcxLDUyLjY5MTE2NzggOTQuMzQ2NzIyMyw1MC42NzA1NjI2IDk2LjgzMzYyMTEsNTAuNjcwNTYyNiBMMTEyLjM3NjczOCw1MC42NzA1NjI2IEMxMTQuODYzNjM3LDUwLjY3MDU2MjYgMTE2Ljg4NDI0Miw1Mi42OTExNjc4IDExNi44ODQyNDIsNTUuMTc4MDY2NiBDMTE2Ljg4NDI0Miw1Ny42NjQ5NjU0IDExNC44NjM2MzcsNTkuNjg1NTcwNiAxMTIuMzc2NzM4LDU5LjY4NTU3MDYgWiI+JiN4YTsmI3hhOzwvcGF0aD4mI3hhOwkJPC9nPiYjeGE7CQk8cGF0aCBmaWxsPSIjMDAzQTcwIiBkPSJNMC4zOTEwMDY1NDYsMTIzLjEwMTQ4OSBMMC4zOTEwMDY1NDYsNzIuODk3MjIwNCBMMTIuNTE0NjM4MSw3Mi44OTcyMjA0IEwxMi41MTQ2MzgxLDExMi41MzIxNyBMMzEuOTQzNTM0OCwxMTIuNTMyMTcgTDMxLjk0MzUzNDgsMTIzLjEwMTQ4OSBMMC4zOTEwMDY1NDYsMTIzLjEwMTQ4OSBaIE03Mi4wNDQ3Nzc1LDEwNS44NDg2MjkgTDcyLjA0NDc3NzUsMTA3LjI0NzUxIEw3Mi4wNDQ3Nzc1LDEwOC42NDYzOSBMNDYuMzk4NjMzOSwxMDguNjQ2MzkgQzQ2LjU1NDA2NTEsMTA5LjU3ODk3NyA0Ni44NjQ5Mjc0LDExMC41MTE1NjQgNDcuMzMxMjIwOSwxMTEuMjg4NzIgQzQ3Ljc5NzUxNDUsMTEyLjA2NTg3NiA0OC40MTkyMzkyLDExMi44NDMwMzIgNDkuMTk2Mzk1LDExMy4zMDkzMjUgQzQ5Ljk3MzU1MDksMTEzLjkzMTA1IDUwLjkwNjEzNzksMTE0LjM5NzM0NCA1MS44Mzg3MjUsMTE0LjcwODIwNiBDNTIuNzcxMzEyLDExNS4wMTkwNjggNTMuODU5MzMwMiwxMTUuMTc0NSA1NC43OTE5MTczLDExNS4xNzQ1IEM1Ni42NTcwOTE0LDExNS4xNzQ1IDU4LjIxMTQwMzEsMTE0Ljg2MzYzNyA1OS40NTQ4NTI1LDExNC4wODY0ODEgQzYwLjY5ODMwMTksMTEzLjQ2NDc1NyA2MS43ODYzMjAxLDExMi41MzIxNyA2Mi41NjM0NzYsMTExLjQ0NDE1MSBMNzAuNjQ1ODk3LDExNi41NzMzOCBDNjguOTM2MTU0MSwxMTkuMDYwMjc5IDY2Ljc2MDExNzYsMTIwLjc3MDAyMiA2NC4xMTc3ODc3LDEyMi4xNjg5MDIgQzYxLjQ3NTQ1NzcsMTIzLjQxMjM1MiA1OC4yMTE0MDMxLDEyNC4xODk1MDggNTQuNjM2NDg2MSwxMjQuMTg5NTA4IEM1MS45OTQxNTYyLDEyNC4xODk1MDggNDkuNTA3MjU3NCwxMjMuNzIzMjE0IDQ3LjE3NTc4OTgsMTIyLjk0NjA1OCBDNDQuODQ0MzIyMiwxMjIuMTY4OTAyIDQyLjgyMzcxNjksMTIwLjkyNTQ1MyA0MC45NTg1NDI4LDExOS4zNzExNDEgQzM5LjI0ODc5OTksMTE3LjgxNjgzIDM3Ljg0OTkxOTQsMTE1Ljc5NjIyNCAzNi43NjE5MDExLDExMy40NjQ3NTcgQzM1LjY3Mzg4MjksMTExLjEzMzI4OSAzNS4yMDc1ODk0LDEwOC40OTA5NTkgMzUuMjA3NTg5NCwxMDUuNTM3NzY3IEMzNS4yMDc1ODk0LDEwMi41ODQ1NzUgMzUuNjczODgyOSwxMDAuMDk3Njc2IDM2Ljc2MTkwMTEsOTcuNzY2MjA4MSBDMzcuNjk0NDg4Miw5NS40MzQ3NDA1IDM5LjA5MzM2ODgsOTMuNDE0MTM1MyA0MC44MDMxMTE3LDkxLjg1OTgyMzUgQzQyLjUxMjg1NDYsOTAuMzA1NTExOCA0NC41MzM0NTk4LDg4LjkwNjYzMTIgNDYuODY0OTI3NCw4OC4xMjk0NzU0IEM0OS4xOTYzOTUsODcuMTk2ODg4MyA1MS42ODMyOTM4LDg2LjczMDU5NDggNTQuMzI1NjIzOCw4Ni43MzA1OTQ4IEM1Ni45Njc5NTM3LDg2LjczMDU5NDggNTkuMjk5NDIxMyw4Ny4xOTY4ODgzIDYxLjQ3NTQ1NzcsODcuOTc0MDQ0MiBDNjMuNjUxNDk0Miw4OC45MDY2MzEyIDY1LjUxNjY2ODIsOTAuMTUwMDgwNiA2Ny4wNzA5OCw5MS43MDQzOTI0IEM2OC42MjUyOTE3LDkzLjQxNDEzNTMgNjkuODY4NzQxMSw5NS40MzQ3NDA1IDcwLjY0NTg5Nyw5Ny43NjYyMDgxIEM3MS41Nzg0ODQsMTAwLjI1MzEwNyA3Mi4wNDQ3Nzc1LDEwMi44OTU0MzcgNzIuMDQ0Nzc3NSwxMDUuODQ4NjI5IFogTTYxLjMyMDAyNjYsMTAxLjQ5NjU1NiBDNjEuMzIwMDI2Niw5OS42MzEzODIyIDYwLjY5ODMwMTksOTguMDc3MDcwNSA1OS42MTAyODM3LDk2LjY3ODE4OTkgQzU4LjUyMjI2NTQsOTUuMjc5MzA5NCA1Ni42NTcwOTE0LDk0LjY1NzU4NDcgNTQuMzI1NjIzOCw5NC42NTc1ODQ3IEM1My4yMzc2MDU1LDk0LjY1NzU4NDcgNTIuMTQ5NTg3Myw5NC44MTMwMTU4IDUxLjIxNzAwMDMsOTUuMTIzODc4MiBDNTAuMjg0NDEzMiw5NS40MzQ3NDA1IDQ5LjUwNzI1NzQsOTUuOTAxMDM0MSA0OC43MzAxMDE1LDk2LjUyMjc1ODggQzQ3Ljk1Mjk0NTYsOTcuMTQ0NDgzNCA0Ny40ODY2NTIxLDk3LjkyMTYzOTMgNDcuMDIwMzU4Niw5OC42OTg3OTUyIEM0Ni41NTQwNjUxLDk5LjQ3NTk1MSA0Ni4zOTg2MzM5LDEwMC40MDg1MzggNDYuMjQzMjAyNywxMDEuMzQxMTI1IEw2MS4zMjAwMjY2LDEwMS4zNDExMjUgTDYxLjMyMDAyNjYsMTAxLjQ5NjU1NiBaIE05MC42OTY1MTg0LDk2LjUyMjc1ODggTDkwLjY5NjUxODQsMTEwLjA0NTI3MSBDOTAuNjk2NTE4NCwxMTEuNzU1MDE0IDkxLjAwNzM4MDcsMTEyLjk5ODQ2MyA5MS42MjkxMDU0LDExMy43NzU2MTkgQzkyLjI1MDgzMDEsMTE0LjU1Mjc3NSA5My4zMzg4NDgzLDExNS4wMTkwNjggOTUuMDQ4NTkxMiwxMTUuMDE5MDY4IEM5NS42NzAzMTU5LDExNS4wMTkwNjggOTYuMjkyMDQwNiwxMTUuMDE5MDY4IDk2LjkxMzc2NTMsMTE0Ljg2MzYzNyBDOTcuNTM1NDksMTE0LjcwODIwNiA5OC4xNTcyMTQ3LDExNC41NTI3NzUgOTguNDY4MDc3LDExNC4zOTczNDQgTDk4LjYyMzUwODIsMTIyLjk0NjA1OCBDOTcuODQ2MzUyMywxMjMuMjU2OTIxIDk2Ljc1ODMzNDEsMTIzLjQxMjM1MiA5NS41MTQ4ODQ3LDEyMy43MjMyMTQgQzk0LjI3MTQzNTMsMTIzLjg3ODY0NSA5My4wMjc5ODYsMTI0LjAzNDA3NiA5MS43ODQ1MzY2LDEyNC4wMzQwNzYgQzg5LjQ1MzA2OSwxMjQuMDM0MDc2IDg3LjQzMjQ2MzcsMTIzLjcyMzIxNCA4NS44NzgxNTIsMTIzLjEwMTQ4OSBDODQuMzIzODQwMiwxMjIuNDc5NzY1IDgyLjkyNDk1OTcsMTIxLjcwMjYwOSA4MS45OTIzNzI2LDEyMC42MTQ1OTEgQzgxLjA1OTc4NTYsMTE5LjUyNjU3MiA4MC4yODI2Mjk3LDExOC4xMjc2OTIgNzkuOTcxNzY3NCwxMTYuNTczMzggQzc5LjY2MDkwNSwxMTUuMDE5MDY4IDc5LjM1MDA0MjcsMTEzLjMwOTMyNSA3OS4zNTAwNDI3LDExMS40NDQxNTEgTDc5LjM1MDA0MjcsOTYuNTIyNzU4OCBMNzMuNTk5MDg5Myw5Ni41MjI3NTg4IEw3My41OTkwODkzLDg3LjgxODYxMyBMNzkuMTk0NjExNSw4Ny44MTg2MTMgTDc5LjE5NDYxMTUsNzguNDkyNzQyNiBMOTAuNjk2NTE4NCw3OC40OTI3NDI2IEw5MC42OTY1MTg0LDg3LjgxODYxMyBMOTguOTM0MzcwNiw4Ny44MTg2MTMgTDk4LjkzNDM3MDYsOTYuNTIyNzU4OCBMOTAuNjk2NTE4NCw5Ni41MjI3NTg4IEw5MC42OTY1MTg0LDk2LjUyMjc1ODggWiBNMTA5LjY1OTEyMiw3MS45NjQ2MzMzIEMxMDYuMjM5NjM2LDcxLjk2NDYzMzMgMTAzLjQ0MTg3NSw3NC40NTE1MzIxIDEwMy40NDE4NzUsNzcuNzE1NTg2OCBDMTAzLjQ0MTg3NSw4MS4xMzUwNzI2IDEwNS43NzMzNDIsODMuMzExMTA5IDEwOS4xOTI4MjgsODMuMzExMTA5IEMxMDkuNTAzNjksODMuMzExMTA5IDEwOS44MTQ1NTMsODMuMzExMTA5IDEwOS45Njk5ODQsODMuMTU1Njc3OCBDMTA5LjM0ODI1OSw4NS42NDI1NzY2IDEwNy4wMTY3OTIsODcuNTA3NzUwNyAxMDQuNjg1MzI0LDg3LjgxODYxMyBMMTA0LjIxOTAzLDg3LjgxODYxMyBMMTA0LjIxOTAzLDkzLjI1ODcwNDEgTDEwNC44NDA3NTUsOTMuMjU4NzA0MSBDMTA3LjYzODUxNiw5Mi45NDc4NDE4IDExMC4yODA4NDYsOTEuNzA0MzkyNCAxMTIuMzAxNDUxLDg5LjgzOTIxODMgQzExNC45NDM3ODEsODcuMzUyMzE5NSAxMTYuMzQyNjYyLDgzLjYyMTk3MTMgMTE2LjM0MjY2Miw3OS4yNjk4OTg1IEMxMTYuMzQyNjYyLDc1LjA3MzI1NjggMTEzLjU0NDkwMSw3MS45NjQ2MzMzIDEwOS42NTkxMjIsNzEuOTY0NjMzMyBaIE0xMzYuNTQ4NzE1LDk4LjIzMjUwMTcgQzEzNS42MTYxMjgsOTcuMjk5OTE0NiAxMzQuNTI4MTA5LDk2LjUyMjc1ODggMTMzLjI4NDY2LDk1LjkwMTAzNDEgQzEzMi4wNDEyMTEsOTUuMjc5MzA5NCAxMzAuNjQyMzMsOTQuOTY4NDQ3IDEyOS4yNDM0NDksOTQuOTY4NDQ3IEMxMjguMTU1NDMxLDk0Ljk2ODQ0NyAxMjcuMjIyODQ0LDk1LjEyMzg3ODIgMTI2LjI5MDI1Nyw5NS41OTAxNzE3IEMxMjUuMzU3NjcsOTYuMDU2NDY1MiAxMjQuODkxMzc3LDk2LjY3ODE4OTkgMTI0Ljg5MTM3Nyw5Ny43NjYyMDgxIEMxMjQuODkxMzc3LDk4LjY5ODc5NTIgMTI1LjM1NzY3LDk5LjQ3NTk1MSAxMjYuNDQ1Njg4LDk5Ljk0MjI0NDYgQzEyNy41MzM3MDYsMTAwLjQwODUzOCAxMjkuMDg4MDE4LDEwMC44NzQ4MzIgMTMxLjQxOTQ4NiwxMDEuMzQxMTI1IEMxMzIuODE4MzY2LDEwMS42NTE5ODcgMTM0LjA2MTgxNiwxMDEuOTYyODUgMTM1LjQ2MDY5NiwxMDIuNTg0NTc1IEMxMzYuODU5NTc3LDEwMy4yMDYyOTkgMTM3Ljk0NzU5NSwxMDMuODI4MDI0IDEzOS4wMzU2MTMsMTA0LjYwNTE4IEMxNDAuMTIzNjMyLDEwNS4zODIzMzYgMTQxLjA1NjIxOSwxMDYuNDcwMzU0IDE0MS42Nzc5NDMsMTA3LjcxMzgwMyBDMTQyLjI5OTY2OCwxMDguOTU3MjUzIDE0Mi42MTA1MywxMTAuMzU2MTMzIDE0Mi42MTA1MywxMTIuMDY1ODc2IEMxNDIuNjEwNTMsMTE0LjI0MTkxMyAxNDIuMTQ0MjM3LDExNi4xMDcwODcgMTQxLjIxMTY1LDExNy42NjEzOTggQzE0MC4yNzkwNjMsMTE5LjIxNTcxIDEzOS4xOTEwNDQsMTIwLjQ1OTE1OSAxMzcuNjM2NzMzLDEyMS4zOTE3NDcgQzEzNi4yMzc4NTIsMTIyLjMyNDMzNCAxMzQuNTI4MTA5LDEyMi45NDYwNTggMTMyLjgxODM2NiwxMjMuNDEyMzUyIEMxMzAuOTUzMTkyLDEyMy44Nzg2NDUgMTI5LjI0MzQ0OSwxMjQuMDM0MDc2IDEyNy4zNzgyNzUsMTI0LjAzNDA3NiBDMTI0LjQyNTA4MywxMjQuMDM0MDc2IDEyMS42MjczMjIsMTIzLjU2Nzc4MyAxMTguOTg0OTkyLDEyMi42MzUxOTYgQzExNi4xODcyMzEsMTIxLjcwMjYwOSAxMTMuODU1NzYzLDEyMC4zMDM3MjggMTEyLjE0NjAyLDExOC41OTM5ODUgTDExOC42NzQxMywxMTEuNzU1MDE0IEMxMTkuNzYyMTQ4LDExMi44NDMwMzIgMTIxLjAwNTU5NywxMTMuNzc1NjE5IDEyMi41NTk5MDksMTE0LjU1Mjc3NSBDMTI0LjExNDIyMSwxMTUuMzI5OTMxIDEyNS42Njg1MzIsMTE1LjY0MDc5MyAxMjcuMzc4Mjc1LDExNS42NDA3OTMgQzEyOC4zMTA4NjIsMTE1LjY0MDc5MyAxMjkuMjQzNDQ5LDExNS40ODUzNjIgMTMwLjE3NjAzNiwxMTUuMDE5MDY4IEMxMzEuMTA4NjIzLDExNC41NTI3NzUgMTMxLjU3NDkxNywxMTMuNzc1NjE5IDEzMS41NzQ5MTcsMTEyLjY4NzYwMSBDMTMxLjU3NDkxNywxMTEuNTk5NTgzIDEzMC45NTMxOTIsMTEwLjgyMjQyNyAxMjkuODY1MTc0LDExMC4yMDA3MDIgQzEyOC43NzcxNTYsMTA5LjczNDQwOSAxMjYuOTExOTgyLDEwOS4xMTI2ODQgMTI0LjU4MDUxNCwxMDguNjQ2MzkgQzEyMy4zMzcwNjUsMTA4LjMzNTUyOCAxMjIuMDkzNjE1LDEwOC4wMjQ2NjYgMTIwLjg1MDE2NiwxMDcuNTU4MzcyIEMxMTkuNjA2NzE3LDEwNy4wOTIwNzkgMTE4LjUxODY5OCwxMDYuNDcwMzU0IDExNy41ODYxMTEsMTA1LjY5MzE5OCBDMTE2LjY1MzUyNCwxMDQuOTE2MDQyIDExNS44NzYzNjgsMTAzLjgyODAyNCAxMTUuMjU0NjQ0LDEwMi43NDAwMDYgQzExNC42MzI5MTksMTAxLjQ5NjU1NiAxMTQuMzIyMDU3LDEwMC4wOTc2NzYgMTE0LjMyMjA1Nyw5OC41NDMzNjQgQzExNC4zMjIwNTcsOTYuMzY3MzI3NiAxMTQuNzg4MzUsOTQuNjU3NTg0NyAxMTUuNzIwOTM3LDkzLjEwMzI3MjkgQzExNi42NTM1MjQsOTEuNTQ4OTYxMiAxMTcuNzQxNTQzLDkwLjQ2MDk0MyAxMTkuMTQwNDIzLDg5LjUyODM1NTkgQzEyMC41MzkzMDQsODguNTk1NzY4OSAxMjIuMDkzNjE1LDg3LjgxODYxMyAxMjMuODAzMzU4LDg3LjUwNzc1MDcgQzEyNS41MTMxMDEsODcuMDQxNDU3MiAxMjcuMjIyODQ0LDg2Ljg4NjAyNiAxMjguOTMyNTg3LDg2Ljg4NjAyNiBDMTMxLjU3NDkxNyw4Ni44ODYwMjYgMTM0LjIxNzI0Nyw4Ny4zNTIzMTk1IDEzNi43MDQxNDYsODguMTI5NDc1NCBDMTM5LjE5MTA0NCw4OC45MDY2MzEyIDE0MS4zNjcwODEsOTAuMTUwMDgwNiAxNDMuMDc2ODI0LDkxLjg1OTgyMzUgTDEzNi41NDg3MTUsOTguMjMyNTAxNyBaIE0wLjM5MTAwNjU0NiwxODEuMjMyNzQ4IEwwLjM5MTAwNjU0NiwxMzEuMDI4NDc5IEwzNC4xMTk1NzEyLDEzMS4wMjg0NzkgTDM0LjExOTU3MTIsMTQxLjI4NjkzNyBMMTIuMDQ4MzQ0NiwxNDEuMjg2OTM3IEwxMi4wNDgzNDQ2LDE1MC43NjgyMzggTDMyLjg3NjEyMTgsMTUwLjc2ODIzOCBMMzIuODc2MTIxOCwxNjAuNDA0OTcxIEwxMi4wNDgzNDQ2LDE2MC40MDQ5NzEgTDEyLjA0ODM0NDYsMTcwLjgxODg2IEwzNS4zNjMwMjA2LDE3MC44MTg4NiBMMzUuMzYzMDIwNiwxODEuMjMyNzQ4IEwwLjM5MTAwNjU0NiwxODEuMjMyNzQ4IFogTTY1Ljk4Mjk2MTgsMTgxLjIzMjc0OCBMNjUuOTgyOTYxOCwxNjEuOTU5MjgzIEM2NS45ODI5NjE4LDE2MS4wMjY2OTYgNjUuODI3NTMwNiwxNjAuMDk0MTA5IDY1LjY3MjA5OTQsMTU5LjE2MTUyMiBDNjUuNTE2NjY4MiwxNTguMjI4OTM1IDY1LjIwNTgwNTksMTU3LjQ1MTc3OSA2NC44OTQ5NDM2LDE1Ni44MzAwNTQgQzY0LjU4NDA4MTIsMTU2LjIwODMyOSA2My45NjIzNTY1LDE1NS41ODY2MDUgNjMuMzQwNjMxOCwxNTUuMjc1NzQyIEM2Mi43MTg5MDcxLDE1NC44MDk0NDkgNjEuNzg2MzIwMSwxNTQuNjU0MDE4IDYwLjY5ODMwMTksMTU0LjY1NDAxOCBDNTkuNjEwMjgzNywxNTQuNjU0MDE4IDU4LjY3NzY5NjYsMTU0LjgwOTQ0OSA1Ny45MDA1NDA3LDE1NS4yNzU3NDIgQzU3LjEyMzM4NDksMTU1Ljc0MjAzNiA1Ni41MDE2NjAyLDE1Ni4yMDgzMjkgNTUuODc5OTM1NSwxNTYuOTg1NDg1IEM1NS40MTM2NDIsMTU3Ljc2MjY0MSA1NC45NDczNDg0LDE1OC41Mzk3OTcgNTQuNjM2NDg2MSwxNTkuNDcyMzg0IEM1NC4zMjU2MjM4LDE2MC40MDQ5NzEgNTQuMTcwMTkyNiwxNjEuMzM3NTU4IDU0LjE3MDE5MjYsMTYyLjI3MDE0NSBMNTQuMTcwMTkyNiwxODEuMzg4MTc5IEw0Mi41MTI4NTQ2LDE4MS4zODgxNzkgTDQyLjUxMjg1NDYsMTQ2LjEwNTMwMyBMNTMuNzAzODk5MSwxNDYuMTA1MzAzIEw1My43MDM4OTkxLDE1MC45MjM2NjkgTDUzLjg1OTMzMDIsMTUwLjkyMzY2OSBDNTQuMzI1NjIzOCwxNTAuMTQ2NTE0IDU0Ljc5MTkxNzMsMTQ5LjM2OTM1OCA1NS41NjkwNzMxLDE0OC43NDc2MzMgQzU2LjE5MDc5NzgsMTQ3Ljk3MDQ3NyA1Ny4xMjMzODQ5LDE0Ny4zNDg3NTIgNTcuOTAwNTQwNywxNDYuODgyNDU5IEM1OC44MzMxMjc4LDE0Ni40MTYxNjUgNTkuNzY1NzE0OCwxNDUuOTQ5ODcyIDYwLjg1MzczMywxNDUuNjM5MDEgQzYxLjk0MTc1MTMsMTQ1LjMyODE0NyA2My4wMjk3Njk1LDE0NS4xNzI3MTYgNjQuMjczMjE4OSwxNDUuMTcyNzE2IEM2Ni42MDQ2ODY1LDE0NS4xNzI3MTYgNjguNjI1MjkxNywxNDUuNjM5MDEgNzAuMzM1MDM0NiwxNDYuNDE2MTY1IEM3Mi4wNDQ3Nzc1LDE0Ny4xOTMzMjEgNzMuMjg4MjI2OSwxNDguNDM2NzcxIDc0LjM3NjI0NTEsMTQ5LjY4MDIyIEM3NS40NjQyNjM0LDE1MS4wNzkxMDEgNzYuMDg1OTg4LDE1Mi42MzM0MTIgNzYuNTUyMjgxNiwxNTQuMzQzMTU1IEM3Ny4wMTg1NzUxLDE1Ni4wNTI4OTggNzcuMTc0MDA2MywxNTcuNzYyNjQxIDc3LjE3NDAwNjMsMTU5LjYyNzgxNSBMNzcuMTc0MDA2MywxODEuMzg4MTc5IEw2NS45ODI5NjE4LDE4MS4zODgxNzkgTDY1Ljk4Mjk2MTgsMTgxLjIzMjc0OCBaIE0xMDcuNjM4NTE2LDE1Ny4yOTYzNDggQzEwNy4wMTY3OTIsMTU2LjUxOTE5MiAxMDYuMDg0MjA1LDE1NS43NDIwMzYgMTA0Ljk5NjE4NiwxNTUuMjc1NzQyIEMxMDMuOTA4MTY4LDE1NC44MDk0NDkgMTAyLjY2NDcxOSwxNTQuNDk4NTg2IDEwMS41NzY3MDEsMTU0LjQ5ODU4NiBDMTAwLjMzMzI1MSwxNTQuNDk4NTg2IDk5LjI0NTIzMjksMTU0LjgwOTQ0OSA5OC4zMTI2NDU5LDE1NS4yNzU3NDIgQzk3LjM4MDA1ODgsMTU1Ljc0MjAzNiA5Ni40NDc0NzE4LDE1Ni4zNjM3NjEgOTUuODI1NzQ3MSwxNTcuMjk2MzQ4IEM5NS4yMDQwMjI0LDE1OC4yMjg5MzUgOTQuNTgyMjk3NywxNTkuMDA2MDkxIDk0LjExNjAwNDIsMTYwLjA5NDEwOSBDOTMuNjQ5NzEwNywxNjEuMTgyMTI3IDkzLjQ5NDI3OTUsMTYyLjI3MDE0NSA5My40OTQyNzk1LDE2My41MTM1OTUgQzkzLjQ5NDI3OTUsMTY0Ljc1NzA0NCA5My42NDk3MTA3LDE2NS44NDUwNjIgOTQuMTE2MDA0MiwxNjYuOTMzMDggQzk0LjQyNjg2NjUsMTY4LjAyMTA5OSA5NS4wNDg1OTEyLDE2OC45NTM2ODYgOTUuODI1NzQ3MSwxNjkuNzMwODQxIEM5Ni42MDI5MDMsMTcwLjUwNzk5NyA5Ny4zODAwNTg4LDE3MS4yODUxNTMgOTguNDY4MDc3LDE3MS43NTE0NDcgQzk5LjU1NjA5NTIsMTcyLjIxNzc0IDEwMC42NDQxMTMsMTcyLjUyODYwMyAxMDEuODg3NTYzLDE3Mi41Mjg2MDMgQzEwMy4xMzEwMTIsMTcyLjUyODYwMyAxMDQuMjE5MDMsMTcyLjM3MzE3MSAxMDUuNDYyNDgsMTcxLjkwNjg3OCBDMTA2LjU1MDQ5OCwxNzEuNDQwNTg0IDEwNy40ODMwODUsMTcwLjgxODg2IDEwOC4yNjAyNDEsMTY5Ljg4NjI3MyBMMTE0LjYzMjkxOSwxNzcuODEzMjYyIEMxMTMuMjM0MDM5LDE3OS4yMTIxNDMgMTExLjIxMzQzMywxODAuMzAwMTYxIDEwOS4wMzczOTcsMTgxLjA3NzMxNyBDMTA2LjcwNTkyOSwxODEuODU0NDczIDEwNC4yMTkwMywxODIuMzIwNzY3IDEwMS43MzIxMzIsMTgyLjMyMDc2NyBDOTguOTM0MzcwNiwxODIuMzIwNzY3IDk2LjI5MjA0MDYsMTgxLjg1NDQ3MyA5My45NjA1NzMsMTgxLjA3NzMxNyBDOTEuNDczNjc0MiwxODAuMzAwMTYxIDg5LjQ1MzA2OSwxNzkuMDU2NzEyIDg3LjU4Nzg5NDksMTc3LjM0Njk2OSBDODUuODc4MTUyLDE3NS43OTI2NTcgODQuNDc5MjcxNCwxNzMuNzcyMDUyIDgzLjM5MTI1MzIsMTcxLjQ0MDU4NCBDODIuMzAzMjM1LDE2OS4xMDkxMTcgODEuODM2OTQxNSwxNjYuNDY2Nzg3IDgxLjgzNjk0MTUsMTYzLjUxMzU5NSBDODEuODM2OTQxNSwxNjAuNTYwNDAyIDgyLjMwMzIzNSwxNTguMDczNTAzIDgzLjM5MTI1MzIsMTU1Ljc0MjAzNiBDODQuNDc5MjcxNCwxNTMuNDEwNTY4IDg1Ljg3ODE1MiwxNTEuMzg5OTYzIDg3LjU4Nzg5NDksMTQ5LjgzNTY1MSBDODkuMjk3NjM3OCwxNDguMjgxMzQgOTEuNDczNjc0MiwxNDYuODgyNDU5IDkzLjk2MDU3MywxNDYuMTA1MzAzIEM5Ni40NDc0NzE4LDE0NS4xNzI3MTYgOTguOTM0MzcwNiwxNDQuODYxODU0IDEwMS43MzIxMzIsMTQ0Ljg2MTg1NCBDMTAyLjk3NTU4MSwxNDQuODYxODU0IDEwNC4yMTkwMywxNDUuMDE3Mjg1IDEwNS40NjI0OCwxNDUuMTcyNzE2IEMxMDYuNzA1OTI5LDE0NS40ODM1NzggMTA3Ljk0OTM3OSwxNDUuNzk0NDQxIDEwOS4wMzczOTcsMTQ2LjEwNTMwMyBDMTEwLjEyNTQxNSwxNDYuNTcxNTk3IDExMS4yMTM0MzMsMTQ3LjAzNzg5IDExMi4zMDE0NTEsMTQ3LjY1OTYxNSBDMTEzLjIzNDAzOSwxNDguMjgxMzQgMTE0LjE2NjYyNiwxNDguOTAzMDY0IDExNC43ODgzNSwxNDkuNjgwMjIgTDEwNy42Mzg1MTYsMTU3LjI5NjM0OCBaIE0xNDEuNTIyNTEyLDE1NS41ODY2MDUgQzE0MS4wNTYyMTksMTU1LjQzMTE3NCAxNDAuNDM0NDk0LDE1NS4yNzU3NDIgMTM5Ljk2ODIsMTU1LjI3NTc0MiBMMTM4LjU2OTMyLDE1NS4yNzU3NDIgQzEzNy4wMTUwMDgsMTU1LjI3NTc0MiAxMzUuNzcxNTU5LDE1NS41ODY2MDUgMTM0LjY4MzU0LDE1Ni4wNTI4OTggQzEzMy41OTU1MjIsMTU2LjY3NDYyMyAxMzIuODE4MzY2LDE1Ny4yOTYzNDggMTMyLjE5NjY0MiwxNTguMDczNTAzIEMxMzEuNTc0OTE3LDE1OC44NTA2NTkgMTMxLjEwODYyMywxNTkuNzgzMjQ2IDEzMC43OTc3NjEsMTYwLjcxNTgzMyBDMTMwLjQ4Njg5OSwxNjEuNjQ4NDIgMTMwLjMzMTQ2OCwxNjIuNDI1NTc2IDEzMC4zMzE0NjgsMTYzLjIwMjczMiBMMTMwLjMzMTQ2OCwxODEuMjMyNzQ4IEwxMTguNjc0MTMsMTgxLjIzMjc0OCBMMTE4LjY3NDEzLDE0NS45NDk4NzIgTDEyOS44NjUxNzQsMTQ1Ljk0OTg3MiBMMTI5Ljg2NTE3NCwxNTEuMDc5MTAxIEwxMzAuMDIwNjA1LDE1MS4wNzkxMDEgQzEzMC45NTMxOTIsMTQ5LjIxMzkyNyAxMzIuMTk2NjQyLDE0Ny44MTUwNDYgMTMzLjkwNjM4NSwxNDYuNzI3MDI4IEMxMzUuNjE2MTI4LDE0NS42MzkwMSAxMzcuNDgxMzAyLDE0NS4wMTcyODUgMTM5LjY1NzMzOCwxNDUuMDE3Mjg1IEwxNDEuMDU2MjE5LDE0NS4wMTcyODUgQzE0MS41MjI1MTIsMTQ1LjAxNzI4NSAxNDEuODMzMzc0LDE0NS4xNzI3MTYgMTQyLjE0NDIzNywxNDUuMTcyNzE2IEwxNDEuNTIyNTEyLDE1NS41ODY2MDUgWiBNMTY4Ljg3ODM5OSwxODYuNTE3NDA4IEMxNjguMTAxMjQzLDE4OC4zODI1ODIgMTY3LjMyNDA4NywxODkuOTM2ODk0IDE2Ni41NDY5MzEsMTkxLjQ5MTIwNiBDMTY1LjYxNDM0NCwxOTIuODkwMDg2IDE2NC42ODE3NTcsMTk0LjEzMzUzNiAxNjMuNDM4MzA4LDE5NS4yMjE1NTQgQzE2Mi4xOTQ4NTgsMTk2LjMwOTU3MiAxNjAuNzk1OTc4LDE5Ni45MzEyOTcgMTU5LjI0MTY2NiwxOTcuNTUzMDIyIEMxNTcuNjg3MzU0LDE5OC4wMTkzMTUgMTU1LjY2Njc0OSwxOTguMzMwMTc3IDE1My40OTA3MTIsMTk4LjMzMDE3NyBDMTUyLjQwMjY5NCwxOTguMzMwMTc3IDE1MS4zMTQ2NzYsMTk4LjMzMDE3NyAxNTAuMDcxMjI3LDE5OC4xNzQ3NDYgQzE0OC45ODMyMDgsMTk4LjAxOTMxNSAxNDcuODk1MTksMTk3Ljg2Mzg4NCAxNDcuMTE4MDM0LDE5Ny41NTMwMjIgTDE0OC4zNjE0ODQsMTg3Ljc2MDg1OCBDMTQ4Ljk4MzIwOCwxODcuOTE2Mjg5IDE0OS42MDQ5MzMsMTg4LjA3MTcyIDE1MC4yMjY2NTgsMTg4LjIyNzE1MSBDMTUwLjg0ODM4MywxODguMzgyNTgyIDE1MS40NzAxMDcsMTg4LjM4MjU4MiAxNTIuMDkxODMyLDE4OC4zODI1ODIgQzE1My45NTcwMDYsMTg4LjM4MjU4MiAxNTUuMjAwNDU1LDE4Ny45MTYyODkgMTU1Ljk3NzYxMSwxODcuMTM5MTMzIEMxNTYuNzU0NzY3LDE4Ni4zNjE5NzcgMTU3LjUzMTkyMywxODUuMTE4NTI4IDE1Ny45OTgyMTYsMTgzLjU2NDIxNiBMMTU5LjA4NjIzNSwxODAuNjExMDI0IEwxNDQuMzIwMjczLDE0NS45NDk4NzIgTDE1Ny4yMjEwNjEsMTQ1Ljk0OTg3MiBMMTY1LjE0ODA1LDE2OC42NDI4MjMgTDE2NS4zMDM0ODIsMTY4LjY0MjgyMyBMMTcyLjI5Nzg4NCwxNDUuOTQ5ODcyIEwxODQuNTc2OTQ3LDE0NS45NDk4NzIgTDE2OC44NzgzOTksMTg2LjUxNzQwOCBaIE0yMjcuMDA5NjU4LDE2My41MTM1OTUgQzIyNy4wMDk2NTgsMTY2LjAwMDQ5MyAyMjYuNjk4Nzk1LDE2OC4zMzE5NjEgMjI1LjkyMTYzOSwxNzAuNjYzNDI5IEMyMjUuMTQ0NDgzLDE3Mi45OTQ4OTYgMjI0LjA1NjQ2NSwxNzQuODYwMDcgMjIyLjY1NzU4NSwxNzYuNzI1MjQ0IEMyMjEuMjU4NzA0LDE3OC40MzQ5ODcgMjE5LjM5MzUzLDE3OS44MzM4NjggMjE3LjM3MjkyNSwxODAuOTIxODg2IEMyMTUuMzUyMzIsMTgyLjAwOTkwNCAyMTIuODY1NDIxLDE4Mi40NzYxOTggMjEwLjIyMzA5MSwxODIuNDc2MTk4IEMyMDguMDQ3MDU0LDE4Mi40NzYxOTggMjA2LjAyNjQ0OSwxODIuMDA5OTA0IDIwNC4wMDU4NDQsMTgxLjIzMjc0OCBDMjAyLjE0MDY3LDE4MC4zMDAxNjEgMjAwLjU4NjM1OCwxNzkuMjEyMTQzIDE5OS40OTgzNCwxNzcuNjU3ODMxIEwxOTkuMzQyOTA5LDE3Ny42NTc4MzEgTDE5OS4zNDI5MDksMTk4LjY0MTA0IEwxODcuNjg1NTcxLDE5OC42NDEwNCBMMTg3LjY4NTU3MSwxNDYuNDE2MTY1IEwxOTguNzIxMTg0LDE0Ni40MTYxNjUgTDE5OC43MjExODQsMTUwLjc2ODIzOCBMMTk4Ljg3NjYxNSwxNTAuNzY4MjM4IEMxOTkuOTY0NjMzLDE0OS4zNjkzNTggMjAxLjUxODk0NSwxNDguMTI1OTA4IDIwMy4zODQxMTksMTQ3LjAzNzg5IEMyMDUuMjQ5MjkzLDE0NS45NDk4NzIgMjA3LjU4MDc2MSwxNDUuNDgzNTc4IDIxMC4yMjMwOTEsMTQ1LjQ4MzU3OCBDMjEyLjcwOTk5LDE0NS40ODM1NzggMjE1LjA0MTQ1NywxNDUuOTQ5ODcyIDIxNy4yMTc0OTQsMTQ3LjAzNzg5IEMyMTkuMjM4MDk5LDE0Ny45NzA0NzcgMjIxLjEwMzI3MywxNDkuMzY5MzU4IDIyMi41MDIxNTMsMTUxLjA3OTEwMSBDMjIzLjkwMTAzNCwxNTIuNzg4ODQ0IDIyNC45ODkwNTIsMTU0LjgwOTQ0OSAyMjUuNzY2MjA4LDE1Ni45ODU0ODUgQzIyNi41NDMzNjQsMTU4LjY5NTIyOCAyMjcuMDA5NjU4LDE2MS4wMjY2OTYgMjI3LjAwOTY1OCwxNjMuNTEzNTk1IFogTTIxNS42NjMxODIsMTYzLjUxMzU5NSBDMjE1LjY2MzE4MiwxNjIuNDI1NTc2IDIxNS41MDc3NTEsMTYxLjMzNzU1OCAyMTUuMTk2ODg4LDE2MC4yNDk1NCBDMjE0Ljg4NjAyNiwxNTkuMTYxNTIyIDIxNC4yNjQzMDEsMTU4LjIyODkzNSAyMTMuNjQyNTc3LDE1Ny40NTE3NzkgQzIxMy4wMjA4NTIsMTU2LjY3NDYyMyAyMTIuMDg4MjY1LDE1NS44OTc0NjcgMjExLjAwMDI0NywxNTUuNDMxMTc0IEMyMDkuOTEyMjI4LDE1NC45NjQ4OCAyMDguODI0MjEsMTU0LjY1NDAxOCAyMDcuNDI1MzMsMTU0LjY1NDAxOCBDMjA2LjAyNjQ0OSwxNTQuNjU0MDE4IDIwNC45Mzg0MzEsMTU0Ljk2NDg4IDIwMy44NTA0MTMsMTU1LjQzMTE3NCBDMjAyLjc2MjM5NCwxNTUuODk3NDY3IDIwMS45ODUyMzksMTU2LjY3NDYyMyAyMDEuMjA4MDgzLDE1Ny40NTE3NzkgQzIwMC40MzA5MjcsMTU4LjIyODkzNSAxOTkuOTY0NjMzLDE1OS4zMTY5NTMgMTk5LjQ5ODM0LDE2MC40MDQ5NzEgQzE5OS4wMzIwNDYsMTYxLjQ5Mjk4OSAxOTguODc2NjE1LDE2Mi41ODEwMDcgMTk4Ljg3NjYxNSwxNjMuNjY5MDI2IEMxOTguODc2NjE1LDE2NC43NTcwNDQgMTk5LjAzMjA0NiwxNjUuODQ1MDYyIDE5OS40OTgzNCwxNjYuOTMzMDggQzE5OS45NjQ2MzMsMTY4LjAyMTA5OSAyMDAuNDMwOTI3LDE2OC45NTM2ODYgMjAxLjIwODA4MywxNjkuODg2MjczIEMyMDEuOTg1MjM5LDE3MC42NjM0MjkgMjAyLjc2MjM5NCwxNzEuNDQwNTg0IDIwMy44NTA0MTMsMTcxLjkwNjg3OCBDMjA0LjkzODQzMSwxNzIuMzczMTcxIDIwNi4wMjY0NDksMTcyLjY4NDAzNCAyMDcuNDI1MzMsMTcyLjY4NDAzNCBDMjA4LjgyNDIxLDE3Mi42ODQwMzQgMjEwLjA2NzY2LDE3Mi4zNzMxNzEgMjExLjAwMDI0NywxNzEuOTA2ODc4IEMyMTIuMDg4MjY1LDE3MS40NDA1ODQgMjEyLjg2NTQyMSwxNzAuNjYzNDI5IDIxMy42NDI1NzcsMTY5Ljg4NjI3MyBDMjE0LjI2NDMwMSwxNjkuMTA5MTE3IDIxNC44ODYwMjYsMTY4LjAyMTA5OSAyMTUuMTk2ODg4LDE2Ni45MzMwOCBDMjE1LjUwNzc1MSwxNjUuNjg5NjMxIDIxNS42NjMxODIsMTY0LjYwMTYxMyAyMTUuNjYzMTgyLDE2My41MTM1OTUgWiBNMjQ1LjUwNTk2NywxNTQuNjU0MDE4IEwyNDUuNTA1OTY3LDE2OC4xNzY1MyBDMjQ1LjUwNTk2NywxNjkuODg2MjczIDI0NS44MTY4MywxNzEuMTI5NzIyIDI0Ni40Mzg1NTQsMTcxLjkwNjg3OCBDMjQ3LjA2MDI3OSwxNzIuNjg0MDM0IDI0OC4xNDgyOTcsMTczLjE1MDMyNyAyNDkuODU4MDQsMTczLjE1MDMyNyBDMjUwLjQ3OTc2NSwxNzMuMTUwMzI3IDI1MS4xMDE0ODksMTczLjE1MDMyNyAyNTEuNzIzMjE0LDE3Mi45OTQ4OTYgQzI1Mi4zNDQ5MzksMTcyLjgzOTQ2NSAyNTIuOTY2NjY0LDE3Mi42ODQwMzQgMjUzLjI3NzUyNiwxNzIuNTI4NjAzIEwyNTMuNDMyOTU3LDE4MS4wNzczMTcgQzI1Mi42NTU4MDEsMTgxLjM4ODE3OSAyNTEuNTY3NzgzLDE4MS41NDM2MTEgMjUwLjMyNDMzNCwxODEuODU0NDczIEMyNDkuMDgwODg0LDE4Mi4wMDk5MDQgMjQ3LjgzNzQzNSwxODIuMTY1MzM1IDI0Ni41OTM5ODUsMTgyLjE2NTMzNSBDMjQ0LjI2MjUxOCwxODIuMTY1MzM1IDI0Mi4yNDE5MTMsMTgxLjg1NDQ3MyAyNDAuNjg3NjAxLDE4MS4yMzI3NDggQzIzOS4xMzMyODksMTgwLjYxMTAyNCAyMzcuNzM0NDA5LDE3OS44MzM4NjggMjM2LjgwMTgyMSwxNzguNzQ1ODUgQzIzNS44NjkyMzQsMTc3LjY1NzgzMSAyMzUuMDkyMDc5LDE3Ni4yNTg5NTEgMjM0Ljc4MTIxNiwxNzQuNzA0NjM5IEMyMzQuNDcwMzU0LDE3My4xNTAzMjcgMjM0LjE1OTQ5MiwxNzEuNDQwNTg0IDIzNC4xNTk0OTIsMTY5LjU3NTQxIEwyMzQuMTU5NDkyLDE1NC42NTQwMTggTDIyOC41NjM5NjksMTU0LjY1NDAxOCBMMjI4LjU2Mzk2OSwxNDUuOTQ5ODcyIEwyMzQuMTU5NDkyLDE0NS45NDk4NzIgTDIzNC4xNTk0OTIsMTM2LjYyNDAwMiBMMjQ1LjUwNTk2NywxMzYuNjI0MDAyIEwyNDUuNTA1OTY3LDE0NS45NDk4NzIgTDI1My43NDM4MTksMTQ1Ljk0OTg3MiBMMjUzLjc0MzgxOSwxNTQuNjU0MDE4IEwyNDUuNTA1OTY3LDE1NC42NTQwMTggTDI0NS41MDU5NjcsMTU0LjY1NDAxOCBaIj4mI3hhOyYjeGE7PC9wYXRoPiYjeGE7CTwvZz4mI3hhOzwvc3ZnPg==" parent="5G_yt-iN49mRIbdVEVWk-1" vertex="1">
          <mxGeometry x="-1591.48" y="-997.75" width="102.96" height="80" as="geometry" />
        </mxCell>
        <mxCell id="2x0kGgbs7OKSk3ZMjQRD-67" style="edgeStyle=orthogonalEdgeStyle;rounded=0;orthogonalLoop=1;jettySize=auto;html=1;entryX=1;entryY=0.5;entryDx=0;entryDy=0;dashed=1;exitX=0;exitY=0.5;exitDx=0;exitDy=0;" parent="5G_yt-iN49mRIbdVEVWk-1" source="2x0kGgbs7OKSk3ZMjQRD-68" target="2x0kGgbs7OKSk3ZMjQRD-66" edge="1">
          <mxGeometry relative="1" as="geometry">
            <Array as="points">
              <mxPoint x="-1370" y="-500" />
              <mxPoint x="-1370" y="-958" />
            </Array>
          </mxGeometry>
        </mxCell>
        <mxCell id="5G_yt-iN49mRIbdVEVWk-18" value="Architecture: Infrastructure (≈ $8 USD/Month)" style="fillColor=#4DA1F5;strokeColor=default;shadow=1;gradientColor=none;fontSize=14;align=center;spacingLeft=50;fontColor=#ffffff;whiteSpace=wrap;html=1;" parent="5G_yt-iN49mRIbdVEVWk-1" vertex="1">
          <mxGeometry x="-1680" y="-1080" width="1470" height="40" as="geometry" />
        </mxCell>
        <mxCell id="2x0kGgbs7OKSk3ZMjQRD-69" value="" style="edgeStyle=orthogonalEdgeStyle;rounded=0;orthogonalLoop=1;jettySize=auto;html=1;entryX=1;entryY=0.5;entryDx=0;entryDy=0;dashed=1;exitX=0;exitY=0.25;exitDx=0;exitDy=0;" parent="5G_yt-iN49mRIbdVEVWk-1" source="2x0kGgbs7OKSk3ZMjQRD-20" target="2x0kGgbs7OKSk3ZMjQRD-68" edge="1">
          <mxGeometry relative="1" as="geometry">
            <mxPoint x="-1189" y="-500" as="sourcePoint" />
            <mxPoint x="-1489" y="-915" as="targetPoint" />
            <Array as="points" />
          </mxGeometry>
        </mxCell>
        <mxCell id="2x0kGgbs7OKSk3ZMjQRD-68" value="" style="shape=image;verticalLabelPosition=bottom;verticalAlign=top;imageAspect=0;aspect=fixed;image=data:image/svg+xml,PHN2ZyB4bWxuczp4bGluaz0iaHR0cDovL3d3dy53My5vcmcvMTk5OS94bGluayIgeG1sbnM9Imh0dHA6Ly93d3cudzMub3JnLzIwMDAvc3ZnIiBwcmVzZXJ2ZUFzcGVjdFJhdGlvPSJ4TWlkWU1pZCIgdmVyc2lvbj0iMS4xIiB2aWV3Qm94PSIwIDAuMTAxMjI4NzY2MTQzMzIxOTkgNTEyIDE3NS41OTQyNTM1NDAwMzkwNiIgaGVpZ2h0PSIyNzQuMzY2MDIxMTU2MzExMDQiIHdpZHRoPSI4MDAiPiYjeGE7CTxnPiYjeGE7CQk8cGF0aCBmaWxsPSIjMDAwMDAwIiBkPSJNMTI2LjkxNjYwMSwxNzUuMjUwNDA1IEMxMjUuOTE2ODYzLDE2OC42OTM5NjEgMTIwLjI0ODg4OSwxNjMuNTgxNDkgMTEzLjM1NzgwNCwxNjMuNTgxNDkgQzEwNi40Njc1NTYsMTYzLjU4MTQ5IDEwMC43OTk1ODIsMTY4LjU4MjY5MyA5OS43OTkwMDY1LDE3NS4yNTA0MDUgTDEwMS4zNTUwODUsMTc1LjI1MDQwNSBMMTI2LjkxNjYwMSwxNzUuMjUwNDA1IFoiPiYjeGE7JiN4YTs8L3BhdGg+JiN4YTsJCTxwYXRoIGZpbGw9IiMwMDAwMDAiIGQ9Ik05Ni4zNTM4ODI0LDE3NS4yNTA0MDUgQzk1LjM1NDE0MzgsMTY4LjY5Mzk2MSA4OS42ODYxNjk5LDE2My41ODE0OSA4Mi43OTUwODUsMTYzLjU4MTQ5IEM3NS45MDQsMTYzLjU4MTQ5IDcwLjIzNjg2MjcsMTY4LjU4MjY5MyA2OS4yMzYyODc2LDE3NS4yNTA0MDUgTDk0Ljc5Njk2NzMsMTc1LjI1MDQwNSBMOTYuMzUzODgyNCwxNzUuMjUwNDA1IFoiPiYjeGE7JiN4YTs8L3BhdGg+JiN4YTsJCTxwYXRoIGZpbGw9IiNFRDFDMjQiIGQ9Ik03OC41NzI3NTgyLDE1Mi4wMDg5NDYgTDc4LjU3Mjc1ODIsMTcxLjI0OTc3OCBMOTMuMzUzODMwMSwxNzEuMjQ5Nzc4IEw5My4zNTM4MzAxLDEyMi43OTQ2NjcgTDc4LjU3Mjc1ODIsMTIyLjc5NDY2NyBMNzguNTcyNzU4MiwxNDIuNzAzOTQyIEM3Ny42NjI4MzQzLDE0NC4wMzgyMDIgNzcuMTI3OTQ3NywxNDUuNjQyMzE5IDc3LjEyNzk0NzcsMTQ3LjM1NjQ0NCBDNzcuMTI3OTQ3NywxNDkuMDcwNTcgNzcuNjYyODM0MywxNTAuNjc0Njg3IDc4LjU3Mjc1ODIsMTUyLjAwODk0NiBaIE04NS40NjMwMDY1LDE0Mi4yNDMxMzcgQzgyLjY4NDY1MzYsMTQyLjI0MzEzNyA4MC4zNTEzNzI1LDE0NC40NjU5ODcgODAuMzUxMzcyNSwxNDcuMzU1NjA4IEM4MC4zNTEzNzI1LDE1MC4yNDUyMjkgODIuNTc0MjIyMiwxNTIuNDY3MjQyIDg1LjQ2MzAwNjUsMTUyLjQ2NzI0MiBDODguMzUyNjI3NSwxNTIuNDY3MjQyIDkwLjU3NTQ3NzEsMTUwLjI0NTIyOSA5MC41NzU0NzcxLDE0Ny4zNTU2MDggQzkwLjU3NTQ3NzEsMTQ0LjQ2NTk4NyA4OC4yNDEzNTk1LDE0Mi4yNDMxMzcgODUuNDYzMDA2NSwxNDIuMjQzMTM3IFoiPiYjeGE7JiN4YTs8L3BhdGg+JiN4YTsJCTxwYXRoIGZpbGw9IiNFRDFDMjQiIGQ9Ik0xMTcuMjQ3MTYzLDE0Mi41NDQ3MzYgTDExNy4yNDcxNjMsMTIyLjc5NDY2NyBMMTAyLjQ2NjA5MiwxMjIuNzk0NjY3IEwxMDIuNDY2MDkyLDE3MS4yNDk3NzggTDExNy4yNDcxNjMsMTcxLjI0OTc3OCBMMTE3LjI0NzE2MywxNTIuMTY4NDggQzExOC4yMjQ2MzEsMTUwLjgwMzQzMiAxMTguODAzMjQyLDE0OS4xMzk0NTIgMTE4LjgwMzI0MiwxNDcuMzU2NDQ0IEMxMTguODAzMjQyLDE0NS41NzM1NzkgMTE4LjIyNDU5NSwxNDMuOTA5NzIyIDExNy4yNDcxNjMsMTQyLjU0NDczNiBaIE0xMTAuNDY4MTgzLDE0Mi4yNDMxMzcgQzEwNy42ODk4MywxNDIuMjQzMTM3IDEwNS4zNTU3MTIsMTQ0LjQ2NTk4NyAxMDUuMzU1NzEyLDE0Ny4zNTU2MDggQzEwNS4zNTU3MTIsMTUwLjI0NTIyOSAxMDcuNTc4NTYyLDE1Mi40NjcyNDIgMTEwLjQ2ODE4MywxNTIuNDY3MjQyIEMxMTMuMzU3ODA0LDE1Mi40NjcyNDIgMTE1LjU3OTgxNywxNTAuMjQ1MjI5IDExNS41Nzk4MTcsMTQ3LjM1NTYwOCBDMTE1LjU3OTgxNywxNDQuNDY1OTg3IDExMy4yNDY1MzYsMTQyLjI0MzEzNyAxMTAuNDY4MTgzLDE0Mi4yNDMxMzcgWiI+JiN4YTsmI3hhOzwvcGF0aD4mI3hhOwkJPHBhdGggZmlsbD0iI0VEMUMyNCIgZD0iTTE0Mi44ODQ3ODQsNzUuMTExMDU0OSBMMTQ1LjU4NzAzMywzMy4zMzEwMzI3IEwxNDkuOTIxNDY0LDMzLjMzMTAzMjcgTDE1Mi4wMDY3MjgsNzUuMjQyNzEyNiBDMTUzLjU4NjgyNCw3Ni41NjYwNzUgMTU0LjU4ODg2Myw3OC41NTUwMjA2IDE1NC41ODg4NjMsODAuNzg1NTY4NiBDMTU0LjU4ODg2Myw4NC42NzI4MzY3IDE1MS41NDYzMTQsODcuODI2MzIyOSAxNDcuNzAzMDI4LDg4LjAwMTkxMjQgQzE0Mi42NDUxMzcsOTMuODY4NDQ3NyAxMzMuNzg1NjI5LDEwMi4wMDAyNTYgMTIwLjU4MTg1NiwxMDYuOTAyNTg4IEwxMjAuNTgxODU2LDg2LjQ1MzU0MjUgTDEyMC41ODE4NTYsODYuNDUzNTQyNSBDMTIwLjU4MTg1Niw4Ni40NTM1NDI1IDEzMi44MDQ2NCw4OC4xMTIzMzk1IDE0MC4xNDkxNDgsODEuMTM4MzA4NCBDMTQwLjE0MzU3Niw4MS4wMjE0NSAxNDAuMTQwNzU4LDgwLjkwMzg0OSAxNDAuMTQwNzU4LDgwLjc4NTU2ODYgQzE0MC4xNDA3NTgsNzguNDc5NzY0MSAxNDEuMjExNTUzLDc2LjQzMjEzOTggMTQyLjg4NDc4NCw3NS4xMTEwNTQ5IFogTTE0Ny4zNjQ4MSw3Ny4wMDc0NzcxIEMxNDUuMjUzMjI5LDc3LjAwNzQ3NzEgMTQzLjQ3NTQ1MSw3OC43ODUyNTQ5IDE0My40NzU0NTEsODAuODk2ODM2NiBDMTQzLjQ3NTQ1MSw4My4wMDg0MTgzIDE0NS4yNTMyMjksODQuNzg2MTk2MSAxNDcuMzY0ODEsODQuNzg2MTk2MSBDMTQ5LjQ3NjM5Miw4NC43ODYxOTYxIDE1MS4yNTQxNyw4My4wMDg0MTgzIDE1MS4yNTQxNyw4MC44OTY4MzY2IEMxNTEuMjU0MTcsNzguNzg1MjU0OSAxNDkuNTg3NjYsNzcuMDA3NDc3MSAxNDcuMzY0ODEsNzcuMDA3NDc3MSBaIj4mI3hhOyYjeGE7PC9wYXRoPiYjeGE7CQk8cGF0aCBmaWxsPSIjRUQxQzI0IiBkPSJNNTIuOTM1MTM3OCw3NS4xMTEwNTQ5IEw1MC4yMzI4ODg5LDMzLjMzMTAzMjcgTDQ1Ljg5ODQ1NzUsMzMuMzMxMDMyNyBMNDMuOTIxNzg5Miw3NS4xNTM1NDMzIEM0Mi4yNzkxNDk4LDc2LjQ3NTgxNzMgNDEuMjMxMDU4OCw3OC41MDQzMzk5IDQxLjIzMTA1ODgsODAuNzg1NTY4NiBDNDEuMjMxMDU4OCw4NC42NzMxMDY4IDQ0LjI3NDgyMDYsODcuODI2NzYxMSA0OC4xMTc3NjE3LDg4LjAwMTk0ODkgQzUzLjE3NTY1ODMsOTMuODY4NDgxNSA2Mi4wMzUxNTY1LDEwMi4wMDAyNjYgNzUuMjM4OTAyLDEwNi45MDI1ODggTDc1LjIzODkwMiw4Ni40NTM1NDI1IEM3NS4yMzg5MDIsODYuNDUzNTQyNSA2My4wMTUyMyw4OC4xMTI0NiA1NS42NzA4MDk5LDgxLjEzNzU0ODMgQzU1LjY3NjM1OCw4MS4wMjA5NCA1NS42NzkxNjM0LDgwLjkwMzU5MjUgNTUuNjc5MTYzNCw4MC43ODU1Njg2IEM1NS42NzkxNjM0LDc4LjQ3OTc2NDEgNTQuNjA4MzY4NSw3Ni40MzIxMzk4IDUyLjkzNTEzNzgsNzUuMTExMDU0OSBaIE00OC40NTUxMTExLDc3LjAwNzQ3NzEgQzQ2LjM0MzUyOTQsNzcuMDA3NDc3MSA0NC41NjU3NTE2LDc4Ljc4NTI1NDkgNDQuNTY1NzUxNiw4MC44OTY4MzY2IEM0NC41NjU3NTE2LDgzLjAwODQxODMgNDYuMzQzNTI5NCw4NC43ODYxOTYxIDQ4LjQ1NTExMTEsODQuNzg2MTk2MSBDNTAuNTY2NjkyOCw4NC43ODYxOTYxIDUyLjM0NDQ3MDYsODMuMDA4NDE4MyA1Mi4zNDQ0NzA2LDgwLjg5NjgzNjYgQzUyLjM0NDQ3MDYsNzguNzg1MjU0OSA1MC41NjY2OTI4LDc3LjAwNzQ3NzEgNDguNDU1MTExMSw3Ny4wMDc0NzcxIFoiPiYjeGE7JiN4YTs8L3BhdGg+JiN4YTsJCTxwYXRoIGZpbGw9IiMwMDAwMDAiIGQ9Ik01My40NTU0NzcxLDE4LjMyODI2MTQgTDUzLjQ1NTQ3NzEsMzAuNTUzNTE2MyBMNDMuMzQyNjQwNSwzMC41NTM1MTYzIEw0My4zNDI2NDA1LDE4LjMyODI2MTQgQzQwLjIzMDQ4MzcsMjAuMTA2MDM5MiAzOC4xMTg5MDIsMjMuNDQwNzMyIDM4LjExODkwMiwyNy4yMTg4MjM1IEMzOC4xMTg5MDIsMzIuODg2Nzk3NCA0Mi42NzU4NjkzLDM3LjQ0MjkyODEgNDguMzQzODQzMSwzNy40NDI5MjgxIEM1NC4wMTE4MTcsMzcuNDQyOTI4MSA1OC41Njc5NDc3LDMyLjg4Njc5NzQgNTguNTY3OTQ3NywyNy4yMTg4MjM1IEM1OC42NzkyMTU3LDIzLjQ0MDczMiA1Ni41Njc2MzQsMjAuMTA2MDM5MiA1My40NTU0NzcxLDE4LjMyODI2MTQgWiI+JiN4YTsmI3hhOzwvcGF0aD4mI3hhOwkJPHBhdGggZmlsbD0iIzAwMDAwMCIgZD0iTTE0My4wMzEyMTYsMTguMzI4MjYxNCBMMTQzLjAzMTIxNiwzMC41NTM1MTYzIEwxNTMuMTQ0MDUyLDMwLjU1MzUxNjMgTDE1My4xNDQwNTIsMTguMzI4MjYxNCBDMTU2LjI1NjIwOSwyMC4xMDYwMzkyIDE1OC4zNjc3OTEsMjMuNDQwNzMyIDE1OC4zNjc3OTEsMjcuMjE4ODIzNSBDMTU4LjM2Nzc5MSwzMi44ODY3OTc0IDE1My44MTE2NiwzNy40NDI5MjgxIDE0OC4xNDM2ODYsMzcuNDQyOTI4MSBDMTQyLjQ3NTcxMiwzNy40NDI5MjgxIDEzNy45MTg3NDUsMzIuODg2Nzk3NCAxMzcuOTE4NzQ1LDI3LjIxODgyMzUgQzEzNy44MDc0NzcsMjMuNDQwNzMyIDEzOS45MTkwNTksMjAuMTA2MDM5MiAxNDMuMDMxMjE2LDE4LjMyODI2MTQgWiI+JiN4YTsmI3hhOzwvcGF0aD4mI3hhOwkJPHBhdGggZmlsbD0iIzAwMDAwMCIgZD0iTTc2LjI0MjM0MTMsODMuMjg0MjA1NCBMNzYuNDYxMTc2NSw2MC4xMTQ4MjM1IEM3Ni41NzI0NDQ0LDU0LjIyNDMxMzcgNzguOTA1NzI1NSw0OC43Nzg4NzU4IDgzLjEyODg4ODksNDQuNjY2OTgwNCBDODcuMzUyMDUyMyw0MC41NTUwODUgOTIuOTA4NzU4MiwzOC4zMzIyMzUzIDk4Ljc5ODQzMTQsMzguNDQzNTAzMyBDMTA0LjY4ODk0MSwzOC41NTQ3NzEyIDExMC4xMzQzNzksNDAuODg4MDUyMyAxMTQuMjQ2Mjc1LDQ1LjExMTIxNTcgQzExOC4zNTgxNyw0OS4zMzQzNzkxIDEyMC41ODEwMiw1NC44OTEwODUgMTIwLjQ2OTc1Miw2MC43ODE1OTQ4IEwxMjAuMTg1NjgyLDgyLjk2NzYxMDUgQzEyNC44NTM3MTEsODguMTYzMjk1IDEyNy42OTM4MDQsOTUuMDM0NDc0NiAxMjcuNjkzODA0LDEwMi41Njg5OTMgQzEyNy42OTM4MDQsMTE4Ljc3MjgxMSAxMTQuNTU4MDE0LDEzMS45MDg2MDEgOTguMzU0MTk2MSwxMzEuOTA4NjAxIEM4Mi4xNTAzNzgxLDEzMS45MDg2MDEgNjkuMDE0NTg4MiwxMTguNzcyODExIDY5LjAxNDU4ODIsMTAyLjU2ODk5MyBDNjkuMDE0NTg4Miw5NS4xODY1MjU4IDcxLjc0MTIwODEsODguNDQwODk0MyA3Ni4yNDIzNDEzLDgzLjI4NDIwNTQgWiBNMTEyLjcwNDAwNCw3Ni45NzIwNjk3IEwxMTIuOTEyNzMyLDYwLjY3MDMyNjggQzExMi45MTI3MzIsNTYuNzgwOTY3MyAxMTEuNDY3OTIyLDUzLjExMzMwNzIgMTA4LjgwMDgzNyw1MC4zMzQ5NTQyIEMxMDYuMTMzNzUyLDQ3LjU1NjYwMTMgMTAyLjQ2NjA5Miw0Ni4wMDA1MjI5IDk4LjU3NTg5NTQsNDYuMDAwNTIyOSBDOTQuNjg1Njk5Myw0Ni4wMDA1MjI5IDkxLjAxODg3NTgsNDcuNDQ1MzMzMyA4OC4yNDA1MjI5LDUwLjExMjQxODMgQzg1LjQ2MjE2OTksNTIuNzc5NTAzMyA4My45MDYwOTE1LDU2LjQ0NzE2MzQgODMuOTA2MDkxNSw2MC4zMzY1MjI5IEw4My42Njc2ODUzLDc3LjE2NDE3NDUgQzg3Ljk4NjkyNDQsNzQuNjYxODMxNCA5My4wMDMyNzc0LDczLjIyOTM4NTYgOTguMzU0MTk2MSw3My4yMjkzODU2IEMxMDMuNTY2NjUsNzMuMjI5Mzg1NiAxMDguNDYxNjMsNzQuNTg4NjU2NSAxMTIuNzA0MDA5LDc2Ljk3MjA3MjYgWiBNOTAuOTA4NDQ0NCw2OS4wMDUzODU2IEM5Mi42ODgyMzA4LDY5LjAwNTM4NTYgOTQuMTMxMDMyNyw2Ny41NjI1ODM3IDk0LjEzMTAzMjcsNjUuNzgyNzk3NCBDOTQuMTMxMDMyNyw2NC4wMDMwMTEgOTIuNjg4MjMwOCw2Mi41NjAyMDkyIDkwLjkwODQ0NDQsNjIuNTYwMjA5MiBDODkuMTI4NjU4MSw2Mi41NjAyMDkyIDg3LjY4NTg1NjIsNjQuMDAzMDExIDg3LjY4NTg1NjIsNjUuNzgyNzk3NCBDODcuNjg1ODU2Miw2Ny41NjI1ODM3IDg5LjEyODY1ODEsNjkuMDA1Mzg1NiA5MC45MDg0NDQ0LDY5LjAwNTM4NTYgWiBNMTA2LjAyMjQ4NCw2OS4wMDUzODU2IEMxMDcuODAyMjcsNjkuMDA1Mzg1NiAxMDkuMjQ1MDcyLDY3LjU2MjU4MzcgMTA5LjI0NTA3Miw2NS43ODI3OTc0IEMxMDkuMjQ1MDcyLDY0LjAwMzAxMSAxMDcuODAyMjcsNjIuNTYwMjA5MiAxMDYuMDIyNDg0LDYyLjU2MDIwOTIgQzEwNC4yNDI2OTcsNjIuNTYwMjA5MiAxMDIuNzk5ODk1LDY0LjAwMzAxMSAxMDIuNzk5ODk1LDY1Ljc4Mjc5NzQgQzEwMi43OTk4OTUsNjcuNTYyNTgzNyAxMDQuMjQyNjk3LDY5LjAwNTM4NTYgMTA2LjAyMjQ4NCw2OS4wMDUzODU2IFoiPiYjeGE7JiN4YTs8L3BhdGg+JiN4YTsJCTxwYXRoIGZpbGw9IiNFRDFDMjQiIGQ9Ik05NS42ODcxMTExLDk3Ljc5MDMyNjggTDk0LjU3NTI2OCwxMTguNzk0MDM5IEwxMDIuNzk5ODk1LDExOC43OTQwMzkgTDEwMS4xMzI1NDksOTcuNjc5MDU4OCBDMTAzLjEzMjg2Myw5Ni42Nzg0ODM3IDEwNC40NjY0MDUsOTQuNjc4MTY5OSAxMDQuNDY2NDA1LDkyLjIzMjc4NDMgQzEwNC40NjY0MDUsODguODk4OTI4MSAxMDEuNjg4MDUyLDg2LjEyMDU3NTIgOTguMzU0MTk2MSw4Ni4xMjA1NzUyIEM5NS4wMjAzMzk5LDg2LjEyMDU3NTIgOTIuMjQxOTg2OSw4OC44OTg5MjgxIDkyLjI0MTk4NjksOTIuMjMyNzg0MyBDOTIuMzUzMjU0OSw5NC43ODk0Mzc5IDkzLjY4Njc5NzQsOTYuNzg4OTE1IDk1LjY4NzExMTEsOTcuNzkwMzI2OCBaIj4mI3hhOyYjeGE7PC9wYXRoPiYjeGE7CQk8cGF0aCBmaWxsPSIjRUQxQzI0IiBkPSJNMjcuNzgzNTI5NCwxMS41NDg0NDQ0IEMyNC43ODI2NDA1LDcuMTAzNTgxNyAyMC41NTk0NzcxLDQuNTQ2OTI4MSAxNi4xMTQ2MTQ0LDQuNTQ2OTI4MSBDMTEuNTU3NjQ3MSw0LjU0NjkyODEgNy40NDU3NTE2Myw2Ljk5MTQ3NzEyIDQuMzMzNTk0NzcsMTEuNDM3MTc2NSBDMS41NTYwNzg0MywxNS41NDk5MDg1IDAsMjAuOTk1MzQ2NCAwLDI2LjY2MzMyMDMgQzAsMzIuMzMwNDU3NSAxLjU1NjA3ODQzLDM3Ljc3NjczMiA0LjMzNDQzMTM3LDQxLjg4ODYyNzUgQzcuMzM1MzIwMjYsNDYuMzMzNDkwMiAxMS41NTg0ODM3LDQ4Ljc3ODg3NTggMTYuMDAzMzQ2NCw0OC43Nzg4NzU4IEMyMC40NDkwNDU4LDQ4Ljc3ODg3NTggMjQuNjcyMjA5Miw0Ni4zMzQzMjY4IDI3Ljc4NDM2Niw0MS44ODg2Mjc1IEMyOS43ODQ2Nzk3LDM4Ljk5OTAwNjUgMzEuMTE4MjIyMiwzNS41NTM4ODI0IDMxLjY3MzcyNTUsMzEuNzc0OTU0MiBDMzEuNzg0OTkzNSwzMS4xMDgxODMgMzIuNDUxNzY0NywzMC41NTI2Nzk3IDMzLjExODUzNTksMzAuNTUyNjc5NyBMMjA5LjI2NzQ1MSwzMC42NjM5NDc3IEMyMTAuMDQ1NDksMzAuNjYzOTQ3NyAyMTAuNzEyMjYxLDI5Ljk5NzE3NjUgMjEwLjgyMzUyOSwyOS4yMTkxMzczIEwyMTAuODIzNTI5LDI0LjU1MDkwMiBDMjEwLjgyMzUyOSwyMy43NzI4NjI3IDIxMC4xNTY3NTgsMjMuMTA2MDkxNSAyMDkuMzc4NzE5LDIyLjk5NTY2MDEgTDIwNC4wNDQ1NDksMjIuOTk1NjYwMSBDMjAzLjI2NjUxLDIyLjk5NTY2MDEgMjAyLjU5OTczOSwyMi4zMjg4ODg5IDIwMi41OTk3MzksMjEuNDM5NTgxNyBMMjAyLjU5OTczOSwxLjY1NzMwNzE5IEMyMDIuNTk5NzM5LDAuODc5MjY3OTc0IDIwMS45MzI5NjcsMC4yMTI0OTY3MzIgMjAxLjE1NDkyOCwwLjEwMTIyODc1OCBMMTc4LjkyODEwNSwwLjEwMTIyODc1OCBDMTc4LjE1MDA2NSwwLjEwMTIyODc1OCAxNzcuNDgzMjk0LDAuNzY4IDE3Ny4zNzIwMjYsMS41NDYwMzkyMiBMMTc3LjM3MjAyNiwyMS4zMjgzMTM3IEMxNzcuMzcyMDI2LDIyLjEwNjM1MjkgMTc2LjcwNTI1NSwyMi43NzMxMjQyIDE3NS44MTU5NDgsMjIuNzczMTI0MiBMMTc0LjQ4MjQwNSwyMi43NzMxMjQyIEMxNzMuNzA0MzY2LDIyLjc3MzEyNDIgMTczLjAzNzU5NSwyMi4xMDYzNTI5IDE3My4wMzc1OTUsMjEuMjE3ODgyNCBMMTczLjAzNzU5NSw2LjEwMzg0MzE0IEMxNzMuMDM3NTk1LDUuMzI1ODAzOTIgMTcyLjM3MDgyNCw0LjY1OTAzMjY4IDE3MS41OTI3ODQsNC41NDc3NjQ3MSBMMTY4LjE0NzY2LDQuNTQ3NzY0NzEgQzE2Ny4zNjk2MjEsNC41NDc3NjQ3MSAxNjYuNzAyODUsNS4yMTQ1MzU5NSAxNjYuNTkxNTgyLDUuOTkyNTc1MTYgTDE2Ni41OTE1ODIsMjEuMTA2NjE0NCBDMTY2LjU5MTU4MiwyMS44ODQ2NTM2IDE2NS45MjQ4MSwyMi41NTE0MjQ4IDE2NS4wMzYzNCwyMi41NTE0MjQ4IEwzMy4yMjk4MDM5LDIyLjU1MTQyNDggQzMyLjQ1MTc2NDcsMjIuNTUxNDI0OCAzMS44OTYyNjE0LDIxLjk5NTkyMTYgMzEuNzg0OTkzNSwyMS4zMjkxNTAzIEMzMS4wMDYxMTc2LDE3Ljg4MzE4OTUgMjkuNzg0Njc5NywxNC4zMjY3OTc0IDI3Ljc4MzUyOTQsMTEuNTQ4NDQ0NCBaIE0xNi4wMDMzNDY0LDQyLjU1NTM5ODcgQzEwLjY2OTE3NjUsNDIuNTU1Mzk4NyA2LjExMjIwOTE1LDM1LjIyMDA3ODQgNi4xMTIyMDkxNSwyNi42NjMzMjAzIEM2LjExMjIwOTE1LDE4LjEwNTcyNTUgMTAuNjY5MTc2NSwxMC43NzA0MDUyIDE2LjExNDYxNDQsMTAuNzcwNDA1MiBDMjEuNTYwMDUyMywxMC43NzA0MDUyIDI2LjAwNTc1MTYsMTguMTA1NzI1NSAyNi4wMDU3NTE2LDI2LjY2MzMyMDMgQzI2LjAwNTc1MTYsMzUuMjIwOTE1IDIxLjMzNzUxNjMsNDIuNTU1Mzk4NyAxNi4wMDMzNDY0LDQyLjU1NTM5ODcgWiI+JiN4YTsmI3hhOzwvcGF0aD4mI3hhOwkJPHBhdGggZmlsbD0iIzAwMDAwMCIgZD0iTTU1Ljc5MDQzMTQsMzMuMzMxMDMyNyBDNTUuMDEyMzkyMiwzMi4yMTkxODk1IDU0LjIzNDM1MjksMzEuNjYzNjg2MyA1My40NTYzMTM3LDMwLjU1MjY3OTcgTDUzLjQ1NjMxMzcsMzAuNTUyNjc5NyBMNDMuMzQyNjQwNSwzMC41NTI2Nzk3IEw0My4zNDI2NDA1LDE4LjMyNzQyNDggQzQwLjIzMDQ4MzcsMjAuMTA1MjAyNiAzOC4xMTg5MDIsMjMuNDM5ODk1NCAzOC4xMTg5MDIsMjcuMjE3OTg2OSBDMzguMTE4OTAyLDMyLjg4NTk2MDggNDIuNjc1ODY5MywzNy40NDIwOTE1IDQ4LjM0Mzg0MzEsMzcuNDQyMDkxNSBDNTEuNDU1MTYzNCwzNy40NDIwOTE1IDU0LjIzNDM1MjksMzUuOTk3MjgxIDU2LjEyMzM5ODcsMzMuODg1Njk5MyBDNTYuMTIzMzk4NywzMy42NjQ4MzY2IDU1LjkwMDg2MjcsMzMuNTUzNTY4NiA1NS43OTA0MzE0LDMzLjMzMTAzMjcgWiI+JiN4YTsmI3hhOzwvcGF0aD4mI3hhOwkJPHBhdGggZmlsbD0iIzAwMDAwMCIgZD0iTTE0MC44MDgzNjYsMzMuMzMxMDMyNyBDMTQxLjU4NjQwNSwzMi4yMTkxODk1IDE0MS44MDgxMDUsMzEuNjYzNjg2MyAxNDIuNTg2MTQ0LDMwLjU1MjY3OTcgTDE0My4xNDE2NDcsMzAuNTUyNjc5NyBMMTUzLjI1NDQ4NCwzMC41NTI2Nzk3IEwxNTMuMjU0NDg0LDE4LjMyNzQyNDggQzE1Ni4zNjY2NDEsMjAuMTA1MjAyNiAxNTguNDc4MjIyLDIzLjQzOTg5NTQgMTU4LjQ3ODIyMiwyNy4yMTc5ODY5IEMxNTguNDc4MjIyLDMyLjg4NTk2MDggMTUzLjkyMjA5MiwzNy40NDIwOTE1IDE0OC4yNTQxMTgsMzcuNDQyMDkxNSBDMTQ1LjE0MTk2MSwzNy40NDIwOTE1IDE0Mi4zNjM2MDgsMzUuOTk3MjgxIDE0MC40NzQ1NjIsMzMuODg1Njk5MyBDMTQwLjQ3NTM5OSwzMy42NjQ4MzY2IDE0MC41ODU4MywzMy41NTM1Njg2IDE0MC44MDgzNjYsMzMuMzMxMDMyNyBaIj4mI3hhOyYjeGE7PC9wYXRoPiYjeGE7CQk8cGF0aCBmaWxsPSIjMDAwMDAwIiBkPSJNMTY2LjE0NzM0NiwxNjMuMjQ4NTIzIEMxNjkuMDM2OTY3LDE2My4yNDg1MjMgMTcxLjM3MTA4NSwxNjIuMzYwMDUyIDE3My4wMzc1OTUsMTYwLjY5MTg2OSBDMTc0LjgxNTM3MywxNTkuMDI1MzU5IDE3NS41OTM0MTIsMTU2LjgwMjUxIDE3NS41OTM0MTIsMTU0LjAyNDE1NyBMMTkwLjE1MTk0OCwxNTQuMDI0MTU3IEwxOTAuMjYzMjE2LDE1NC4zNTcxMjQgQzE5MC4zNzQ0ODQsMTYwLjM1ODA2NSAxODguMTUxNjM0LDE2NS40NzA1MzYgMTgzLjQ4MzM5OSwxNjkuNTgyNDMxIEMxNzguODE2LDE3My42OTQzMjcgMTcyLjkyNTQ5LDE3NS42OTQ2NDEgMTY2LjAzNTI0MiwxNzUuNjk0NjQxIEMxNTcuMTQ0NjgsMTc1LjY5NDY0MSAxNTAuMjU0NDMxLDE3Mi45MTcxMjQgMTQ1LjM2NDQ5NywxNjcuMjQ4MzE0IEMxNDAuNTg1ODMsMTYxLjU4MTE3NiAxMzguMTQwNDQ0LDE1NC4zNTcxMjQgMTM4LjE0MDQ0NCwxNDUuNDY1NzI1IEwxMzguMTQwNDQ0LDE0My43OTkyMTYgQzEzOC4xNDA0NDQsMTM1LjAxOTA4NSAxNDAuNTg1ODMsMTI3Ljc5NTg2OSAxNDUuNTg2MTk2LDEyMi4wMTY2MjcgQzE1MC41ODczOTksMTE2LjM0OTQ5IDE1Ny41ODg5MTUsMTEzLjQ1OTAzMyAxNjYuODEzMjgxLDExMy40NTkwMzMgQzE3MS41OTE5NDgsMTEzLjQ1OTAzMyAxNzUuOTI2Mzc5LDExNC4xMjU4MDQgMTc5LjgxNTczOSwxMTUuNTY5Nzc4IEMxODMuNTk0NjY3LDExNy4wMTU0MjUgMTg2LjgxNzI1NSwxMTkuMDE0OTAyIDE4OS4zNzMwNzIsMTIxLjY4MjgyNCBMMTg5LjU5NTYwOCwxMzcuNjg2MTcgTDE3Ni40ODE4ODIsMTM3LjY4NjE3IEwxNzMuODE0Nzk3LDEyOC4zNTEzNzMgQzE3My4wMzY3NTgsMTI3LjY4NDYwMSAxNzIuMDM3MDIsMTI3LjAxNjk5MyAxNzAuODE0NzQ1LDEyNi41NzI3NTggQzE2OS41OTI0NzEsMTI2LjEyODUyMyAxNjguMjU4MDkyLDEyNS45MDU5ODcgMTY2LjgxNDExOCwxMjUuOTA1OTg3IEMxNjIuMjU3MTUsMTI1LjkwNTk4NyAxNTkuMDM0NTYyLDEyNy41NzMzMzMgMTU3LjE0NTUxNiwxMzAuOTA3MTkgQzE1NS4yNTU2MzQsMTM0LjI0MTA0NiAxNTQuMzY3MTYzLDEzOC40NjQyMDkgMTU0LjM2NzE2MywxNDMuNjg3OTQ4IEwxNTQuMzY3MTYzLDE0NS4zNTQ0NTggQzE1NC4zNjcxNjMsMTUwLjY4OTQ2NCAxNTUuMjU1NjM0LDE1NS4wMjM4OTUgMTU2LjkyMjk4LDE1OC4yNDY0ODQgQzE1OC44MTIwMjYsMTYxLjU4MjAxMyAxNjEuODEyOTE1LDE2My4yNDg1MjMgMTY2LjE0NzM0NiwxNjMuMjQ4NTIzIFogTTIyNS4xNjAzNjYsMTc1LjU4NDIwOSBDMjE2LjQ5MTUwMywxNzUuNTg0MjA5IDIwOS42MDEyNTUsMTcyLjgwNjY5MyAyMDQuNDg5NjIxLDE2Ny4yNDkxNSBDMTk5LjM3NzE1LDE2MS42OTI0NDQgMTk2LjcxMDA2NSwxNTQuNjkwOTI4IDE5Ni43MTAwNjUsMTQ2LjEzMzMzMyBMMTk2LjcxMDA2NSwxNDMuOTExMzIgQzE5Ni43MTAwNjUsMTM1LjAxOTkyMiAxOTkuMTU1NDUxLDEyNy42ODU0MzggMjA0LjA0NTM4NiwxMjEuOTA2MTk2IEMyMDguOTM1MzIsMTE2LjEyNzc5MSAyMTUuNDkyNjAxLDExMy4zNDg2MDEgMjIzLjcxNjM5MiwxMTMuMzQ4NjAxIEMyMzEuODI4OTE1LDExMy4zNDg2MDEgMjM4LjA1MjM5MiwxMTUuNzkzMTUgMjQyLjQ5ODA5MiwxMjAuNjgzOTIyIEMyNDYuOTQyOTU0LDEyNS41NzM4NTYgMjQ5LjE2NTgwNCwxMzIuMTMxMTM3IDI0OS4xNjU4MDQsMTQwLjQ2NjE5NiBMMjQ5LjE2NTgwNCwxNDkuMjQ1NDkgTDIxMy40OTE0NTEsMTQ5LjI0NTQ5IEwyMTMuMzgwMTgzLDE0OS41Nzg0NTggQzIxMy43MTM5ODcsMTUzLjU3OTA4NSAyMTUuMDQ3NTI5LDE1Ni44MDI1MSAyMTcuMzgxNjQ3LDE1OS4zNTgzMjcgQzIxOS43MTU3NjUsMTYxLjkxNDk4IDIyMi45MzgzNTMsMTYzLjEzNzI1NSAyMjYuOTM4OTgsMTYzLjEzNzI1NSBDMjMwLjQ5NDUzNiwxNjMuMTM3MjU1IDIzMy40OTU0MjUsMTYyLjgwNDI4OCAyMzUuODI5NTQyLDE2Mi4wMjYyNDggQzIzOC4xNjM2NiwxNjEuMzU5NDc3IDI0MC43MTk0NzcsMTYwLjEzNjM2NiAyNDMuNjA5MDk4LDE1OC41ODExMjQgTDI0Ny45NDM1MjksMTY4LjU4MjY5MyBDMjQ1LjQ5ODE0NCwxNzAuNTgzODQzIDI0Mi4yNzU1NTYsMTcyLjEzOTA4NSAyMzguMzg2MTk2LDE3My40NzM0NjQgQzIzNC4zODM4OTUsMTc0LjkxNzQzOCAyMzAuMDQ5NDY0LDE3NS41ODQyMDkgMjI1LjE2MDM2NiwxNzUuNTg0MjA5IFogTTIyMy43MTU1NTYsMTI2LjAxODA5MiBDMjIwLjcxNDY2NywxMjYuMDE4MDkyIDIxOC4zODEzODYsMTI3LjEyOTA5OCAyMTYuNjAyNzcxLDEyOS40NjMyMTYgQzIxNC44MjQxNTcsMTMxLjc5NzMzMyAyMTMuODI0NDE4LDEzNC43OTczODYgMjEzLjM3OTM0NiwxMzguNDY1MDQ2IEwyMTMuNDkwNjE0LDEzOC42ODg0MTggTDIzMy4zODQxNTcsMTM4LjY4ODQxOCBMMjMzLjM4NDE1NywxMzcuMjQyNzcxIEMyMzMuMzg0MTU3LDEzMy43OTc2NDcgMjMyLjYwNjExOCwxMzEuMTMwNTYyIDIzMC45Mzk2MDgsMTI5LjAxODk4IEMyMjkuMzgzNTI5LDEyNy4wMTc4MyAyMjcuMDQ5NDEyLDEyNi4wMTgwOTIgMjIzLjcxNTU1NiwxMjYuMDE4MDkyIFogTTI1OC42MTE4NjksMTY0LjgwMzc2NSBMMjY2LjM5MTQyNSwxNjMuMTM3MjU1IEwyNjYuMzkxNDI1LDEyNi4wMTgwOTIgTDI1Ny44MzM4MywxMjQuMzUxNTgyIEwyNTcuODMzODMsMTE0LjU3MTcxMiBMMjgxLjM5NTAzMywxMTQuNTcxNzEyIEwyODIuMDYxODA0LDEyMy4zNTEwMDcgQzI4My41MDY2MTQsMTIwLjIzOTY4NiAyODUuMjg1MjI5LDExNy43OTQzMDEgMjg3LjUwNzI0MiwxMTYuMTI3NzkxIEMyODkuNzMwMDkyLDExNC4zNDkxNzYgMjkyLjI4Njc0NSwxMTMuNTcxMTM3IDI5NS4xNzU1MjksMTEzLjU3MTEzNyBDMjk2LjA2NDgzNywxMTMuNTcxMTM3IDI5Ni45NTQxNDQsMTEzLjY4MjQwNSAyOTcuODQyNjE0LDExMy43OTM2NzMgQzI5OC43MzEwODUsMTEzLjkwNDk0MSAyOTkuNTA5OTYxLDExNC4xMjY2NDEgMzAwLjE3NjczMiwxMTQuMjM3OTA4IEwzMDAuMTc2NzMyLDEyNi40NjIzMjcgTDI5NS4zOTcyMjksMTI2LjU3MzU5NSBDMjkxLjE3NDA2NSwxMjYuNTczNTk1IDI4Ny4zOTU5NzQsMTI4LjEyOTY3MyAyODYuMDYyNDMxLDEyOS4wMTg5OCBDMjg0LjYxNzYyMSwxMzAuMDE4NzE5IDI4My4yODQwNzgsMTMyLjM1MjgzNyAyODIuMzk0NzcxLDEzNC4wMjAxODMgTDI4Mi4zOTQ3NzEsMTYzLjEzNzI1NSBMMjkwLjE3NDMyNywxNjQuODAzNzY1IEwyOTAuMTc0MzI3LDE3NC40NzMyMDMgTDI1OC41MDE0MzgsMTc0LjQ3MzIwMyBMMjU4LjUwMTQzOCwxNjQuODAzNzY1IEwyNTguNjExODY5LDE2NC44MDM3NjUgWiBNMzMyLjYyNzY2LDEwMC4wMTIzNCBMMzMyLjYyNzY2LDExNC4yMzc5MDggTDM0My4xODU1NjksMTE0LjIzNzkwOCBMMzQzLjE4NTU2OSwxMjYuNDYyMzI3IEwzMzIuNjI3NjYsMTI2LjQ2MjMyNyBMMzMyLjYyNzY2LDE1Ni40Njg3MDYgQzMzMi42Mjc2NiwxNTguODAyODI0IDMzMy4wNzE4OTUsMTYwLjQ2OTMzMyAzMzQuMDczMzA3LDE2MS40NzA3NDUgQzMzNS4wNzMwNDYsMTYyLjQ3MDQ4NCAzMzYuMjk1MzIsMTYyLjkxNTU1NiAzMzcuOTYyNjY3LDE2Mi45MTU1NTYgQzMzOS4wNzM2NzMsMTYyLjkxNTU1NiAzNDAuMDczNDEyLDE2Mi45MTU1NTYgMzQwLjg1MTQ1MSwxNjIuODA0Mjg4IEMzNDEuNjMwMzI3LDE2Mi42OTMwMiAzNDIuNjMwMDY1LDE2Mi41ODE3NTIgMzQzLjYyOTgwNCwxNjIuMzYwMDUyIEwzNDQuOTY0MTgzLDE3NC4wMjg5NjcgQzM0My4xODU1NjksMTc0LjU4NDQ3MSAzNDEuNDA3NzkxLDE3NS4wMjg3MDYgMzM5LjYyOTE3NiwxNzUuMjUxMjQyIEMzMzcuODUxMzk5LDE3NS40NzM3NzggMzM1Ljk2MTUxNiwxNzUuNjk1NDc3IDMzMy44NTA3NzEsMTc1LjY5NTQ3NyBDMzI4LjI5MzIyOSwxNzUuNjk1NDc3IDMyMy45NTk2MzQsMTc0LjE0MDIzNSAzMjAuOTU4NzQ1LDE3MS4xMzkzNDYgQzMxNy45NTc4NTYsMTY4LjAyNzE5IDMxNi40MDI2MTQsMTYzLjI0ODUyMyAzMTYuNDAyNjE0LDE1Ni41ODA4MSBMMzE2LjQwMjYxNCwxMjYuNTc0NDMxIEwzMDcuNjIzMzIsMTI2LjU3NDQzMSBMMzA3LjYyMzMyLDExNC4zNTAwMTMgTDMxNi40MDI2MTQsMTE0LjM1MDAxMyBMMzE2LjQwMjYxNCwxMDAuMDEzMTc2IEwzMzIuNjI3NjYsMTAwLjAxMzE3NiBMMzMyLjYyNzY2LDEwMC4wMTIzNCBaIj4mI3hhOyYjeGE7PC9wYXRoPiYjeGE7CQk8cGF0aCBmaWxsPSIjRUQxQzI0IiBkPSJNNDA3LjY0NDAyNiwxNDYuMjQ1NDM4IEM0MDcuNjQ0MDI2LDE1NS4xMzYgNDA1LjY0MzcxMiwxNjIuMjQ4Nzg0IDQwMS42NDMwODUsMTY3LjY5NDIyMiBDMzk3LjY0MjQ1OCwxNzMuMDI5MjI5IDM5MS44NjMyMTYsMTc1LjY5NTQ3NyAzODQuNDE2NjI3LDE3NS42OTU0NzcgQzM4MC44NjAyMzUsMTc1LjY5NTQ3NyAzNzcuODU5MzQ2LDE3NC45MTc0MzggMzc1LjMwMzUyOSwxNzMuNDczNDY0IEMzNzIuNzQ2ODc2LDE3Mi4wMjc4MTcgMzcwLjUyNDAyNiwxNjkuOTE3MDcyIDM2OC43NDYyNDgsMTY3LjEzODcxOSBMMzY3LjYzNTI0MiwxNzQuNDc0MDM5IEwzNTMuNzQzNDc3LDE3NC40NzQwMzkgTDM1My43NDM0NzcsOTkuNTY4OTQxMiBMMzQ1LjE4NTg4Miw5Ny45MDI0MzE0IEwzNDUuMTg1ODgyLDg4LjEyMjU2MjEgTDM2OS44NTcyNTUsODguMTIyNTYyMSBMMzY5Ljg1NzI1NSwxMjAuOTA3Mjk0IEMzNzEuNjM1ODY5LDExOC40NjE5MDggMzczLjYzNjE4MywxMTYuNjg0MTMxIDM3Ni4wODA3MzIsMTE1LjM0OTc1MiBDMzc4LjUyNjExOCwxMTQuMDE2MjA5IDM4MS4zMDM2MzQsMTEzLjQ2MDcwNiAzODQuNDE1NzkxLDExMy40NjA3MDYgQzM5MS45NzI4MSwxMTMuNDYwNzA2IDM5Ny43NTIwNTIsMTE2LjM1MDMyNyA0MDEuNzUzNTE2LDEyMi4wMTgzMDEgQzQwNS43NTQxNDQsMTI3Ljc5NzU0MiA0MDcuNzU0NDU4LDEzNS4zNTQ1NjIgNDA3Ljc1NDQ1OCwxNDQuOTExODk1IEw0MDcuNzU0NDU4LDE0Ni4yNDYyNzUgTDQwNy42NDQwMjYsMTQ2LjI0NjI3NSBMNDA3LjY0NDAyNiwxNDYuMjQ1NDM4IFogTTM5MS41Mjk0MTIsMTQ1LjAyMjMyNyBDMzkxLjUyOTQxMiwxMzkuMjQzOTIyIDM5MC42NDA5NDEsMTM0LjU3NTY4NiAzODguOTcyNzU4LDEzMS4xMzEzOTkgQzM4Ny4zMDYyNDgsMTI3LjY4NjI3NSAzODQuMzA1MzU5LDEyNi4wMTg5MjggMzgwLjE5MzQ2NCwxMjYuMDE4OTI4IEMzNzcuNjM2ODEsMTI2LjAxODkyOCAzNzUuNTI2MDY1LDEyNi41NzQ0MzEgMzczLjg1ODcxOSwxMjcuNTc1MDA3IEMzNzIuMDgwOTQxLDEyOC41NzQ3NDUgMzcwLjc0NjU2MiwxMzAuMTMwODI0IDM2OS43NDY4MjQsMTMyLjEzMTEzNyBMMzY5Ljc0NjgyNCwxNTcuMzU4MDEzIEMzNzAuNzQ2NTYyLDE1OS4yNDc4OTUgMzcyLjA4MDk0MSwxNjAuNTgxNDM4IDM3My44NTg3MTksMTYxLjU4MjAxMyBDMzc1LjYzNzMzMywxNjIuNTgxNzUyIDM3Ny43NDgwNzgsMTYzLjAyNjgyNCAzODAuMzA0NzMyLDE2My4wMjY4MjQgQzM4NC40MTY2MjcsMTYzLjAyNjgyNCAzODcuNDE3NTE2LDE2MS41ODIwMTMgMzg5LjA4NDAyNiwxNTguNTgxOTYxIEMzOTAuNzUxMzczLDE1NS42OTIzNCAzOTEuNTI5NDEyLDE1MS40NjkxNzYgMzkxLjUyOTQxMiwxNDYuMTM1MDA3IEwzOTEuNTI5NDEyLDE0NS4wMjIzMjcgWiBNNDE0LjQyMzAwNywxNDQuMDIxNzUyIEM0MTQuNDIzMDA3LDEzNS4xMzExOSA0MTYuODY4MzkyLDEyNy43OTU4NjkgNDIxLjg2ODc1OCwxMjIuMTI3ODk1IEM0MjYuODY5OTYxLDExNi40NjA3NTggNDMzLjc2MDIwOSwxMTMuNTcwMzAxIDQ0Mi41NDAzNCwxMTMuNTcwMzAxIEM0NTEuNDMwOTAyLDExMy41NzAzMDEgNDU4LjMyMTE1LDExNi40NTk5MjIgNDYzLjMyMjM1MywxMjIuMTI3ODk1IEM0NjguMzIzNTU2LDEyNy43OTU4NjkgNDcwLjc2ODEwNSwxMzUuMTMxMTkgNDcwLjc2ODEwNSwxNDQuMTMzMDIgTDQ3MC43NjgxMDUsMTQ1LjI0NDAyNiBDNDcwLjc2ODEwNSwxNTQuMjQ2NjkzIDQ2OC4zMjI3MTksMTYxLjU4MTE3NiA0NjMuMzIyMzUzLDE2Ny4yNDkxNSBDNDU4LjMyMTE1LDE3Mi45MTcxMjQgNDUxLjQzMDkwMiwxNzUuNjk1NDc3IDQ0Mi42NTE2MDgsMTc1LjY5NTQ3NyBDNDMzLjc2MDIwOSwxNzUuNjk1NDc3IDQyNi44Njk5NjEsMTcyLjkxNzk2MSA0MjEuODY4NzU4LDE2Ny4yNDkxNSBDNDE2Ljg2NzU1NiwxNjEuNTgyMDEzIDQxNC40MjMwMDcsMTU0LjI0NjY5MyA0MTQuNDIzMDA3LDE0NS4yNDQwMjYgTDQxNC40MjMwMDcsMTQ0LjAyMTc1MiBaIE00MzAuNTM3NjIxLDE0NS4xMzI3NTggQzQzMC41Mzc2MjEsMTUwLjU3OTAzMyA0MzEuNTM4MTk2LDE1NC45MTI2MjcgNDMzLjQyNzI0MiwxNTguMjQ3MzIgQzQzNS4zMTcxMjQsMTYxLjU4MTE3NiA0MzguNDI4NDQ0LDE2My4yNDg1MjMgNDQyLjc2Mjg3NiwxNjMuMjQ4NTIzIEM0NDYuODc0NzcxLDE2My4yNDg1MjMgNDQ5Ljk4NjkyOCwxNjEuNTgyMDEzIDQ1MS44NzU5NzQsMTU4LjI0NzMyIEM0NTMuNzY1ODU2LDE1NC45MTM0NjQgNDU0Ljc2NTU5NSwxNTAuNTc5MDMzIDQ1NC43NjU1OTUsMTQ1LjEzMjc1OCBMNDU0Ljc2NTU5NSwxNDQuMDIxNzUyIEM0NTQuNzY1NTk1LDEzOC42ODc1ODIgNDUzLjc2NTg1NiwxMzQuMzUyMzE0IDQ1MS44NzU5NzQsMTMxLjAxODQ1OCBDNDQ5Ljg3NTY2LDEyNy42ODU0MzggNDQ2Ljg3NDc3MSwxMjYuMDE3MjU1IDQ0Mi42NTI0NDQsMTI2LjAxNzI1NSBDNDM4LjQyODQ0NCwxMjYuMDE3MjU1IDQzNS40MjgzOTIsMTI3LjY4NDYwMSA0MzMuNDI4MDc4LDEzMS4wMTg0NTggQzQzMS41MzkwMzMsMTM0LjM1MjMxNCA0MzAuNTM4NDU4LDEzOC42ODc1ODIgNDMwLjUzODQ1OCwxNDQuMDIxNzUyIEw0MzAuNTM4NDU4LDE0NS4xMzI3NTggTDQzMC41Mzc2MjEsMTQ1LjEzMjc1OCBaIE00OTkuNjY0MzE0LDEwMC4wMTIzNCBMNDk5LjY2NDMxNCwxMTQuNjgyMTQ0IEw1MTAuMjIyMjIyLDExNC42ODIxNDQgTDUxMC4yMjIyMjIsMTI2LjAxODA5MiBMNDk5LjY2NDMxNCwxMjYuMDE4MDkyIEw0OTkuNjY0MzE0LDE1Ni40Njg3MDYgQzQ5OS42NjQzMTQsMTU4LjgwMjgyNCA1MDAuMTA4NTQ5LDE2MC40NjkzMzMgNTAxLjEwOTEyNCwxNjEuNDcwNzQ1IEM1MDIuMTA4ODYzLDE2Mi40NzA0ODQgNTAzLjMzMTk3NCwxNjIuOTE1NTU2IDUwNC45OTg0ODQsMTYyLjkxNTU1NiBDNTA2LjEwOTQ5LDE2Mi45MTU1NTYgNTA3LjExMDA2NSwxNjIuOTE1NTU2IDUwNy44ODgxMDUsMTYyLjgwNDI4OCBDNTA4LjY2NjE0NCwxNjIuNjkzMDIgNTA5LjY2NTg4MiwxNjIuNTgxNzUyIDUxMC42NjY0NTgsMTYyLjM2MDA1MiBMNTEyLDE3NC4wMjg5NjcgQzUxMC4yMjIyMjIsMTc0LjU4NDQ3MSA1MDguNDQzNjA4LDE3NS4wMjg3MDYgNTA2LjY2NTgzLDE3NS4yNTEyNDIgQzUwNC44ODcyMTYsMTc1LjQ3Mzc3OCA1MDIuOTk4MTcsMTc1LjY5NTQ3NyA1MDAuODg2NTg4LDE3NS42OTU0NzcgQzQ5NS4zMjk4ODIsMTc1LjY5NTQ3NyA0OTAuOTk1NDUxLDE3NC4xNDAyMzUgNDg3Ljk5NTM5OSwxNzEuMTM5MzQ2IEM0ODQuOTk0NTEsMTY4LjAyNzE5IDQ4My40Mzg0MzEsMTYzLjI0ODUyMyA0ODMuNDM4NDMxLDE1Ni41ODA4MSBMNDgzLjQzODQzMSwxMjYuMDE4OTI4IEw0NzQuNjU5MTM3LDEyNi4wMTg5MjggTDQ3NC42NTkxMzcsMTE0LjY4Mjk4IEw0ODMuNDM4NDMxLDExNC42ODI5OCBMNDgzLjQzODQzMSwxMDAuMDEzMTc2IEw0OTkuNjY0MzE0LDEwMC4wMTMxNzYgTDQ5OS42NjQzMTQsMTAwLjAxMjM0IFoiPiYjeGE7JiN4YTs8L3BhdGg+JiN4YTsJPC9nPiYjeGE7PC9zdmc+" parent="5G_yt-iN49mRIbdVEVWk-1" vertex="1">
          <mxGeometry x="-1280" y="-514.04" width="80" height="27.4" as="geometry" />
        </mxCell>
        <mxCell id="97VEx7d3AJvrEYCF94zA-1" style="edgeStyle=orthogonalEdgeStyle;rounded=0;orthogonalLoop=1;jettySize=auto;html=1;exitX=0;exitY=0.5;exitDx=0;exitDy=0;entryX=0.75;entryY=0;entryDx=0;entryDy=0;endArrow=none;endFill=0;dashed=1;strokeColor=#007FFF;" parent="5G_yt-iN49mRIbdVEVWk-1" source="97VEx7d3AJvrEYCF94zA-0" target="2x0kGgbs7OKSk3ZMjQRD-20" edge="1">
          <mxGeometry relative="1" as="geometry">
            <Array as="points">
              <mxPoint x="-980" y="-434" />
              <mxPoint x="-980" y="-530" />
              <mxPoint x="-1149" y="-530" />
            </Array>
          </mxGeometry>
        </mxCell>
        <mxCell id="97VEx7d3AJvrEYCF94zA-0" value="&lt;div&gt;auth_basic &quot;Restricted Content&quot;;&lt;/div&gt;&lt;div&gt;auth_basic_user_file /etc/nginx/.htpasswd;&lt;/div&gt;" style="rounded=0;whiteSpace=wrap;html=1;align=left;fillColor=#FFF2CC;strokeColor=#d6b656;" parent="5G_yt-iN49mRIbdVEVWk-1" vertex="1">
          <mxGeometry x="-970" y="-450" width="324" height="30.06" as="geometry" />
        </mxCell>
        <mxCell id="97VEx7d3AJvrEYCF94zA-2" value="External SaaS&lt;br&gt;Providers&lt;br&gt;&lt;font color=&quot;#9e9e9e&quot;&gt;Docker Images Registry&lt;/font&gt;" style="sketch=0;points=[[0,0,0],[0.25,0,0],[0.5,0,0],[0.75,0,0],[1,0,0],[1,0.25,0],[1,0.5,0],[1,0.75,0],[1,1,0],[0.75,1,0],[0.5,1,0],[0.25,1,0],[0,1,0],[0,0.75,0],[0,0.5,0],[0,0.25,0]];rounded=1;absoluteArcSize=1;arcSize=2;html=1;strokeColor=#666666;shadow=0;dashed=0;fontSize=12;fontColor=#333333;align=left;verticalAlign=top;spacing=10;spacingTop=-4;whiteSpace=wrap;fillColor=#f5f5f5;" parent="5G_yt-iN49mRIbdVEVWk-1" vertex="1">
          <mxGeometry x="-1680" y="-890" width="280" height="131" as="geometry" />
        </mxCell>
        <mxCell id="97VEx7d3AJvrEYCF94zA-4" value="" style="image;sketch=0;aspect=fixed;html=1;points=[];align=center;fontSize=12;image=img/lib/mscae/Docker.svg;" parent="5G_yt-iN49mRIbdVEVWk-1" vertex="1">
          <mxGeometry x="-1568.1799999999998" y="-837.22" width="50" height="41" as="geometry" />
        </mxCell>
        <mxCell id="97VEx7d3AJvrEYCF94zA-5" value="&lt;span style=&quot;font-size: 16px;&quot;&gt;&lt;b&gt;Docker Hub&lt;/b&gt;&lt;/span&gt;" style="text;html=1;strokeColor=none;fillColor=none;align=center;verticalAlign=middle;whiteSpace=wrap;rounded=0;" parent="5G_yt-iN49mRIbdVEVWk-1" vertex="1">
          <mxGeometry x="-1593.18" y="-890" width="100" height="30" as="geometry" />
        </mxCell>
        <mxCell id="97VEx7d3AJvrEYCF94zA-6" value="registry.hub.docker.com/postgres:16.0-bookworm&lt;br&gt;registry.hub.docker.com/postgres:latest" style="text;html=1;strokeColor=none;fillColor=none;align=center;verticalAlign=middle;whiteSpace=wrap;rounded=0;" parent="5G_yt-iN49mRIbdVEVWk-1" vertex="1">
          <mxGeometry x="-1675" y="-797.2199999999999" width="270" height="30" as="geometry" />
        </mxCell>
        <mxCell id="97VEx7d3AJvrEYCF94zA-8" style="edgeStyle=orthogonalEdgeStyle;rounded=0;orthogonalLoop=1;jettySize=auto;html=1;exitX=0;exitY=0.25;exitDx=0;exitDy=0;entryX=1.014;entryY=0.416;entryDx=0;entryDy=0;entryPerimeter=0;dashed=1;" parent="5G_yt-iN49mRIbdVEVWk-1" source="2x0kGgbs7OKSk3ZMjQRD-25" target="97VEx7d3AJvrEYCF94zA-4" edge="1">
          <mxGeometry relative="1" as="geometry">
            <Array as="points">
              <mxPoint x="-1138" y="-450" />
              <mxPoint x="-1380" y="-450" />
              <mxPoint x="-1380" y="-821" />
            </Array>
          </mxGeometry>
        </mxCell>
        <mxCell id="97VEx7d3AJvrEYCF94zA-10" value="" style="shape=image;verticalLabelPosition=bottom;verticalAlign=top;imageAspect=0;aspect=fixed;image=data:image/svg+xml,PHN2ZyB4bWxucz0iaHR0cDovL3d3dy53My5vcmcvMjAwMC9zdmciIHZpZXdCb3g9IjAgMCAxMDI0IDEwMjQiIGhlaWdodD0iODAwcHgiIHdpZHRoPSI4MDBweCI+JiN4YTsgICA8Y2lyY2xlIHN0eWxlPSJmaWxsOiMwMDkxZTIiIHI9IjUxMiIgY3k9IjUxMiIgY3g9IjUxMiIvPiYjeGE7ICAgPHBhdGggc3R5bGU9ImZpbGw6I2ZmZiIgZD0iTTgyNy4zIDQ2MS41Yy0xLjYtMS4zLTE2LjEtMTIuMi00Ni43LTEyLjItOC4xIDAtMTYuMi42LTI0LjIgMi4xLTUuOS00MC43LTM5LjUtNjAuNS00MS02MS40bC04LjItNC44LTUuNCA3LjhjLTYuOCAxMC41LTExLjcgMjItMTQuNiAzNC4yLTUuNSAyMy4yLTIuMiA0NSA5LjYgNjMuNi0xNC4yIDcuOS0zNy4xIDkuOS00MS43IDEwSDI3N2MtOS45IDAtMTcuOSA4LTE3LjkgMTcuOS0uNCAzMy4xIDUuMiA2NiAxNi41IDk3LjEgMTMgMzQuMiAzMi40IDU5LjMgNTcuNiA3NC43IDI4LjIgMTcuMyA3NC4xIDI3LjIgMTI2LjIgMjcuMiAyMy41LjEgNDctMi4xIDcwLjEtNi40IDMyLjEtNS45IDYzLTE3LjEgOTEuNC0zMy4yIDIzLjQtMTMuNiA0NC41LTMwLjggNjIuNC01MS4xIDI5LjktMzMuOSA0Ny44LTcxLjcgNjEuMS0xMDUuMmg1LjNjMzIuOCAwIDUzLTEzLjEgNjQuMS0yNC4xIDcuNC03IDEzLjItMTUuNSAxNi45LTI1bDIuMy02LjktNS43LTQuM3pNMzEyIDQ4OS45aDUwLjdjMi40IDAgNC40LTIgNC40LTQuNHYtNDUuMWMwLTIuNC0yLTQuNC00LjQtNC41SDMxMmMtMi40IDAtNC40IDItNC40IDQuNHY0NS4yYzAgMi41IDIgNC40IDQuNCA0LjRtNjkuOSAwaDUwLjdjMi40IDAgNC40LTIgNC40LTQuNHYtNDUuMWMwLTIuNC0yLTQuNC00LjQtNC41aC01MC43Yy0yLjUgMC00LjUgMi00LjUgNC41djQ1LjFjMCAyLjUgMiA0LjQgNC41IDQuNG03MC44LjFoNTAuN2MyLjQgMCA0LjQtMiA0LjQtNC40di00NS4xYzAtMi40LTItNC40LTQuNC00LjVoLTUwLjdjLTIuNCAwLTQuNCAyLTQuNCA0LjR2NDUuMmMwIDIuNCAyIDQuMyA0LjQgNC40bTcwLjEgMGg1MC43YzIuNCAwIDQuNC0yIDQuNS00LjR2LTQ1LjFjMC0yLjUtMi00LjUtNC41LTQuNWgtNTAuN2MtMi40IDAtNC40IDItNC40IDQuNHY0NS4yYzAgMi40IDEuOSA0LjQgNC40IDQuNG0tMTQxLTY1aDUwLjdjMi40IDAgNC40LTIgNC40LTQuNXYtNDUuMWMwLTIuNC0yLTQuNC00LjQtNC40aC01MC43Yy0yLjUgMC00LjQgMi00LjUgNC40djQ1LjFjLjEgMi41IDIuMSA0LjUgNC41IDQuNW03MC45IDBoNTAuN2MyLjQgMCA0LjQtMiA0LjQtNC41di00NS4xYzAtMi40LTItNC40LTQuNC00LjRoLTUwLjdjLTIuNCAwLTQuNCAyLTQuNCA0LjR2NDUuMWMwIDIuNSAyIDQuNSA0LjQgNC41bTcwLjEgMGg1MC43YzIuNSAwIDQuNC0yIDQuNS00LjV2LTQ1LjFjMC0yLjUtMi00LjQtNC41LTQuNGgtNTAuN2MtMi40IDAtNC40IDItNC40IDQuNHY0NS4xYzAgMi41IDEuOSA0LjUgNC40IDQuNW0wLTY0LjloNTAuN2MyLjUgMCA0LjUtMiA0LjUtNC41di00NS4yYzAtMi40LTItNC40LTQuNS00LjRoLTUwLjdjLTIuNCAwLTQuNCAyLTQuNCA0LjR2NDUuMmMwIDIuNSAxLjkgNC41IDQuNCA0LjVNNTkzLjQgNDkwaDUwLjdjMi40IDAgNC40LTIgNC40LTQuNHYtNDUuMWMwLTIuNS0yLTQuNC00LjQtNC41aC01MC43Yy0yLjQgMC00LjQgMi00LjQgNC40djQ1LjJjMCAyLjQgMiA0LjQgNC40IDQuNCIvPiYjeGE7PC9zdmc+" parent="5G_yt-iN49mRIbdVEVWk-1" vertex="1">
          <mxGeometry x="-1488.99" y="-890.27" width="30" height="30" as="geometry" />
        </mxCell>
        <mxCell id="60riGedRtRJVRlvMksFJ-0" value="Token" style="outlineConnect=0;dashed=0;verticalLabelPosition=bottom;verticalAlign=top;align=center;html=1;shape=mxgraph.aws3.saml_token;fillColor=#D2D3D3;gradientColor=none;aspect=fixed;" vertex="1" parent="5G_yt-iN49mRIbdVEVWk-1">
          <mxGeometry x="-531" y="-175.02000000000004" width="28.79" height="30.04" as="geometry" />
        </mxCell>
        <mxCell id="60riGedRtRJVRlvMksFJ-2" style="edgeStyle=orthogonalEdgeStyle;rounded=0;orthogonalLoop=1;jettySize=auto;html=1;entryX=1;entryY=0.47;entryDx=0;entryDy=0;entryPerimeter=0;" edge="1" parent="5G_yt-iN49mRIbdVEVWk-1" source="CYGOTzT2Un6UXpQJSBjx-1" target="60riGedRtRJVRlvMksFJ-0">
          <mxGeometry relative="1" as="geometry" />
        </mxCell>
        <mxCell id="60riGedRtRJVRlvMksFJ-4" style="edgeStyle=orthogonalEdgeStyle;rounded=0;orthogonalLoop=1;jettySize=auto;html=1;entryX=0.25;entryY=1;entryDx=0;entryDy=0;entryPerimeter=0;" edge="1" parent="5G_yt-iN49mRIbdVEVWk-1" source="CYGOTzT2Un6UXpQJSBjx-2" target="5G_yt-iN49mRIbdVEVWk-150">
          <mxGeometry relative="1" as="geometry" />
        </mxCell>
      </root>
    </mxGraphModel>
  </diagram>
</mxfile>
